EBGaramond-Symbols.sfdir
StartChar: colon
Encoding: 58 58 70
Width: 248
VWidth: 0
Flags: HMW
LayerCount: 3
Fore
SplineSet
125 96 m 24
 155 96 180 71 180 41 c 24
 180 11 155 -14 125 -14 c 24
 95 -14 70 11 70 41 c 24
 70 71 95 96 125 96 c 24
125 373 m 24
 155 373 180 348 180 318 c 24
 180 288 155 263 125 263 c 24
 95 263 70 288 70 318 c 24
 70 348 95 373 125 373 c 24
EndSplineSet
Validated: 1
Substitution2: "sups subtable" colon.sups
Substitution2: "sinf subtable" colon.sinf
Substitution2: "ordn subtable" colon.ordn
Substitution2: "subs subtable" colon.subs
Position2: "rtbd subtable" dx=0 dy=0 dh=-74 dv=0
EndChar
StartChar: exclamdown
Encoding: 161 161 67
Width: 275
VWidth: 0
Flags: HMW
LayerCount: 3
Fore
SplineSet
125 374 m 24
 92 374 65 401 65 434 c 24
 65 467 92 494 125 494 c 24
 158 494 185 467 185 434 c 24
 185 401 158 374 125 374 c 24
126 -180 m 0
 90 -180 74 -145 74 -106 c 0
 74 -43 87 87 97 205 c 0
 99 234 110 263 125 263 c 0
 135 263 145 233 147 211 c 0
 159 95 174 -21 174 -108 c 0
 174 -144 159 -180 126 -180 c 0
EndSplineSet
EndChar
StartChar: registered
Encoding: 174 174 1068
Width: 665
VWidth: 0
Flags: HMW
LayerCount: 3
Fore
SplineSet
406 413 m 0
 406 445 377 467 342 467 c 0
 312 467 304 455 304 437 c 2
 304 372 l 2
 304 353 317 352 331 352 c 0
 370 352 406 374 406 413 c 0
366 496 m 2
 418 496 470 470 470 417 c 0
 470 376 445 349 421 339 c 0
 412 335 417 329 421 322 c 2
 487 211 l 2
 495 197 506 194 518 194 c 0
 522 194 534 198 534 190 c 0
 534 172 509 163 490 163 c 0
 466 163 444 173 432 193 c 2
 374 290 l 2
 363 308 345 320 320 320 c 0
 312 320 304 316 304 309 c 2
 305 233 l 2
 305 211 323 206 339 201 c 0
 348 198 358 191 358 183 c 0
 358 177 348 172 342 172 c 0
 310 172 305 176 277 176 c 0
 249 176 248 172 216 172 c 0
 210 172 200 177 200 183 c 0
 200 191 210 198 219 201 c 0
 235 206 244 211 244 233 c 2
 244 422 l 2
 244 463 241 459 221 464 c 0
 207 468 202 474 202 482 c 0
 202 490 209 496 222 496 c 2
 366 496 l 2
346 590 m 24
 201 590 83 472 83 327 c 24
 83 181 199 58 345 58 c 24
 492 58 609 180 609 327 c 24
 609 472 491 590 346 590 c 24
346 630 m 24
 513 630 649 494 649 327 c 24
 649 160 512 24 345 24 c 24
 178 24 43 160 43 327 c 24
 43 494 179 630 346 630 c 24
EndSplineSet
Validated: 1
Substitution2: "sups subtable" registered.sups
EndChar
StartChar: uni00B3
Encoding: 179 179 574
Width: 300
VWidth: 0
Flags: HMW
LayerCount: 3
Fore
SplineSet
112 434 m 0
 83 434 46 439 46 467 c 0
 46 475 55 495 64 495 c 0
 70 495 75 492 77 490 c 0
 89 482 112 468 142 468 c 0
 155 468 201 478 201 536 c 8
 201 570 172 593 134 593 c 0
 124 593 108 589 97 586 c 0
 91 584 78 592 83 597 c 24
 98 612 118 615 132 622 c 0
 166 640 187 653 187 686 c 16
 187 707 158 723 140 723 c 0
 117 723 91 716 68 693 c 0
 66 691 62 687 60 687 c 0
 57 687 50 694 52 698 c 0
 68 729 102 770 155 770 c 0
 206 770 243 750 243 699 c 0
 243 674 220 651 184 633 c 0
 180 631 180 625 184 625 c 8
 224 625 253 590 253 550 c 16
 253 469 165 434 112 434 c 0
EndSplineSet
Validated: 1
EndChar
StartChar: lslash
Encoding: 322 322 1006
Width: 278
VWidth: 0
Flags: HMW
AnchorPoint: "below_accent" 115 -100 basechar 0
LayerCount: 3
Fore
SplineSet
174 62 m 2
 174 35 197 30 217 24 c 0
 228 20 240 16 240 6 c 0
 240 -2 227 -3 220 -3 c 0
 219 -3 218 -3 217 -3 c 0
 178 -3 174 2 139 2 c 0
 104 2 100 -3 61 -3 c 0
 60 -3 59 -3 58 -3 c 0
 51 -3 38 -2 38 6 c 0
 38 16 50 20 61 24 c 0
 81 30 104 35 104 62 c 2
 104 317 l 1
 50 288 l 2
 42 284 30 296 30 304 c 0
 30 313 38 319 43 322 c 2
 104 355 l 1
 104 566 l 2
 104 581 91 632 58 639 c 0
 53 640 49 646 49 652 c 0
 49 658 53 663 57 664 c 0
 108 676 141 692 173 704 c 0
 174 704 174 705 175 705 c 0
 178 705 181 701 181 698 c 0
 181 686 175 652 175 562 c 2
 175 393 l 1
 232 423 l 2
 234 424 237 425 239 425 c 0
 245 425 250 420 250 405 c 0
 250 398 241 390 232 385 c 2
 174 355 l 1
 174 62 l 2
EndSplineSet
Validated: 1
Substitution2: "Smallcaps1 subtable" lslash.sc
EndChar
StartChar: tbar
Encoding: 359 359 999
Width: 351
VWidth: 0
Flags: HMW
LayerCount: 3
Fore
SplineSet
63 352 m 0
 57 353 48 373 56 376 c 0
 98 393 124 423 143 450 c 0
 148 457 162 462 169 462 c 0
 173 462 175 461 175 459 c 2
 169 414 l 2
 168 405 178 400 191 400 c 2
 309 400 l 2
 314 400 317 388 317 376 c 0
 317 364 314 352 309 352 c 2
 206 352 l 2
 170 352 166 352 166 338 c 0
 166 307 166 277 166 246 c 1
 261 246 l 2
 268 246 277 239 274 232 c 0
 267 219 258 208 243 208 c 2
 166 208 l 1
 166 107 l 2
 166 67 200 31 236 31 c 0
 280 31 295 42 311 54 c 0
 317 58 321 49 321 41 c 0
 321 38 320 36 319 34 c 0
 310 19 255 -14 203 -14 c 0
 147 -14 96 27 96 83 c 2
 96 208 l 1
 54 208 l 2
 45 208 40 215 40 221 c 0
 40 230 52 246 64 246 c 2
 96 246 l 1
 96 337 l 2
 96 356 84 350 63 352 c 0
EndSplineSet
Validated: 1
Substitution2: "Smallcaps1 subtable" tbar.sc
Position2: "rtbd subtable" dx=0 dy=0 dh=-22 dv=0
EndChar
StartChar: uni0194
Encoding: 404 404 2335
Width: 672
VWidth: 0
Flags: HMW
LayerCount: 3
Fore
SplineSet
289 72 m 2
 103 547 l 2
 89 584 67 610 33 620 c 0
 11 627 0 633 0 642 c 0
 0 650 12 653 29 653 c 0
 60 653 105 650 151 650 c 0
 191 650 233 652 253 652 c 0
 270 652 282 649 282 641 c 0
 282 632 272 625 249 621 c 0
 219 615 186 598 186 580 c 0
 186 572 192 542 195 533 c 2
 322 197 l 2
 338 156 346 148 362 189 c 2
 499 547 l 2
 501 551 507 575 507 579 c 0
 507 595 464 613 440 620 c 0
 426 624 407 631 407 640 c 0
 407 648 419 651 436 651 c 0
 462 651 497 650 535 650 c 0
 574 650 623 653 649 653 c 0
 666 653 678 650 678 642 c 0
 678 633 668 627 645 622 c 0
 596 611 561 571 547 535 c 2
 379 95 l 2
 371 76 373 69 384 41 c 0
 425 -65 431 -87 431 -155 c 0
 431 -224 376 -286 305 -286 c 0
 247 -286 218 -237 218 -174 c 0
 218 -139 243 -64 290 42 c 0
 296 54 294 59 289 72 c 2
310 -28 m 0
 294 -65 274 -119 274 -161 c 0
 274 -206 290 -239 316 -239 c 0
 344 -239 357 -215 357 -173 c 0
 357 -148 344 -83 325 -28 c 0
 322 -20 314 -20 310 -28 c 0
EndSplineSet
Validated: 33
Position2: "rtbd subtable" dx=0 dy=0 dh=-34 dv=0
Position2: "lfbd subtable" dx=-34 dy=0 dh=-34 dv=0
Position2: "Single Positioning lookup 82 subtable" dx=0 dy=0 dh=135 dv=0
Position2: "Single Positioning lookup 81 subtable" dx=0 dy=0 dh=100 dv=0
Position2: "Single Positioning lookup 80 subtable" dx=0 dy=0 dh=80 dv=0
Position2: "Single Positioning lookup 79 subtable" dx=0 dy=0 dh=65 dv=0
Position2: "Single Positioning lookup 78 subtable" dx=0 dy=0 dh=45 dv=0
Position2: "Single Positioning lookup 77 subtable" dx=0 dy=0 dh=15 dv=0
Position2: "Single Positioning lookup 76 subtable" dx=0 dy=0 dh=60 dv=0
Position2: "Single Positioning lookup 75 subtable" dx=0 dy=0 dh=25 dv=0
Position2: "Single Positioning lookup 74 subtable" dx=0 dy=0 dh=15 dv=0
Position2: "Single Positioning lookup 73 subtable" dx=0 dy=0 dh=135 dv=0
Position2: "Single Positioning lookup 72 subtable" dx=0 dy=0 dh=100 dv=0
Position2: "Single Positioning lookup 71 subtable" dx=0 dy=0 dh=80 dv=0
Position2: "Single Positioning lookup 70 subtable" dx=0 dy=0 dh=65 dv=0
Position2: "Single Positioning lookup 69 subtable" dx=0 dy=0 dh=45 dv=0
Position2: "Single Positioning lookup 68 subtable" dx=0 dy=0 dh=15 dv=0
EndChar
StartChar: uni0197
Encoding: 407 407 2156
Width: 352
VWidth: 0
Flags: HMW
AnchorPoint: "cedilla" 186 8 basechar 0
AnchorPoint: "ogonek" 206 18 basechar 0
LayerCount: 3
Fore
SplineSet
136 550 m 2
 136 597 119 613 69 622 c 0
 46 626 36 633 36 642 c 0
 36 650 48 653 65 653 c 0
 119 653 136 650 182 650 c 0
 225 650 237 653 291 653 c 0
 308 653 320 650 320 642 c 0
 320 633 310 626 287 622 c 0
 237 613 216 597 216 550 c 2
 216 353 l 1
 290 353 l 2
 296 353 303 347 303 341 c 0
 303 321 287 317 272 317 c 2
 216 317 l 1
 216 98 l 2
 216 51 245 33 295 24 c 0
 318 20 328 15 328 6 c 0
 328 -2 316 -5 299 -5 c 0
 245 -5 228 0 182 0 c 0
 132 0 108 -5 54 -5 c 0
 37 -5 25 -2 25 6 c 0
 25 15 35 20 58 24 c 0
 108 33 136 51 136 98 c 2
 136 317 l 1
 63 317 l 2
 56 317 49 323 49 329 c 0
 49 338 60 353 73 353 c 2
 136 353 l 1
 136 550 l 2
EndSplineSet
Validated: 1
EndChar
StartChar: uni019F
Encoding: 415 415 2118
Width: 763
VWidth: 0
Flags: HMW
AnchorPoint: "cedilla" 412 8 basechar 0
AnchorPoint: "ogonek" 520 18 basechar 0
AnchorPoint: "below_accent" 370 -100 basechar 0
AnchorPoint: "top_accent" 383 710 basechar 0
LayerCount: 3
Fore
SplineSet
45 320 m 0
 45 501 166 664 390 664 c 0
 564 664 717 532 717 335 c 0
 717 155 601 -14 382 -14 c 0
 205 -14 45 130 45 320 c 0
617 371 m 1
 599 524 516 625 375 625 c 0
 234 625 151 503 143 371 c 1
 617 371 l 1
621 301 m 1
 145 301 l 1
 163 151 261 25 395 25 c 0
 544 25 620 132 621 301 c 1
EndSplineSet
Validated: 1
Substitution2: "salt subtable" uni019F.alt
Position2: "rtbd subtable" dx=0 dy=0 dh=-38 dv=0
Position2: "lfbd subtable" dx=-38 dy=0 dh=-38 dv=0
EndChar
StartChar: uni01B3
Encoding: 435 435 2165
Width: 637
VWidth: 0
Flags: HMW
LayerCount: 3
Fore
SplineSet
487 538 m 0
 433 455 415 425 369 346 c 0
 344 303 344 295 344 256 c 2
 344 108 l 2
 344 63 373 33 423 24 c 0
 446 20 456 15 456 6 c 0
 456 -2 444 -5 427 -5 c 0
 373 -5 356 0 310 0 c 24
 260 0 236 -5 182 -5 c 0
 165 -5 153 -2 153 6 c 0
 153 15 163 20 186 24 c 0
 236 33 264 60 264 108 c 2
 264 256 l 2
 264 283 244 321 239 330 c 2
 122 522 l 2
 107 546 67 610 33 620 c 0
 11 627 0 633 0 642 c 0
 0 650 12 653 29 653 c 0
 59 653 100 650 146 650 c 24
 177 650 205 652 226 652 c 0
 243 652 255 649 255 641 c 0
 255 632 244 626 222 621 c 0
 203 616 190 611 190 596 c 0
 190 588 194 576 203 560 c 2
 295 395 l 2
 310 369 317 357 323 357 c 0
 331 357 338 367 356 395 c 0
 387 442 443 534 480 592 c 0
 494 614 541 666 588 666 c 0
 633 666 662 642 662 572 c 0
 662 525 621 510 603 510 c 0
 592 510 583 517 583 534 c 0
 583 544 593 575 593 587 c 0
 593 601 593 620 569 620 c 0
 549 620 507 569 487 538 c 0
EndSplineSet
Validated: 1
Position2: "rtbd subtable" dx=0 dy=0 dh=-29 dv=0
Position2: "lfbd subtable" dx=-29 dy=0 dh=-29 dv=0
Position2: "Single Positioning lookup 97 subtable" dx=0 dy=0 dh=135 dv=0
Position2: "Single Positioning lookup 96 subtable" dx=0 dy=0 dh=100 dv=0
Position2: "Single Positioning lookup 95 subtable" dx=0 dy=0 dh=80 dv=0
Position2: "Single Positioning lookup 94 subtable" dx=0 dy=0 dh=65 dv=0
Position2: "Single Positioning lookup 93 subtable" dx=0 dy=0 dh=45 dv=0
Position2: "Single Positioning lookup 92 subtable" dx=0 dy=0 dh=15 dv=0
Position2: "Single Positioning lookup 91 subtable" dx=0 dy=0 dh=60 dv=0
Position2: "Single Positioning lookup 90 subtable" dx=0 dy=0 dh=25 dv=0
Position2: "Single Positioning lookup 89 subtable" dx=0 dy=0 dh=15 dv=0
Position2: "Single Positioning lookup 88 subtable" dx=0 dy=0 dh=135 dv=0
Position2: "Single Positioning lookup 87 subtable" dx=0 dy=0 dh=100 dv=0
Position2: "Single Positioning lookup 86 subtable" dx=0 dy=0 dh=80 dv=0
Position2: "Single Positioning lookup 85 subtable" dx=0 dy=0 dh=65 dv=0
Position2: "Single Positioning lookup 84 subtable" dx=0 dy=0 dh=45 dv=0
Position2: "Single Positioning lookup 83 subtable" dx=0 dy=0 dh=15 dv=0
EndChar
StartChar: uni01B6
Encoding: 438 438 2168
Width: 377
VWidth: 0
Flags: HMW
LayerCount: 3
Fore
SplineSet
256 35 m 2
 286 35 312 69 342 112 c 0
 345 117 352 136 364 136 c 0
 373 136 372 117 372 113 c 0
 372 105 349 25 344 9 c 0
 343 4 336 -5 330 -5 c 0
 301 -5 228 0 119 0 c 0
 91 0 56 -5 39 -5 c 0
 34 -5 25 7 25 12 c 0
 25 17 48 51 62 70 c 0
 90 110 115 146 139 183 c 1
 77 183 l 2
 70 183 63 189 63 195 c 0
 63 204 74 218 87 218 c 2
 162 218 l 1
 188 259 215 302 248 354 c 0
 251 358 254 364 239 364 c 2
 122 364 l 2
 104 364 90 337 70 311 c 0
 65 305 53 286 43 286 c 0
 34 286 33 300 37 308 c 0
 45 327 54 373 54 398 c 0
 54 408 65 416 69 416 c 0
 72 416 78 412 84 407 c 0
 90 402 109 401 127 401 c 0
 142 401 156 402 165 402 c 0
 234 402 290 403 351 405 c 0
 356 405 361 397 358 393 c 0
 344 376 334 363 320 343 c 2
 238 218 l 1
 313 218 l 2
 319 218 326 212 326 206 c 0
 326 196 310 183 295 183 c 2
 215 183 l 1
 127 50 l 2
 122 42 133 35 139 35 c 2
 256 35 l 2
EndSplineSet
Validated: 1
EndChar
StartChar: uni01BE
Encoding: 446 446 2343
Width: 352
VWidth: 0
Flags: HMW
AnchorPoint: "below_accent" 182 -100 basechar 0
AnchorPoint: "top_accent" 191 550 basechar 0
LayerCount: 3
Fore
SplineSet
81 296 m 10
 81 337 l 2
 81 346 77 352 53 352 c 0
 49 352 41 365 41 372 c 0
 41 375 44 378 46 379 c 0
 99 394 142 468 152 468 c 0
 158 468 171 467 169 458 c 10
 160 414 l 18
 158 405 172 400 185 400 c 10
 312 400 l 18
 317 400 322 388 322 376 c 0
 322 364 317 352 312 352 c 10
 171 352 l 18
 152 352 142 348 142 322 c 0
 142 282 195 251 227 231 c 0
 257 212 322 172 322 106 c 0
 322 37 289 -14 178 -14 c 0
 124 -14 78 9 72 22 c 0
 65 36 60 60 59 83 c 0
 59 89 68 92 76 92 c 0
 83 92 90 90 91 85 c 0
 98 51 143 13 184 13 c 0
 232 13 254 43 254 83 c 0
 254 119 222 143 178 174 c 0
 130 208 81 248 81 296 c 10
EndSplineSet
Validated: 1
EndChar
StartChar: uni0236
Encoding: 566 566 2913
Width: 390
VWidth: 0
Flags: HMW
LayerCount: 3
Fore
SplineSet
171 107 m 1
 179 56 208 41 235 41 c 0
 261 41 293 55 293 83 c 0
 293 122 265 135 239 135 c 0
 219 135 195 124 171 107 c 1
169 147 m 1
 197 164 229 175 261 175 c 0
 300 175 337 156 337 103 c 0
 337 36 256 -13 203 -13 c 0
 157 -13 123 6 108 49 c 1
 86 23 67 -5 58 -29 c 0
 55 -37 49 -51 36 -51 c 0
 29 -51 23 -43 23 -35 c 0
 23 -15 52 42 99 91 c 1
 99 173 99 255 99 337 c 0
 99 356 82 350 61 352 c 0
 57 353 49 362 49 369 c 0
 49 372 52 375 54 376 c 0
 107 391 148 468 158 468 c 0
 164 468 172 467 172 458 c 2
 172 414 l 2
 172 405 181 400 194 400 c 2
 308 400 l 2
 313 400 316 388 316 376 c 0
 316 364 313 352 308 352 c 2
 209 352 l 2
 175 352 169 351 169 324 c 2
 169 147 l 1
EndSplineSet
Validated: 1
Position2: "rtbd subtable" dx=0 dy=0 dh=-22 dv=0
EndChar
StartChar: uni0248
Encoding: 584 584 2187
Width: 319
VWidth: 0
Flags: HMW
LayerCount: 3
Fore
SplineSet
78 -158 m 0
 125 -158 144 -97 144 0 c 2
 144 292 l 1
 28 292 l 2
 21 292 14 298 14 304 c 0
 14 313 22 336 38 336 c 2
 144 336 l 1
 144 551 l 2
 144 597 126 613 78 622 c 0
 56 626 45 633 45 642 c 0
 45 650 57 653 74 653 c 0
 128 653 145 650 191 650 c 0
 228 650 231 653 285 653 c 0
 302 653 314 650 314 642 c 0
 314 633 304 626 281 622 c 0
 231 613 224 597 224 551 c 2
 224 336 l 1
 298 336 l 2
 304 336 311 330 311 324 c 0
 311 304 297 292 280 292 c 2
 224 292 l 1
 224 142 l 2
 224 -68 199 -94 171 -134 c 0
 144 -173 107 -200 48 -200 c 0
 -17 -200 -55 -179 -55 -158 c 0
 -55 -131 -37 -103 -19 -103 c 0
 7 -103 19 -111 31 -129 c 0
 46 -152 61 -158 78 -158 c 0
EndSplineSet
Validated: 1
Position2: "lfbd subtable" dx=-15 dy=0 dh=-15 dv=0
EndChar
StartChar: uni024C
Encoding: 588 588 2919
Width: 723
VWidth: 0
Flags: HMW
LayerCount: 3
Fore
SplineSet
447 477 m 0
 447 558 425 627 312 627 c 0
 257 627 249 603 248 573 c 0
 245 500 244 452 244 372 c 0
 244 339 264 336 297 336 c 0
 389 336 447 400 447 477 c 0
419 325 m 0
 414 323 415 318 419 312 c 0
 481 218 528 143 622 58 c 0
 657 27 690 25 737 25 c 0
 747 25 752 22 752 14 c 0
 752 -15 696 -21 671 -21 c 0
 614 -21 568 -10 533 33 c 0
 484 93 456 124 387 236 c 0
 376 254 344 273 322 280 c 0
 303 286 277 289 259 291 c 0
 248 292 244 286 244 274 c 2
 244 110 l 2
 244 67 261 33 311 24 c 0
 334 20 344 15 344 6 c 0
 344 -2 332 -5 315 -5 c 0
 261 -5 255 2 217 2 c 0
 166 2 141 -5 87 -5 c 0
 70 -5 58 -2 58 6 c 0
 58 15 68 20 91 24 c 0
 141 33 164 51 164 100 c 2
 164 292 l 1
 70 292 l 2
 63 292 56 298 56 304 c 0
 56 313 64 336 80 336 c 2
 164 336 l 1
 164 522 l 2
 164 582 153 613 103 622 c 0
 80 626 70 633 70 642 c 0
 70 650 82 653 99 653 c 0
 153 653 156 652 197 652 c 0
 235 652 254 657 312 657 c 0
 458 657 537 602 537 493 c 0
 537 403 474 353 419 325 c 0
EndSplineSet
Validated: 1
EndChar
StartChar: uni024F
Encoding: 591 591 2916
Width: 496
VWidth: 0
Flags: HMW
LayerCount: 3
Fore
SplineSet
33 -249 m 0
 33 -233 40 -219 60 -219 c 0
 75 -219 89 -225 100 -225 c 0
 108 -225 114 -222 119 -214 c 0
 140 -178 181 -93 210 -16 c 0
 212 -10 213 -2 213 7 c 0
 213 18 212 28 209 36 c 2
 129 239 l 1
 56 239 l 2
 49 239 42 245 42 251 c 0
 42 260 50 283 66 283 c 2
 111 283 l 1
 93 329 l 2
 83 353 68 372 48 378 c 0
 37 382 25 386 25 396 c 0
 25 404 38 405 45 405 c 0
 85 405 83 400 118 400 c 0
 153 400 154 405 194 405 c 0
 202 405 214 402 214 394 c 0
 214 384 196 375 185 372 c 0
 171 368 165 359 165 340 c 0
 165 332 170 319 173 312 c 2
 185 283 l 1
 329 283 l 1
 334 295 l 2
 338 304 342 322 342 332 c 0
 342 357 334 365 322 370 c 0
 311 375 293 384 293 394 c 0
 293 402 306 405 313 405 c 0
 331 405 347 400 384 400 c 0
 421 400 421 405 443 405 c 0
 450 405 463 404 463 396 c 0
 463 386 451 382 440 378 c 0
 420 372 394 343 381 311 c 2
 369 283 l 1
 426 283 l 2
 432 283 439 277 439 271 c 0
 439 251 425 239 408 239 c 2
 351 239 l 1
 245 -13 l 2
 241 -22 190 -148 149 -244 c 0
 137 -271 113 -285 84 -285 c 0
 60 -285 33 -271 33 -249 c 0
313 239 m 1
 202 239 l 1
 252 116 l 2
 258 102 262 103 267 117 c 2
 313 239 l 1
EndSplineSet
Validated: 1
EndChar
StartChar: uni025A
Encoding: 602 602 2191
Width: 521
VWidth: 0
Flags: HMW
AnchorPoint: "below_accent" 185 -100 basechar 0
AnchorPoint: "top_accent" 190 550 basechar 0
LayerCount: 3
Fore
SplineSet
339 334 m 1
 409 381 l 2
 420 389 449 410 458 410 c 0
 467 410 478 405 478 396 c 0
 478 390 448 366 448 324 c 0
 448 296 465 289 478 289 c 0
 497 289 521 312 528 312 c 0
 538 312 541 304 541 294 c 0
 541 284 496 240 453 240 c 0
 432 240 409 270 409 298 c 0
 409 315 418 340 418 340 c 1
 418 340 411 337 402 330 c 2
 357 299 l 1
 367 274 372 248 372 220 c 0
 372 102 290 -14 180 -14 c 0
 78 -14 25 52 25 101 c 0
 25 121 47 138 69 153 c 2
 275 291 l 1
 255 332 219 362 171 362 c 0
 129 362 84 346 58 312 c 0
 55 309 52 307 49 307 c 0
 42 307 37 314 37 323 c 0
 37 348 103 414 199 414 c 0
 259 414 309 382 339 334 c 1
289 252 m 1
 120 137 l 2
 110 130 106 117 106 91 c 0
 106 59 143 17 191 17 c 0
 277 17 295 117 295 199 c 0
 295 217 293 235 289 252 c 1
EndSplineSet
Validated: 1
EndChar
StartChar: uni0280
Encoding: 640 640 2049
Width: 468
VWidth: 0
Flags: HMW
LayerCount: 3
Fore
SplineSet
289 302 m 0
 289 341 277 376 199 376 c 0
 161 376 152 360 152 338 c 2
 152 242 l 2
 152 218 182 217 185 217 c 0
 249 217 289 244 289 302 c 0
199 405 m 0
 300 405 364 378 364 303 c 0
 364 249 328 219 298 206 c 0
 295 205 286 204 289 200 c 0
 332 135 338 106 386 41 c 0
 401 21 410 20 425 20 c 0
 433 20 453 20 453 13 c 0
 453 -5 423 -14 400 -14 c 0
 366 -14 328 0 316 24 c 0
 294 68 294 68 247 145 c 0
 239 157 231 165 217 172 c 24
 197 182 175 186 162 187 c 0
 155 188 152 182 152 173 c 2
 153 63 l 2
 153 35 176 30 196 24 c 0
 207 20 219 16 219 6 c 0
 219 -3 204 -3 196 -3 c 0
 157 -3 153 2 118 2 c 0
 83 2 77 -3 37 -3 c 0
 30 -3 17 -2 17 6 c 0
 17 16 29 20 40 24 c 0
 60 30 82 35 82 63 c 2
 82 320 l 2
 82 371 67 369 36 376 c 0
 33 377 19 384 19 390 c 0
 19 396 27 402 32 402 c 0
 67 405 159 405 199 405 c 0
EndSplineSet
Validated: 1
EndChar
StartChar: uni0282
Encoding: 642 642 2199
Width: 323
VWidth: 0
Flags: HMW
LayerCount: 3
Fore
SplineSet
95 -36 m 2
 95 -202 102 -260 140 -260 c 0
 166 -260 182 -238 182 -219 c 0
 182 -201 224 -169 245 -169 c 0
 253 -169 254 -182 254 -195 c 0
 254 -258 188 -288 116 -288 c 0
 50 -288 31 -211 30 -104 c 1
 30 -104 30 -31 30 24 c 0
 30 52 30 75 30 83 c 0
 30 89 39 92 47 92 c 0
 54 92 70 75 71 70 c 0
 78 36 112 13 147 13 c 0
 203 13 221 44 221 84 c 0
 221 120 193 143 149 174 c 0
 101 208 52 251 52 300 c 0
 52 353 92 414 190 414 c 0
 230 414 259 401 269 391 c 1
 281 376 286 341 286 313 c 0
 286 310 284 309 280 309 c 0
 270 309 247 321 246 330 c 0
 244 354 215 388 182 388 c 0
 127 388 113 348 113 320 c 0
 113 285 166 251 198 231 c 0
 228 212 293 172 293 106 c 0
 293 37 260 -14 149 -14 c 0
 95 -14 95 0 95 0 c 9
 95 -36 l 2
EndSplineSet
Validated: 1
EndChar
StartChar: uni0292
Encoding: 658 658 1033
Width: 391
VWidth: 0
Flags: HMW
AnchorPoint: "top_accent" 199 550 basechar 0
LayerCount: 3
Fore
SplineSet
301 -67 m 0
 301 7 273 94 199 94 c 16
 168 94 129 83 115 83 c 0
 101 83 111 100 110 101 c 1
 113 109 125 131 137 151 c 2
 261 354 l 2
 264 358 267 363 252 364 c 0
 221 365 189 368 158 368 c 0
 151 368 143 367 136 367 c 0
 116 366 85 337 65 311 c 0
 60 305 48 286 38 286 c 0
 29 286 33 300 37 308 c 0
 45 327 49 380 49 405 c 0
 49 415 55 416 59 416 c 0
 62 416 68 412 74 407 c 0
 79 403 103 402 122 402 c 18
 194 402 l 2
 256 402 310 403 363 404 c 0
 368 404 372 396 370 392 c 0
 360 374 353 363 340 343 c 0
 288 263 261 218 215 133 c 0
 210 123 216 120 224 120 c 0
 231 120 239 122 241 122 c 8
 323 122 386 55 386 -31 c 0
 386 -138 269 -285 128 -285 c 16
 117 -285 72 -284 42 -268 c 24
 27 -261 24 -246 24 -228 c 0
 24 -217 27 -204 38 -204 c 0
 56 -204 63 -221 80 -230 c 0
 100 -241 116 -245 128 -245 c 8
 225 -245 301 -139 301 -67 c 0
EndSplineSet
Validated: 1
EndChar
StartChar: uni02A2
Encoding: 674 674 2225
Width: 377
VWidth: 0
Flags: HMW
LayerCount: 3
Fore
SplineSet
32 504 m 0
 32 628 133 700 246 700 c 0
 289 700 336 689 366 652 c 0
 369 648 371 644 371 640 c 0
 371 623 343 606 333 606 c 0
 324 606 313 611 308 616 c 0
 275 652 264 663 214 663 c 0
 147 663 106 597 106 530 c 0
 106 495 149 432 181 412 c 0
 211 393 259 334 259 268 c 2
 259 220 l 1
 336 220 l 2
 342 220 349 214 349 208 c 0
 349 198 335 178 318 178 c 2
 259 178 l 1
 259 62 l 2
 259 35 282 30 302 24 c 0
 313 20 325 16 325 6 c 0
 325 -2 312 -3 305 -3 c 0
 266 -3 259 2 224 2 c 0
 189 2 182 -3 143 -3 c 0
 136 -3 123 -2 123 6 c 0
 123 16 135 20 146 24 c 0
 166 30 189 35 189 62 c 2
 189 178 l 1
 108 178 l 2
 101 178 94 184 94 190 c 0
 94 199 103 220 118 220 c 2
 189 220 l 1
 189 244 l 2
 189 280 171 327 132 355 c 0
 93 383 32 454 32 504 c 0
EndSplineSet
Validated: 1
EndChar
StartChar: uni0312
Encoding: 786 786 124
Width: 0
VWidth: 0
Flags: HMW
AnchorPoint: "top_accent" 107 550 mark 0
LayerCount: 3
Fore
SplineSet
115 547 m 0
 144 547 162 527 162 505 c 0
 162 489 144 469 115 469 c 0
 67 469 32 510 32 566 c 0
 32 630 106 689 158 689 c 0
 170 689 176 684 176 679 c 0
 176 675 171 670 162 668 c 0
 118 659 84 626 84 592 c 0
 84 571 96 547 115 547 c 0
EndSplineSet
Validated: 1
Substitution2: "Smallcaps1 subtable" uni0312.sc
EndChar
StartChar: uni0339
Encoding: 825 825 2274
Width: 0
VWidth: 0
Flags: HMW
AnchorPoint: "below_accent" 99 -100 mark 0
LayerCount: 3
Fore
SplineSet
58 -87 m 0
 111 -87 149 -122 149 -166 c 0
 149 -218 107 -255 54 -255 c 0
 47 -255 44 -252 44 -247 c 0
 44 -239 52 -229 58 -229 c 0
 94 -229 111 -205 111 -177 c 0
 111 -138 90 -112 54 -112 c 0
 48 -112 46 -108 46 -104 c 0
 46 -97 52 -87 58 -87 c 0
EndSplineSet
Validated: 1
EndChar
StartChar: uni1DD3
Encoding: 7635 7635 2861
Width: 0
Flags: HMW
AnchorPoint: "top_accent" 237 533 mark 0
LayerCount: 3
Fore
SplineSet
432 675 m 0
 459 675 468 648 468 626 c 0
 468 561 421 522 356 522 c 0
 304 522 281 596 265 596 c 0
 260 596 194 530 189 530 c 0
 166 530 136 637 97 637 c 0
 66 637 52 601 52 573 c 0
 52 545 80 541 80 514 c 0
 80 501 68 499 59 499 c 0
 33 499 10 530 10 562 c 0
 10 633 61 677 131 677 c 0
 190 677 199 603 219 603 c 0
 229 603 286 674 296 674 c 0
 324 674 344 564 389 564 c 0
 417 564 429 589 429 617 c 0
 429 629 409 640 409 660 c 0
 409 670 416 675 432 675 c 0
EndSplineSet
Validated: 1
EndChar
StartChar: dagger
Encoding: 8224 8224 1193
Width: 440
VWidth: 0
Flags: HMW
LayerCount: 3
Fore
SplineSet
220 635 m 0
 237 635 255 625 255 601 c 8
 255 538 235 504 235 441 c 16
 235 435 240 431 246 431 c 16
 288 431 320 451 369 451 c 16
 392 451 405 439 405 416 c 8
 405 398 394 381 373 381 c 8
 324 381 291 401 249 401 c 8
 240 401 235 389 235 384 c 8
 235 356 266 334 266 318 c 0
 266 300 239 289 239 -68 c 0
 239 -88 237 -117 220 -117 c 0
 200 -117 199 -90 199 -70 c 0
 199 302 174 299 174 318 c 0
 174 333 205 355 205 383 c 16
 205 388 199 401 194 401 c 8
 145 401 118 381 69 381 c 8
 50 381 35 397 35 416 c 8
 35 435 50 451 69 451 c 16
 111 451 142 431 190 431 c 16
 197 431 205 434 205 441 c 16
 205 506 185 536 185 601 c 8
 185 620 203 635 220 635 c 0
EndSplineSet
Validated: 1
Substitution2: "sups subtable" dagger.sups
Substitution2: "sinf subtable" dagger.sinf
Substitution2: "ordn subtable" dagger.ordn
Substitution2: "subs subtable" dagger.subs
EndChar
StartChar: uni2035
Encoding: 8245 8245 775
Width: 178
VWidth: 0
Flags: HMW
LayerCount: 3
Fore
SplineSet
99 633 m 0
 104 614 138 478 138 461 c 0
 138 452 137 444 127 444 c 0
 117 444 109 458 103 469 c 0
 76 516 30 616 30 642 c 0
 30 654 55 676 75 676 c 0
 83 676 91 663 99 633 c 0
EndSplineSet
EndChar
StartChar: uni204B
Encoding: 8267 8267 2312
Width: 586
VWidth: 0
Flags: HMW
LayerCount: 3
Fore
SplineSet
320 -218 m 16
 320 -210 318 -208 315 -208 c 0
 306 -208 287 -227 267 -227 c 0
 249 -227 232 -206 232 -184 c 16
 232 -157 259 -140 286 -140 c 8
 324 -140 356 -168 356 -206 c 8
 356 -253 315 -287 268 -287 c 16
 196 -287 155 -210 155 -166 c 2
 155 589 l 18
 155 598 147 607 137 607 c 0
 132 607 71 600 65 600 c 0
 57 600 47 613 47 622 c 0
 47 631 52 643 62 643 c 16
 110 645 124 645 173 645 c 8
 353 645 541 546 541 366 c 16
 541 204 369 119 207 119 c 16
 196 119 194 104 194 94 c 2
 194 -180 l 2
 194 -227 226 -262 272 -262 c 0
 299 -262 320 -243 320 -218 c 16
EndSplineSet
Validated: 1
EndChar
StartChar: uni262E
Encoding: 9774 9774 3359
Width: 763
VWidth: 0
Flags: MW
LayerCount: 3
Fore
SplineSet
45 320 m 0
 45 501 166 664 390 664 c 0
 564 664 718 532 718 335 c 0
 718 155 601 -14 382 -14 c 0
 205 -14 45 130 45 320 c 0
341.429 312.2 m 2
 198.685 128.216 l 1
 237.373 78.4934 288.635 42.438 346.5 29.1299 c 1
 346.5 310.467 l 2
 346.5 314.467 343.88 315.361 341.429 312.2 c 2
406.5 287.267 m 2
 406.5 23.6739 l 1
 467.44 25.7111 517.847 45.59 555.964 80.1589 c 1
 412.033 289.133 l 2
 409.762 292.426 406.5 291.267 406.5 287.267 c 2
605.62 146.376 m 1
 627.445 189.775 638.963 243.34 638.963 304.9 c 0
 638.963 478.91 555.046 602.845 416.5 623.465 c 1
 416.5 422.7 l 2
 416.5 419.7 417.947 416.372 420.5 412.7 c 2
 605.62 146.376 l 1
346.5 624.909 m 1
 211.214 609.338 124.037 481.937 124.037 350.125 c 0
 124.037 282.885 142.534 218.261 174.107 164.499 c 1
 328.5 357.185 l 2
 340.131 371.7 346.5 385.185 346.5 394.185 c 2
 346.5 624.909 l 1
EndSplineSet
EndChar
StartChar: uni263F
Encoding: 9791 9791 3127
Width: 495
Flags: MW
LayerCount: 3
Fore
SplineSet
236.475 633 m 0
 199.62 633 169.275 624 144.075 593 c 0
 115.725 559 110.475 508 110.475 460 c 0
 110.475 361 173.475 266 255.375 266 c 0
 301.443 266 342.525 282 363.525 321 c 0
 380.325 352 384.525 400 384.525 439 c 0
 384.525 534 323.493 633 236.475 633 c 0
282.5 156 m 2
 282.5 151 282.5 150 284.5 150 c 0
 352.5 150 326.5 150 394.5 150 c 0
 400.896 150 407.5 146 407.5 140 c 0
 407.5 123 396.236 100 376.5 100 c 2
 286.5 100 l 2
 283.5 100 282.5 99 282.5 96 c 2
 282.5 19 l 2
 282.5 -1.92969 243.5 -5 234.5 -5 c 0
 228.5 -5 222.5 1.80859 222.5 9 c 2
 222.5 95 l 2
 222.5 98 221.5 100 218.5 100 c 2
 111.5 100 l 2
 104.309 100 97.5 106 97.5 112 c 0
 97.5 121 103.972 150 121.5 150 c 2
 215.5 150 l 2
 221.5 150 222.5 152 222.5 158 c 2
 222.5 234 l 2
 222.5 234.779 222.552 235.542 222.652 236.29 c 1
 116.178 241.757 35 323.983 35 437 c 0
 35 495.687 61.8357 555.772 105.309 599.372 c 1
 85.7909 619.789 69 642.71 69 648 c 0
 69 658 80 670 90 670 c 0
 98 670 112 636 147 636 c 0
 155.33 636 187 664 254 664 c 0
 302.121 664 328.176 653.26 356.396 637.36 c 0
 358.364 636.497 359.889 636 361 636 c 0
 396 636 410 670 418 670 c 0
 428 670 439 658 439 648 c 0
 439 642.815 422.87 620.694 403.852 600.593 c 1
 438.854 564.175 460 515.35 460 463 c 0
 460 359.364 400.37 261.22 282.5 240.152 c 1
 282.5 156 l 2
EndSplineSet
EndChar
StartChar: female
Encoding: 9792 9792 3126
Width: 495
Flags: MW
LayerCount: 3
Fore
SplineSet
236.475 633 m 0
 199.62 633 169.275 624 144.075 593 c 0
 115.725 559 110.475 508 110.475 460 c 0
 110.475 361 173.475 266 255.375 266 c 0
 301.443 266 342.525 282 363.525 321 c 0
 380.325 352 384.525 400 384.525 439 c 0
 384.525 534 323.493 633 236.475 633 c 0
254 664 m 0
 370 664 460 571 460 463 c 0
 460 359.364 400.37 261.22 282.5 240.152 c 1
 282.5 156 l 2
 282.5 151 282.5 150 284.5 150 c 0
 352.5 150 326.5 150 394.5 150 c 0
 400.896 150 407.5 146 407.5 140 c 0
 407.5 123 396.236 100 376.5 100 c 2
 286.5 100 l 2
 283.5 100 282.5 99 282.5 96 c 2
 282.5 19 l 2
 282.5 -1.92969 243.5 -5 234.5 -5 c 0
 228.5 -5 222.5 1.80859 222.5 9 c 2
 222.5 95 l 2
 222.5 98 221.5 100 218.5 100 c 2
 111.5 100 l 2
 104.309 100 97.5 106 97.5 112 c 0
 97.5 121 103.972 150 121.5 150 c 2
 215.5 150 l 2
 221.5 150 222.5 152 222.5 158 c 2
 222.5 234 l 2
 222.5 234.779 222.552 235.542 222.652 236.29 c 1
 116.178 241.757 35 323.983 35 437 c 0
 35 548 131 664 254 664 c 0
EndSplineSet
EndChar
StartChar: uni2641
Encoding: 9793 9793 3125
Width: 495
Flags: MW
LayerCount: 3
Fore
SplineSet
236.475 383 m 0
 199.62 383 169.275 374 144.075 343 c 0
 115.725 309 110.475 258 110.475 210 c 0
 110.475 111 173.475 16 255.375 16 c 0
 301.443 16 342.525 32 363.525 71 c 0
 380.325 102 384.525 150 384.525 189 c 0
 384.525 284 323.493 383 236.475 383 c 0
282.5 546 m 2
 282.5 541 282.5 540 284.5 540 c 0
 352.5 540 326.5 540 394.5 540 c 0
 400.896 540 407.5 536 407.5 530 c 0
 407.5 513 396.236 490 376.5 490 c 2
 286.5 490 l 2
 283.5 490 282.5 489 282.5 486 c 2
 282.5 412.097 l 1
 384.414 398.351 460 311.975 460 213 c 0
 460 96 384 -14 234 -14 c 0
 122 -14 35 70 35 187 c 0
 35 288.326 114.995 393.818 222.5 411.437 c 1
 222.5 485 l 2
 222.5 488 221.5 490 218.5 490 c 2
 111.5 490 l 2
 104.309 490 97.5 496 97.5 502 c 0
 97.5 511 103.972 540 121.5 540 c 2
 215.5 540 l 2
 221.5 540 222.5 542 222.5 548 c 2
 222.5 624 l 2
 222.5 645.634 262.5 655 268.5 655 c 0
 275.5 655 282.5 649.451 282.5 642 c 2
 282.5 546 l 2
EndSplineSet
EndChar
StartChar: uni2643
Encoding: 9795 9795 3128
Width: 495
Flags: MW
LayerCount: 3
Fore
SplineSet
77.4118 272.568 m 0
 157.631 288.334 168.242 374.076 168.242 459 c 0
 168.242 554 80.2422 601 80.2422 611 c 0
 80.2422 630 120.242 655 137.242 655 c 0
 156.242 655 238.242 598 238.242 490 c 0
 238.242 412.421 207.906 322.093 143.736 270.03 c 1
 297.5 270.03 l 2
 302.5 270.03 309.439 274.031 309.5 278.03 c 2
 312.5 476.03 l 2
 312.786 501.028 363.5 524.03 370.5 524.03 c 0
 378.5 524.03 385.64 521.029 385.5 511.03 c 0
 384.146 414.04 381.117 392.04 381.5 275.03 c 0
 381.51 271.984 383.461 269.232 386.5 269.03 c 0
 401.5 268.03 409.912 268.932 421.912 268.932 c 0
 440.912 268.932 433.5 269.03 455.5 270.03 c 0
 461.5 270.03 466.5 267.03 466.5 263.03 c 0
 466.5 247.03 452.5 219.03 445.5 219.03 c 0
 430.5 219.03 437.368 219.479 421.368 219.479 c 0
 409.368 219.479 403.5 219.03 395.5 218.03 c 0
 390.5 217.03 382.5 213.03 382.5 212.03 c 2
 382.5 68 l 2
 382.5 41 402 30 422 24 c 0
 433 20 445 16 445 6 c 0
 445 -2 433 -3 425 -3 c 0
 385 -3 382 2 347 2 c 0
 312 2 309 -3 269 -3 c 0
 261 -3 249 -2 249 6 c 0
 249 16 261 20 272 24 c 0
 292 30 309.5 41 309.5 68 c 2
 309.5 207.03 l 2
 309.5 213.03 295.5 216.03 294.5 216.03 c 0
 212.5 216.03 140.5 210.03 35.5 209.03 c 0
 30.5 209.03 22.4913 209.06 22.5 214.03 c 0
 22.5436 239.03 43.0665 265.829 77.4118 272.568 c 0
EndSplineSet
EndChar
StartChar: uni26AA
Encoding: 9898 9898 3362
Width: 495
Flags: MW
LayerCount: 3
Fore
SplineSet
236.475 508 m 0
 199.62 508 169.275 499 144.075 468 c 0
 115.725 434 110.475 383 110.475 335 c 0
 110.475 236 173.475 141 255.375 141 c 0
 301.443 141 342.525 157 363.525 196 c 0
 380.325 227 384.525 275 384.525 314 c 0
 384.525 409 323.493 508 236.475 508 c 0
254 539 m 0
 370 539 460 446 460 338 c 0
 460 221 384 111 234 111 c 0
 122 111 35 195 35 312 c 0
 35 423 131 539 254 539 c 0
EndSplineSet
EndChar
StartChar: uni26B2
Encoding: 9906 9906 3365
Width: 495
Flags: MW
LayerCount: 3
Fore
SplineSet
236.475 633 m 0
 199.62 633 169.275 624 144.075 593 c 0
 115.725 559 110.475 508 110.475 460 c 0
 110.475 361 173.475 266 255.375 266 c 0
 301.443 266 342.525 282 363.525 321 c 0
 380.325 352 384.525 400 384.525 439 c 0
 384.525 534 323.493 633 236.475 633 c 0
222.5 234 m 2
 222.5 234.779 222.552 235.542 222.652 236.29 c 1
 116.178 241.757 35 323.983 35 437 c 0
 35 548 131 664 254 664 c 0
 370 664 460 571 460 463 c 0
 460 359.364 400.37 261.22 282.5 240.152 c 1
 282.5 19 l 2
 282.5 -1.92969 243.5 -5 234.5 -5 c 0
 228.5 -5 222.5 1.80859 222.5 9 c 2
 222.5 234 l 2
EndSplineSet
EndChar
StartChar: uni271D
Encoding: 10013 10013 3337
Width: 464
Flags: MW
LayerCount: 3
Fore
SplineSet
265 390 m 2
 262 390 261 389 261 386 c 0
 261 280.333 261 174.667 261 69 c 0
 261 40 281 27 313 22 c 0
 328 20 334 13 334 8 c 0
 334 3 326 0 315 0 c 2
 148 0 l 2
 137 0 129 3 129 8 c 0
 129 13 136 20 151 22 c 0
 183 27 201 40 201 69 c 0
 201 174.333 201 279.667 201 385 c 0
 201 388 200 390 197 390 c 2
 86 390 l 2
 65 390 40.5403 388.382 33 375 c 0
 29.0433 367.978 16 352 6 352 c 0
 3 352 1 356 1 360 c 0
 1 364 3 368 5 372 c 0
 17 395 21 432 25 457 c 0
 27 470 33 470 36 470 c 0
 39 470 47.7288 464.835 52 458 c 0
 58.5869 447.459 80 440 98 440 c 2
 194 440 l 2
 200 440 201 442 201 448 c 2
 201 581 l 2
 201 610 181 623 149 628 c 0
 134 630 128 637 128 642 c 0
 128 647 136 650 147 650 c 0
 202.667 650 258.333 650 314 650 c 0
 325 650 333 647 333 642 c 0
 333 637 326 630 311 628 c 0
 279 623 261 610 261 581 c 2
 261 446 l 2
 261 441 261 440 263 440 c 2
 263 440 386 440 402 440 c 0
 420 440 435 449 441 463 c 0
 442 466 450 474 453 474 c 0
 459 474 461 466 461 457 c 0
 461 447 459 421 459 416 c 0
 459 404 460 379 461 362 c 0
 461 357 460 352 455 352 c 8
 447.278 352 442 362 441 366 c 0
 435 385 420 389 410 389 c 0
 397 389 383 390 371 390 c 0
 265 390 l 2
EndSplineSet
EndChar
StartChar: uni2721
Encoding: 10017 10017 3338
Width: 504
Flags: MW
LayerCount: 3
Fore
SplineSet
363.027 475.01 m 1
 394.396 392.108 l 1
 414.018 435.81 l 2
 419.009 446.926 421.218 454.209 421.218 459.81 c 0
 421.218 474.209 407.618 475.01 392.418 475.01 c 2
 363.027 475.01 l 1
171.007 475.01 m 1
 115.218 475.01 l 2
 105.618 475.01 101.618 471.81 101.618 465.409 c 0
 101.618 457.409 106.991 443.729 114.418 423.01 c 2
 128.127 384.764 l 1
 171.007 475.01 l 1
302.845 475.01 m 1
 206.219 475.01 l 1
 144.807 338.233 l 1
 201.974 178.752 l 1
 298.599 178.752 l 1
 360.012 315.528 l 1
 302.845 475.01 l 1
278.844 134.752 m 1
 217.746 134.752 l 1
 237.962 78.3545 l 2
 241.542 68.8896 242.762 63.9541 245.162 63.9541 c 0
 246.762 63.9541 249.162 68.7539 253.162 77.5547 c 2
 278.844 134.752 l 1
412.478 344.318 m 1
 483.601 156.353 l 2
 484.4 154.752 484.4 153.152 484.4 150.752 c 0
 484.4 142.752 479.601 134.752 472.4 134.752 c 2
 312.906 134.752 l 1
 278.818 63.0098 l 2
 256.023 15.0049 237.973 -20 224.395 -20 c 0
 219.576 -20 215.321 -15.5918 211.618 -5.79102 c 2
 158.44 134.752 l 1
 30 134.752 l 2
 21.2002 134.752 18 141.152 18 148.353 c 0
 18 151.553 18.8008 153.952 19.6006 156.353 c 2
 92.34 309.444 l 1
 21.2178 497.409 l 2
 20.418 499.01 20.418 500.609 20.418 503.01 c 0
 20.418 511.01 25.2178 519.01 32.418 519.01 c 2
 191.913 519.01 l 1
 226 590.752 l 2
 248.795 638.757 266.846 673.762 280.424 673.762 c 0
 285.242 673.762 289.497 669.354 293.2 659.553 c 2
 346.379 519.01 l 1
 474.818 519.01 l 2
 483.618 519.01 486.818 512.609 486.818 505.409 c 0
 486.818 502.209 486.018 499.81 485.218 497.409 c 2
 412.478 344.318 l 1
376.691 268.998 m 1
 333.812 178.752 l 1
 389.601 178.752 l 2
 399.2 178.752 403.2 181.952 403.2 188.353 c 0
 403.2 196.353 397.287 209.847 390.4 230.752 c 2
 376.691 268.998 l 1
287.072 519.01 m 1
 266.856 575.407 l 2
 263.441 584.934 262.057 589.808 259.656 589.808 c 0
 258.057 589.808 255.656 585.008 251.656 576.207 c 2
 225.975 519.01 l 1
 287.072 519.01 l 1
110.423 261.654 m 1
 90.8008 217.952 l 2
 85.8096 206.836 83.6006 199.553 83.6006 193.952 c 0
 83.6006 179.553 97.2002 178.752 112.4 178.752 c 2
 141.791 178.752 l 1
 110.423 261.654 l 1
EndSplineSet
EndChar
StartChar: uni2795
Encoding: 10133 10133 3342
Width: 590
Flags: MW
LayerCount: 3
Fore
SplineSet
346 466 m 2
 346 272 l 1
 490 272 l 2
 495 272 500 269 500 260 c 0
 500 240 491 217 478 217 c 2
 348 217 l 2
 343 217 346 216 346 216 c 1
 346 18 l 2
 346 -7 285 -8 273 -8 c 0
 264 -8 254 -2 254 8 c 2
 254 215 l 2
 254 216 254 217 252 217 c 2
 111 217 l 2
 106 217 100 222 100 231 c 0
 100 242 104 272 117 272 c 2
 250 272 l 2
 259 272 254 274 254 278 c 2
 254 449 l 2
 254 475 316 482 324 482 c 0
 334 482 346 476 346 466 c 2
EndSplineSet
EndChar
StartChar: uni2C6C
Encoding: 11372 11372 2330
Width: 377
VWidth: 0
Flags: HMW
LayerCount: 3
Fore
SplineSet
119 2 m 0
 91 2 56 -5 39 -5 c 0
 34 -5 25 7 25 12 c 0
 25 17 48 51 62 70 c 0
 129 166 175 238 248 354 c 0
 251 358 254 364 239 364 c 2
 122 364 l 2
 104 364 90 337 70 311 c 0
 65 305 53 286 43 286 c 0
 34 286 33 300 37 308 c 0
 45 327 54 373 54 398 c 0
 54 408 65 416 69 416 c 0
 72 416 78 412 84 407 c 0
 90 402 109 401 127 401 c 0
 142 401 156 402 165 402 c 0
 234 402 290 403 351 405 c 0
 356 405 361 397 358 393 c 0
 344 376 334 363 320 343 c 2
 127 50 l 2
 122 42 133 35 139 35 c 2
 277 35 l 2
 316 35 348 41 353 41 c 0
 361 41 367 40 367 34 c 0
 367 32 367 30 366 28 c 0
 358 8 343 -14 339 -108 c 0
 338 -124 326 -139 319 -139 c 0
 302 -139 298 -121 298 -103 c 0
 298 -88 299 -72 299 -58 c 0
 299 -5 276 2 245 2 c 8
 196 2 228 2 119 2 c 0
EndSplineSet
Validated: 1
EndChar
StartChar: uni2C70
Encoding: 11376 11376 2341
Width: 739
VWidth: 0
Flags: HMW
LayerCount: 3
Fore
SplineSet
134 550 m 2
 134 597 105 615 55 624 c 0
 32 628 22 633 22 642 c 0
 22 650 34 653 51 653 c 0
 76 653 100 647 123 647 c 0
 148 647 172 654 195 654 c 0
 211 654 214 601 214 596 c 0
 214 585 217 576 227 585 c 0
 256 612 324 663 396 663 c 0
 566 663 694 519 694 337 c 0
 694 143 555 -15 361 -15 c 0
 276 -15 223 26 211 26 c 0
 156 26 116 -5 61 -5 c 0
 44 -5 32 -2 32 6 c 0
 32 15 42 22 65 26 c 0
 115 35 136 51 136 98 c 2
 134 550 l 2
214 502 m 2
 214 124 l 2
 214 68 286 16 377 16 c 8
 520 16 594 166 594 313 c 8
 594 465 525 632 369 632 c 0
 316 632 214 553 214 502 c 2
EndSplineSet
Validated: 1
EndChar
StartChar: u1D109
Encoding: 119049 119049 3134
Width: 804
Flags: MW
LayerCount: 3
Fore
SplineSet
623 450 m 0
 669 450 697 470 715 529 c 0
 727 569 701 595 667 628 c 0
 637 657 608 690 623 738 c 0
 638 786 686 836 763 836 c 0
 800 836 820 830 831 828 c 8
 837 827 838 820 837 814 c 0
 834 794 829 770 823 749 c 0
 821 744 815 734 812 734 c 0
 809 734 801 740 802 749 c 0
 805 804 773 816 754 816 c 0
 719 816 682 790 670 750 c 0
 658 712 701 681 722 660 c 0
 744 638 790 604 771 543 c 0
 756 495 705 429 620 429 c 0
 579 429 555 440 547 445 c 0
 541 449 538 452 538 455 c 0
 536 469 543 513 549 535 c 0
 550 540 557 544 563 544 c 0
 566 544 569 542 569 534 c 0
 570 514 586 450 623 450 c 0
93 440 m 24
 70 440 62 437 32 437 c 0
 22 437 16 439 18 444 c 0
 20 449 26 452 39 454 c 0
 68 459 81 470 90 499 c 2
 173 769 l 2
 182 798 174 808 148 813 c 0
 136 815 132 820 134 825 c 0
 136 830 143 832 153 832 c 0
 183 832 187 831 210 831 c 1
 212 831 214 831 217 831 c 0
 243 831 298 835 312 835 c 0
 464 835 504 758 468 641 c 8
 433 526 314 436 207 436 c 0
 196 436 138 439 93 440 c 24
415 648 m 16
 444 742 396 817 309 817 c 0
 260 817 233 816 222 780 c 2
 141 513 l 2
 133 488 138 480 147 470 c 0
 157 459 169 457 183 457 c 0
 193 457 204 458 216 458 c 8
 304 458 386 553 415 648 c 16
EndSplineSet
EndChar
StartChar: u1D10A
Encoding: 119050 119050 3135
Width: 932
Flags: MW
LayerCount: 3
Fore
SplineSet
851 838 m 0
 869 838 900 835 909 831 c 0
 918 827 940 823 949 820 c 0
 953 819 952 810 950 802 c 0
 947 783 943 767 934 736 c 0
 933 731 929 722 924 723 c 0
 918 724 918 727 920 741 c 1
 925 765 916 782 911 789 c 0
 908 795 883 814 832 814 c 8
 752 814 674 736 647 648 c 8
 617 551 645 455 732 455 c 0
 753 455 783 464 808 477 c 0
 834 491 848 511 854 522 c 1
 859 529 869 532 872 534 c 0
 877 537 874 525 871 518 c 0
 864 503 842 470 829 456 c 0
 825 451 818 450 802 443 c 0
 780 433 738 431 704 431 c 8
 602 431 552 525 585 634 c 0
 620 750 742 838 851 838 c 0
93 440 m 24
 70 440 62 437 32 437 c 0
 22 437 16 439 18 444 c 0
 20 449 26 452 39 454 c 0
 68 459 81 470 90 499 c 2
 173 769 l 2
 182 798 174 808 148 813 c 0
 136 815 132 820 134 825 c 0
 136 830 143 832 153 832 c 0
 183 832 187 831 210 831 c 1
 212 831 214 831 217 831 c 0
 243 831 298 835 312 835 c 0
 464 835 504 758 468 641 c 8
 433 526 314 436 207 436 c 0
 196 436 138 439 93 440 c 24
415 648 m 16
 444 742 396 817 309 817 c 0
 260 817 233 816 222 780 c 2
 141 513 l 2
 133 488 138 480 147 470 c 0
 157 459 169 457 183 457 c 0
 193 457 204 458 216 458 c 8
 304 458 386 553 415 648 c 16
EndSplineSet
EndChar
StartChar: u1D424
Encoding: 119844 119844 3242
Width: 509
Flags: MW
LayerCount: 3
Fore
SplineSet
286 11 m 0
 286 32 323 26 323 46 c 0
 323 50 320 55 317 60 c 2
 219 193 l 2
 211.879 202.659 203.129 207.871 197.095 207.871 c 0
 188.935 207.871 180 202 180 187 c 2
 180 69 l 2
 180 43 193 35 210 29 c 0
 219 24 230 21 230 9 c 0
 230 -3 209 -3 204 -3 c 0
 162 -3 166 3 128 3 c 0
 90 3 86 -3 44 -3 c 0
 39 -3 19 -3 19 9 c 0
 19 21 30 24 39 29 c 0
 56 35 75 43 75 70 c 2
 75 567 l 2
 75 614 64 632 36 639 c 0
 32 640 29 646 29 652 c 0
 29 658 33 663 38 664 c 0
 99 676 140 692 178 704 c 0
 179 704 179 705 180 705 c 0
 184 705 188 700 188 696 c 0
 188 682 180 647 180 562 c 2
 180 248 l 2
 180 235 185 229 194 229 c 0
 203 229 227.31 233.895 237 244 c 2
 330 341 l 2
 334.153 345.331 339 352 339 357 c 0
 339 364 324 371 312 374 c 0
 309 375 299 378 299 386 c 0
 299 400 318 400 321 400 c 2
 395 400 l 2
 426 400 454 406 477 409 c 0
 480 409 490 406 490 401 c 0
 490 391 483.495 382.112 467 378 c 0
 446.052 372.777 421 362 407 348 c 2
 310 256 l 2
 303.142 248.723 307.998 235.243 313 229 c 2
 428 73 l 2
 445.507 51.1475 480 33 497 27 c 0
 506 22 523 17 523 5 c 0
 523 -4 511 -5 500 -5 c 0
 476 -5 395 0 313 0 c 0
 303 0 286 -1 286 11 c 0
EndSplineSet
EndChar
StartChar: u1D42C
Encoding: 119852 119852 3250
Width: 381
Flags: MW
LayerCount: 3
Fore
SplineSet
212 383 m 0
 177 383 154 358 154 318 c 0
 154 278 212 248 247 228 c 0
 280 209 351 170 351 105 c 0
 351 37 310 -14 175 -14 c 0
 109 -14 53 10 46 23 c 0
 37 37 31 62 30 86 c 0
 30 92 44 95 56 95 c 0
 66 95 76 93 78 88 c 0
 85 55 133 18 176 18 c 0
 226 18 249 47 249 87 c 0
 249 123 214 146 167 177 c 0
 115 211 64 249 64 297 c 0
 64 353 105 414 218 414 c 0
 264 414 292 399 304 387 c 1
 322 372 330 337 330 310 c 0
 330 307 327 306 321 306 c 0
 306 306 270 318 270 327 c 0
 269 354 242 383 212 383 c 0
EndSplineSet
EndChar
StartChar: u1D42D
Encoding: 119853 119853 3251
Width: 319
Flags: MW
LayerCount: 3
Fore
SplineSet
188 -14 m 0
 123 -14 78 21 78 102 c 2
 78 327 l 2
 78 339 72 342 45 342 c 0
 42 342 35 358 35 366 c 0
 35 370 39 373 41 374 c 0
 105 390 157 468 169 468 c 0
 176 468 190.634 464.971 190 458 c 2
 186 414 l 2
 185.773 404.003 191 400 206 400 c 2
 299 400 l 2
 304 400 309 385 309 371 c 0
 309 357 305 342 301 342 c 2
 217 342 l 2
 188 342 183 341 183 316 c 2
 183 140 l 2
 183 71 213 52 239 52 c 0
 272 52 289 59 303 70 c 0
 308 75 311 64 311 55 c 0
 311 43 252 -14 188 -14 c 0
EndSplineSet
EndChar
StartChar: u1D432
Encoding: 119858 119858 3256
Width: 438
Flags: MW
LayerCount: 3
Fore
SplineSet
188 62 m 2
 64 329 l 2
 53 353 38 361 18 367 c 0
 7 371 -5 377 -5 390 c 0
 -5 400 8 405 15 405 c 0
 54 405 74 400 109 400 c 0
 144 400 169 405 208 405 c 0
 215 405 228 399 228 391 c 0
 228 381 216 371 205 367 c 0
 191 363 174 356 174 337 c 0
 174 328 181 316 184 308 c 2
 260 144 l 2
 264.227 134.937 268.789 138.605 276 154 c 2
 342 295 l 2
 347 308 354 320 354 331 c 0
 354 356 343 364 329 368 c 0
 318 372 306 381 306 391 c 0
 306 399 319 405 326 405 c 0
 341 405 364 400 399 400 c 0
 434 400 439 405 458 405 c 0
 465 405 478 399 478 391 c 0
 478 381 466 372 455 368 c 0
 435 362 408 343 393 311 c 2
 247 0 l 2
 242 -9 176 -149 129 -244 c 0
 115 -273 89 -285 57 -285 c 0
 28 -285 2 -265 2 -234 c 0
 2 -211 19 -191 42 -191 c 0
 58 -191 66 -197 82 -197 c 0
 101 -197 111 -184 120 -168 c 0
 141 -132 171.131 -77.4251 191 -24 c 0
 202.587 7.15525 200.631 34.7887 188 62 c 2
EndSplineSet
EndChar
StartChar: u1D437
Encoding: 119863 119863 3158
Width: 773
Flags: MW
AnchorPoint: "cedilla" 409 8 basechar 0
AnchorPoint: "below_accent" 297 -100 basechar 0
AnchorPoint: "top_accent" 508 710 basechar 0
LayerCount: 3
Fore
SplineSet
335 -7 m 0
 316 -7 221 0 148 0 c 0
 111 0 93 -5 44 -5 c 0
 28 -5 20 -2 20 6 c 0
 20 15 33 23 56 24 c 0
 119 26 131 51 147 99 c 2
 297 560 l 2
 312 608 254 613 210 622 c 0
 190 626 186 633 186 642 c 0
 186 650 200 653 216 653 c 0
 269 653 311 651 353 651 c 0
 393 651 391 656 449 656 c 0
 628 656 783 578 783 406 c 0
 783 149 588 -7 335 -7 c 0
697 395 m 0
 697 548 602 618 445 618 c 0
 425 618 385 611 371 567 c 2
 229 121 l 2
 202 36 241 28 343 28 c 8
 542 28 697 207 697 395 c 0
EndSplineSet
EndChar
StartChar: u1D43A
Encoding: 119866 119866 3161
Width: 687
Flags: MW
AnchorPoint: "below_accent" 363 -100 basechar 0
AnchorPoint: "top_accent" 536 710 basechar 0
LayerCount: 3
Fore
SplineSet
716 629 m 0
 694 599 658 532 649 487 c 0
 647 477 638 467 631 467 c 8
 619 467 614 481 616 493 c 0
 622 523 628 565 607 593 c 0
 590 616 552 628 513 628 c 8
 315 628 182 436 182 242 c 0
 182 110 311 23 418 23 c 0
 478 23 507 73 514 100 c 2
 542 208 l 2
 554 252 498 256 479 256 c 0
 465 256 456 265 456 274 c 0
 456 283 466 290 480 290 c 8
 526 290 552 287 598 287 c 24
 631 287 649 290 682 290 c 16
 687 290 696 285 696 276 c 0
 696 267 683 258 671 256 c 0
 641 251 626 240 614 213 c 0
 596 174 578 103 578 88 c 0
 578 76 594 64 592 60 c 0
 590 55 582 48 574 42 c 0
 555 26 477 -14 405 -14 c 0
 229 -14 98 82 98 254 c 0
 98 486 277 663 523 663 c 0
 604 663 656 629 666 629 c 0
 678 629 694 645 709 645 c 0
 721 645 720 634 716 629 c 0
EndSplineSet
EndChar
StartChar: u1D43D
Encoding: 119869 119869 3164
Width: 335
Flags: MW
AnchorPoint: "top_accent" 351 710 basechar 0
LayerCount: 3
Fore
SplineSet
-10 -158 m 0
 34 -158 70 -97 100 0 c 2
 268 551 l 1
 283 597 273 613 229 622 c 0
 209 626 204 633 204 642 c 0
 204 650 219 653 235 653 c 0
 285 653 299 650 342 650 c 24
 376 650 381 653 431 653 c 0
 447 653 454 650 454 642 c 0
 454 633 441 626 418 622 c 0
 369 613 358 597 343 551 c 1
 218 142 l 2
 154 -68 122 -94 84 -134 c 0
 47 -173 5 -200 -50 -200 c 0
 -110 -200 -133 -180 -133 -158 c 0
 -133 -130 -100 -103 -83 -103 c 0
 -59 -103 -51 -111 -45 -129 c 0
 -38 -152 -26 -158 -10 -158 c 0
EndSplineSet
EndChar
StartChar: u1D442
Encoding: 119874 119874 3169
Width: 712
Flags: MW
AnchorPoint: "cedilla" 341 8 basechar 0
AnchorPoint: "ogonek" 463 18 basechar 0
AnchorPoint: "below_accent" 304 -100 basechar 0
AnchorPoint: "top_accent" 501 710 basechar 0
LayerCount: 3
Fore
SplineSet
479 628 m 0
 279 628 171 386 171 186 c 8
 171 95 245 21 336 21 c 16
 536 21 642 284 642 484 c 0
 642 569 564 628 479 628 c 0
484 664 m 16
 611 664 724 571 724 444 c 8
 724 208 565 -14 329 -14 c 8
 197 -14 89 94 89 226 c 16
 89 456 254 664 484 664 c 16
EndSplineSet
EndChar
StartChar: u1D449
Encoding: 119881 119881 3176
Width: 644
Flags: MW
AnchorPoint: "below_accent" 82 -100 basechar 0
AnchorPoint: "top_accent" 471 710 basechar 0
LayerCount: 3
Fore
SplineSet
561 549 m 2
 603 600 559 619 546 621 c 0
 525 624 522 632 522 641 c 0
 522 649 536 652 552 652 c 0
 569 652 616 650 650 650 c 0
 691 650 710 656 741 656 c 0
 757 656 764 651 764 643 c 0
 764 634 750 627 727 620 c 0
 692 610 649 591 610 543 c 2
 240 94 l 2
 227 78 209 46 199 26 c 0
 197 22 133 -25 117 -25 c 0
 112 -25 112 -13 112 5 c 0
 112 10 125 60 133 106 c 2
 202 523 l 2
 212 586 201 613 139 623 c 0
 119 626 115 637 115 646 c 0
 115 654 129 656 145 656 c 0
 171 656 216 650 258 650 c 0
 294 650 330 651 352 651 c 0
 368 651 376 648 376 640 c 0
 376 631 357 624 339 620 c 0
 303 613 281 591 273 539 c 2
 219 168 l 2
 213 140 214 134 220 134 c 0
 225 134 234 138 256 166 c 2
 561 549 l 2
EndSplineSet
EndChar
StartChar: u1D44A
Encoding: 119882 119882 3177
Width: 976
Flags: MW
AnchorPoint: "below_accent" 263 -100 basechar 0
AnchorPoint: "top_accent" 623 710 basechar 0
LayerCount: 3
Fore
SplineSet
899 549 m 2
 941 600 897 619 884 621 c 0
 863 624 860 632 860 641 c 0
 860 649 874 652 890 652 c 0
 907 652 954 650 988 650 c 0
 1029 650 1048 656 1079 656 c 0
 1095 656 1102 651 1102 643 c 0
 1102 634 1088 627 1065 620 c 0
 1030 610 987 591 948 543 c 2
 578 94 l 2
 543 51 482 -25 468 -25 c 0
 463 -25 458 -15 454 6 c 0
 453 10 460 58 471 106 c 1
 535 490 l 1
 208 94 l 2
 173 51 112 -25 98 -25 c 0
 93 -25 88 -15 84 6 c 0
 83 10 90 58 101 106 c 1
 170 523 l 2
 180 586 169 613 107 623 c 0
 87 626 83 637 83 646 c 0
 83 654 97 656 113 656 c 0
 139 656 184 650 226 650 c 0
 262 650 298 651 320 651 c 0
 336 651 344 648 344 640 c 0
 344 631 325 624 307 620 c 0
 271 613 249 591 241 539 c 2
 187 168 l 1
 181 140 182 134 188 134 c 0
 193 134 202 138 224 166 c 2
 529 549 l 2
 535 557 540 564 543 570 c 1
 539 600 521 616 477 623 c 0
 457 626 453 637 453 646 c 0
 453 654 467 656 483 656 c 0
 513 656 570 650 609 650 c 0
 647 650 677 656 709 656 c 0
 725 656 732 651 732 643 c 0
 732 634 718 627 695 620 c 0
 675 614 651 605 628 589 c 1
 620 577 614 561 611 539 c 2
 557 168 l 1
 551 140 552 134 558 134 c 0
 563 134 572 138 594 166 c 2
 899 549 l 2
EndSplineSet
EndChar
StartChar: u1D456
Encoding: 119894 119894 3188
Width: 245
Flags: MW
AnchorPoint: "ogonek" 161 18 basechar 0
LayerCount: 3
Fore
SplineSet
61 76 m 2
 133 270 l 2
 141 293 146 318 133 318 c 0
 122 318 96 309 66 295 c 0
 62 293 51 296 51 300 c 0
 51 305 52 309 60 315 c 0
 126 362 162 384 223 418 c 0
 229 421 242 425 242 414 c 0
 242 400 238 387 232 370 c 2
 129 86 l 2
 125 75 122 65 122 57 c 0
 122 47 127 41 134 41 c 0
 166 41 236 108 246 118 c 0
 247 119 248 120 250 120 c 0
 253 120 256 118 256 115 c 0
 256 38 127 -14 92 -14 c 0
 60 -14 49 2 49 21 c 0
 49 44 52 53 61 76 c 2
260 613 m 16
 281 613 294 591 294 570 c 16
 294 540 269 513 239 513 c 8
 219 513 204 532 204 552 c 8
 204 584 228 613 260 613 c 16
EndSplineSet
EndChar
StartChar: u1D457
Encoding: 119895 119895 3189
Width: 212
Flags: MW
LayerCount: 3
Fore
SplineSet
136 270 m 2
 143 293 149 318 136 318 c 0
 125 318 99 309 69 295 c 0
 65 293 54 296 54 300 c 0
 54 305 55 309 63 315 c 0
 129 362 165 384 226 418 c 0
 232 421 245 425 245 414 c 0
 245 400 240 387 235 370 c 2
 94 -102 l 2
 63 -205 -30 -283 -101 -283 c 0
 -148 -283 -175 -264 -175 -245 c 0
 -175 -232 -153 -201 -139 -201 c 0
 -115 -201 -107 -242 -62 -242 c 0
 -26 -242 -3 -202 14 -144 c 2
 136 270 l 2
256 613 m 16
 277 613 290 591 290 570 c 16
 290 540 265 513 235 513 c 8
 215 513 200 532 200 552 c 8
 200 584 224 613 256 613 c 16
EndSplineSet
EndChar
StartChar: u1D45D
Encoding: 119901 119901 3195
Width: 445
Flags: MW
AnchorPoint: "top_accent" 311 580 basechar 0
LayerCount: 3
Fore
SplineSet
-80 -286 m 0
 -87 -287 -100 -285 -100 -277 c 0
 -100 -267 -82 -259 -70 -257 c 0
 -42 -253 -26 -246 -18 -220 c 2
 136 294 l 2
 153 352 146 350 136 347 c 0
 108 338 75 322 47 307 c 0
 42 304 32 304 30 311 c 0
 28 318 40 329 45 332 c 0
 63 344 100 366 150 385 c 0
 159 389 165 391 168 401 c 0
 195 487 210 512 240 512 c 0
 253 512 251 502 248 490 c 2
 233 424 l 2
 231 414 230 402 236 402 c 0
 241 402 273 414 320 414 c 0
 375 414 430 368 430 282 c 0
 430 138 271 -14 173 -14 c 0
 148 -14 137 2 132 2 c 0
 122 2 116 -15 113 -24 c 2
 55 -208 l 2
 50 -223 49 -242 87 -246 c 0
 100 -247 117 -251 117 -261 c 0
 117 -269 103 -272 88 -272 c 0
 22 -272 -52 -281 -80 -286 c 0
357 282 m 0
 357 330 335 381 293 381 c 0
 270 381 250 378 238 372 c 0
 229 368 221 351 219 341 c 2
 158 117 l 2
 148 80 147 71 147 57 c 0
 147 37 169 20 192 20 c 0
 231 20 357 137 357 282 c 0
EndSplineSet
EndChar
StartChar: u1D460
Encoding: 119904 119904 3198
Width: 276
Flags: MW
AnchorPoint: "cedilla" 119 8 basechar 0
AnchorPoint: "below_accent" 47 -100 basechar 0
AnchorPoint: "top_accent" 267 550 basechar 0
LayerCount: 3
Fore
SplineSet
243 414 m 0
 274 414 294 388 294 377 c 0
 294 365 278 335 266 335 c 0
 251 335 243 368 207 368 c 0
 185 368 167 348 167 319 c 0
 167 302 184 254 200 227 c 0
 216 200 230 153 230 123 c 0
 230 44 124 -14 44 -14 c 0
 10 -14 -10 10 -10 30 c 0
 -10 45 8 76 18 76 c 0
 34 76 52 34 109 34 c 0
 143 34 165 62 166 94 c 0
 167 132 156 164 142 190 c 0
 123 225 110 255 110 275 c 0
 110 355 206 414 243 414 c 0
EndSplineSet
EndChar
StartChar: u1D6E2
Encoding: 120546 120546 3258
Width: 692
Flags: MW
AnchorPoint: "below_accent" 297 -100 basechar 0
AnchorPoint: "grk_uc_top_left" 462 665 basechar 0
AnchorPoint: "grk_uc_top" 802 710 basechar 0
AnchorPoint: "grk_bottom" 297 -100 basechar 0
LayerCount: 3
Fore
SplineSet
672 -5 m 0
 646 -5 586 1 544 1 c 0
 508 1 474 0 452 0 c 0
 436 0 428 3.75 428 12 c 0
 428 21.4902 447 27 465 31 c 0
 533 45 540 56 559 112 c 2
 600 235 l 2
 604 246 591 253 572 253 c 2
 391 244 l 2
 386 244 367 238 356 226 c 2
 240 102 l 2
 195 54 228 32 241 30 c 0
 262 27 266 22 266 12 c 0
 266 3 251 -1 235 -1 c 0
 218 -1 185 1 151 1 c 0
 110 1 69 -5 38 -5 c 0
 22 -5 15 -1 15 8 c 0
 15 18 29 24 52 31 c 0
 87 41 136 65 180 108 c 2
 652 564 l 2
 681 592 698 622 706 622 c 0
 719 622 730 626 752 636 c 0
 769 644 796 676 801 676 c 0
 806 676 808 662 803 644 c 2
 648 128 l 2
 630 67 643 35 678 28 c 0
 698 24 704 16.4902 704 7 c 0
 704 -1.25 688 -5 672 -5 c 0
640 506 m 2
 442 310 l 2
 430 298 422 285 458 288 c 2
 592 296 l 2
 606 297 615 303 622 324 c 2
 680 494 l 2
 689 521 690 539 684 539 c 0
 679 539 665 531 640 506 c 2
EndSplineSet
EndChar
StartChar: u1D6EA
Encoding: 120554 120554 3266
Width: 340
Flags: MW
AnchorPoint: "grk_uc_top" 348 710 basechar 0
AnchorPoint: "grk_uc_top_left" 51 665 basechar 0
LayerCount: 3
Fore
SplineSet
275 550 m 2
 289 597 278 613 234 622 c 0
 214 626 210 633 210 642 c 0
 210 650 224 653 240 653 c 0
 290 653 305 650 348 650 c 24
 388 650 400 653 450 653 c 0
 466 653 474 650 474 642 c 0
 474 633 460 626 437 622 c 0
 388 613 363 597 349 550 c 2
 211 98 l 2
 197 51 218 33 262 24 c 0
 282 20 287 15 287 6 c 0
 287 -2 273 -5 257 -5 c 0
 207 -5 192 0 149 0 c 24
 103 0 79 -5 29 -5 c 0
 13 -5 5 -2 5 6 c 0
 5 15 18 20 41 24 c 0
 90 33 123 51 137 98 c 2
 275 550 l 2
EndSplineSet
EndChar
StartChar: u1D6ED
Encoding: 120557 120557 3269
Width: 901
Flags: MW
LayerCount: 3
Fore
SplineSet
1017 583 m 2
 869 106 l 2
 856 65 877 33 921 26 c 0
 941 23 947 18 947 9 c 0
 947 3 933 -3 917 -3 c 0
 867 -3 832 8 777 8 c 24
 731 8 710 -3 660 -3 c 0
 644 -3 637 1 637 9 c 0
 637 17 650 25 672 28 c 0
 731 35 761 57 776 104 c 2
 905 471 l 2
 909 482 916 506 913 506 c 0
 911 506 883 479 875 469 c 2
 430 10 l 1
 418 -7 409 -14 405 -14 c 0
 400 -14 400 -4 401 11 c 2
 441 486 l 2
 442 500 444 537 435 537 c 0
 429 537 418 519 401 490 c 2
 167 90 l 2
 153 66 147 33 191 26 c 0
 211 23 216 18 216 9 c 0
 216 1 203 -3 187 -3 c 0
 137 -3 125 0 79 0 c 8
 45 0 43 -6 -7 -6 c 0
 -23 -6 -31 -4 -31 4 c 0
 -31 13 -19 19 4 23 c 0
 67 34 83 52 124 119 c 2
 378 532 l 2
 411 586 427 622 310 622 c 0
 298 622 288 632 288 642 c 0
 288 653 320 658 326 658 c 0
 360 658 500 653 524 653 c 0
 541 653 522 599 519 553 c 2
 496 172 l 2
 495 162 499 157 503 157 c 0
 506 157 521 163 528 170 c 2
 913 573 l 2
 953 615 968 650 982 650 c 0
 1054 650 1091 658 1119 658 c 0
 1125 658 1138 654 1138 645 c 0
 1138 634 1124 625 1103 623 c 0
 1045 617 1024 605 1017 583 c 2
EndSplineSet
EndChar
StartChar: u1D6EE
Encoding: 120558 120558 3270
Width: 770
Flags: MW
LayerCount: 3
Fore
SplineSet
800 650 m 0
 845 650 871 653 928 653 c 0
 944 653 951 650 951 642 c 0
 951 633 937 624 914 622 c 0
 856 616 836 588 818 555 c 0
 806 533 694 168 682 112 c 0
 681 109 681 94 686 82 c 0
 697 57 724 16 724 6 c 0
 724 0 720 0 716 0 c 0
 695 0 648 0 643 0 c 0
 632 0 623 5 601 43 c 2
 357 456 l 2
 351 467 338 485 333 485 c 0
 326 485 316 463 313 455 c 2
 197 117 l 2
 171 40 200 34 257 24 c 0
 277 20 282 15 282 6 c 0
 282 -2 268 -5 252 -5 c 0
 202 -5 187 0 146 0 c 24
 105 0 92 -5 42 -5 c 0
 26 -5 18 -2 18 6 c 0
 18 15 20 25 43 30 c 0
 106 44 106 29 136 108 c 2
 285 500 l 2
 292 518 297 549 291 557 c 2
 258 596 l 2
 250 606 208 615 169 620 c 0
 164 621 148 631 148 644 c 0
 148 657 166 658 173 658 c 0
 245 656 266 653 333 653 c 0
 344 653 345 645 350 636 c 2
 628 188 l 2
 632 182 641 169 648 169 c 0
 653 169 655 174 661 189 c 0
 676 233 759 513 769 564 c 0
 776 599 706 615 687 619 c 0
 667 623 662 630 662 639 c 0
 662 647 677 650 693 650 c 0
 726 650 790 650 800 650 c 0
EndSplineSet
EndChar
StartChar: u1D6FC
Encoding: 120572 120572 3282
Width: 562
Flags: MW
LayerCount: 3
Fore
SplineSet
128 -14 m 0
 75 -14 49 20 49 89 c 0
 49 200 153 394 243 394 c 0
 329 394 347 317 361 263 c 0
 364 253 367 251 371 260 c 8
 383 286 382 302 392 330 c 0
 405 369 434 414 458 414 c 0
 481 414 488 387 488 364 c 0
 488 328 450 270 412 212 c 0
 402 197 382 181 382 166 c 0
 382 123 404 62 447 62 c 0
 478 62 503 80 521 106 c 0
 527 115 529 115 540 115 c 0
 547 115 547 83 542 74 c 0
 518 30 484 -12 432 -12 c 0
 379 -12 361 42 352 90 c 0
 349 104 342 111 339 106 c 0
 304 49 222 -14 128 -14 c 0
335 193 m 1
 328 271 309 325 269 325 c 0
 217 325 90 188 90 86 c 0
 90 58 101 42 132 42 c 0
 162 42 228 74 269 107 c 0
 310 140 323 163 335 193 c 1
EndSplineSet
EndChar
StartChar: u1D6FE
Encoding: 120574 120574 3284
Width: 509
Flags: MW
LayerCount: 3
Fore
SplineSet
532 322 m 0
 532 311 354 103 247 -43 c 0
 236 -58 220 -131 212 -149 c 0
 195 -189 147 -246 122 -246 c 0
 92 -246 77 -232 77 -204 c 0
 77 -134 169 -59 190 -26 c 0
 229 36 237 96 237 147 c 0
 237 245 192 341 145 341 c 0
 103 341 85 312 74 269 c 0
 71 258 72 248 59 248 c 0
 43 248 12 280 12 329 c 0
 12 362 61 410 117 410 c 0
 235 410 275 275 275 156 c 0
 275 134 270 84 266 69 c 0
 262 54 262 48 272 61 c 0
 371 185 487 336 511 336 c 0
 517 336 532 332 532 322 c 0
EndSplineSet
EndChar
StartChar: u1D700
Encoding: 120576 120576 3286
Width: 327
Flags: MW
LayerCount: 3
Fore
SplineSet
303 86 m 0
 303 44 208 -14 163 -14 c 0
 120 -14 67 -4 67 57 c 0
 67 91 97 131 106 140 c 0
 118 152 123 153 106 163 c 0
 69 184 53 225 53 248 c 0
 53 326 160 412 234 412 c 0
 257 412 268 403 268 381 c 0
 268 359 248 365 215 356 c 0
 176 346 101 306 101 245 c 0
 101 224 114 198 125 198 c 0
 167 198 187 261 224 261 c 0
 249 261 270 248 270 232 c 0
 270 174 219 158 168 148 c 0
 142 143 104 108 104 80 c 0
 104 59 117 39 139 39 c 0
 164 39 186 44 231 67 c 0
 261 82 283 116 291 116 c 0
 303 116 303 104 303 86 c 0
EndSplineSet
EndChar
StartChar: u1D701
Encoding: 120577 120577 3287
Width: 469
Flags: MW
LayerCount: 3
Fore
SplineSet
538 647 m 0
 538 625 521 613 496 598 c 0
 352 512 85 321 85 126 c 0
 85 -56 404 5 406 -158 c 0
 407 -260 318 -285 208 -285 c 0
 174 -285 141 -251 141 -231 c 0
 141 -208 163 -194 187 -194 c 0
 220 -194 263 -242 295 -242 c 0
 334 -242 349 -203 349 -172 c 0
 349 -98 43 -108 43 116 c 0
 43 284 147 398 279 516 c 0
 319 552 311 552 285 552 c 0
 237 552 162 590 162 642 c 0
 162 690 254 750 300 750 c 0
 316 750 325 746 325 737 c 0
 325 724 249 680 249 632 c 0
 249 604 294 579 324 579 c 0
 346 579 355 584 389 612 c 2
 434 650 l 2
 464 675 485 690 499 690 c 0
 523 690 538 682 538 647 c 0
EndSplineSet
EndChar
StartChar: u1D706
Encoding: 120582 120582 3292
Width: 571
Flags: MW
LayerCount: 3
Fore
SplineSet
571 35 m 0
 571 14 556 -11 533 -11 c 0
 497 -11 438 40 417 137 c 0
 403 202 387 268 366 333 c 0
 351 380 338 389 320 351 c 0
 290 288 123 79 52 8 c 0
 47 3 34 -7 26 -7 c 0
 18 -7 -3 5 -3 15 c 0
 -3 33 7 49 25 67 c 0
 99 141 243 317 293 404 c 0
 304 423 314 444 308 457 c 0
 300 475 275 516 264 532 c 0
 244 560 236 567 196 572 c 0
 175 575 146 592 146 608 c 0
 146 639 164 660 208 660 c 0
 249 660 269 647 316 582 c 0
 352 533 413 385 460 163 c 0
 469 123 502 77 518 77 c 0
 560 77 571 56 571 35 c 0
EndSplineSet
EndChar
StartChar: u1D709
Encoding: 120585 120585 3295
Width: 422
Flags: MW
LayerCount: 3
Fore
SplineSet
442 673 m 0
 442 653 396 621 338 606 c 0
 249 583 125 496 125 406 c 0
 125 363 164 333 207 333 c 0
 254 333 335 405 382 405 c 0
 408 405 408 393 408 372 c 0
 408 304 251 287 209 263 c 0
 143 225 63 147 63 104 c 0
 63 70 89 40 124 40 c 0
 163 40 263 72 321 72 c 0
 350 72 382 57 382 28 c 8
 382 -68 297 -156 218 -156 c 0
 204 -156 192 -148 192 -133 c 0
 192 -119 198 -92 245 -87 c 0
 307 -81 317 -29 317 -13 c 0
 317 3 307 20 285 20 c 0
 219 20 184 -14 118 -14 c 0
 63 -14 10 21 10 76 c 0
 10 156 106 234 168 277 c 0
 172 280 176 289 156 298 c 0
 121 313 77 353 77 401 c 0
 77 486 170 561 220 593 c 0
 234 602 234 605 217 607 c 0
 185 611 136 627 136 688 c 0
 136 728 176 791 216 791 c 0
 227 791 233 783 233 766 c 0
 233 749 192 710 192 690 c 0
 192 660 230 646 260 646 c 0
 295 646 384 702 424 702 c 0
 433 702 442 687 442 673 c 0
EndSplineSet
EndChar
StartChar: u1D70A
Encoding: 120586 120586 3296
Width: 348
Flags: MW
LayerCount: 3
Fore
SplineSet
313 245 m 0
 313 127 236 -14 138 -14 c 0
 73 -14 35 59 35 140 c 0
 35 278 148 414 234 414 c 0
 300 414 313 325 313 245 c 0
275 256 m 0
 275 293 263 327 233 327 c 0
 146 327 73 185 73 129 c 0
 73 85 96 64 128 64 c 0
 193 64 275 193 275 256 c 0
EndSplineSet
EndChar
StartChar: u1D70C
Encoding: 120588 120588 3298
Width: 382
Flags: MW
LayerCount: 3
Fore
SplineSet
362 314 m 0
 362 194 275 100 164 100 c 0
 135 100 119 115 104 127 c 0
 93 136 74 100 74 26 c 0
 74 -16 98 -54 140 -54 c 0
 175 -54 205 -47 242 -47 c 0
 278 -47 297 -74 297 -117 c 0
 297 -196 188 -288 100 -288 c 0
 88 -288 82 -283 82 -269 c 0
 82 -257 99 -221 113 -221 c 0
 158 -221 233 -211 233 -146 c 0
 233 -124 223 -107 205 -107 c 0
 181 -107 153 -114 123 -114 c 0
 74 -114 30 -59 30 0 c 0
 30 213 175 414 275 414 c 0
 338 414 362 368 362 314 c 0
314 306 m 0
 314 334 299 350 282 350 c 0
 219 350 117 242 117 187 c 0
 117 171 130 164 150 164 c 0
 258 164 314 212 314 306 c 0
EndSplineSet
EndChar
StartChar: u1D70D
Encoding: 120589 120589 3299
Width: 337
Flags: MW
LayerCount: 3
Fore
SplineSet
350 365 m 0
 350 320 339 309 325 309 c 0
 313 309 304 341 278 341 c 0
 197 341 106 233 106 152 c 0
 106 121 126 99 162 99 c 0
 184 99 213 114 242 114 c 0
 271 114 283 72 283 13 c 0
 283 -33 193 -141 128 -141 c 0
 99 -141 83 -126 83 -108 c 0
 83 -90 93 -68 124 -69 c 0
 173 -71 237 -37 237 8 c 0
 237 28 229 47 207 47 c 0
 168 47 154 29 105 29 c 0
 79 29 58 78 58 148 c 0
 58 270 168 413 283 413 c 0
 325 413 350 396 350 365 c 0
EndSplineSet
EndChar
StartChar: u1D70E
Encoding: 120590 120590 3300
Width: 422
Flags: MW
LayerCount: 3
Fore
SplineSet
275 256 m 0
 275 293 272 335 242 335 c 0
 155 335 73 185 73 129 c 0
 73 85 96 64 128 64 c 0
 193 64 275 193 275 256 c 0
304 325 m 0
 310 303 314 288 314 245 c 0
 314 127 236 -14 138 -14 c 0
 73 -14 35 59 35 140 c 0
 35 278 173 414 259 414 c 0
 301 414 370 400 422 400 c 0
 446 400 459 427 477 427 c 0
 489 427 496 409 496 373 c 0
 496 341 456 333 436 333 c 0
 396 333 349 340 322 340 c 0
 295 340 300 340 304 325 c 0
EndSplineSet
EndChar
StartChar: u1D70F
Encoding: 120591 120591 3301
Width: 569
Flags: MW
LayerCount: 3
Fore
SplineSet
281 136 m 0
 281 130 287 120 302 130 c 0
 316 139 331 152 334 152 c 0
 343 152 346 144 346 124 c 0
 346 85 274 -14 220 -14 c 0
 208 -14 198 0 198 28 c 0
 198 40 196 66 211 100 c 2
 310 332 l 2
 315 344 303 350 286 350 c 2
 207 350 l 2
 155 350 100 297 100 259 c 0
 100 238 104 236 104 229 c 0
 104 222 96 214 88 214 c 0
 71 214 57 229 57 258 c 0
 57 322 121 400 208 400 c 2
 526 400 l 2
 555 400 569 394 569 380 c 0
 569 359 557 350 533 350 c 2
 400 350 l 2
 375 350 364 342 359 328 c 0
 343 285 281 157 281 136 c 0
EndSplineSet
EndChar
StartChar: u1D710
Encoding: 120592 120592 3302
Width: 486
Flags: MW
LayerCount: 3
Fore
SplineSet
161 305 m 0
 167.697 317.363 160 328 145 328 c 0
 122.06 328 119.94 294 97 294 c 0
 84.5625 294 76 307 76 318 c 0
 76 347 114.557 417 167 417 c 0
 197.642 417 219 394.64 219 364 c 0
 219 348.9 209 327 196 302 c 0
 175 261 146 197.463 146 157 c 0
 146 106.132 171 65 219 65 c 0
 308 65 381 195.2 381 296.2 c 0
 381 347.2 363 385 363 400 c 0
 363 415 376 424 381 424 c 0
 395 424 420 363 420 301 c 0
 420 168 329 -14 209 -14 c 0
 143.524 -14 104 53.6074 104 120 c 16
 104 196.616 135 257 161 305 c 0
EndSplineSet
EndChar
StartChar: u1D711
Encoding: 120593 120593 3303
Width: 577
Flags: MW
LayerCount: 3
Fore
SplineSet
565 210 m 0
 565 63 411 -22 267 -22 c 0
 263 -22 258 -22 254 -22 c 1
 250 -54 245 -86 241 -118 c 0
 224 -240 252 -286 224 -286 c 0
 199 -286 173 -275 173 -251 c 0
 173 -221 182 -160 187 -130 c 0
 193 -90 200 -52 206 -15 c 1
 117 5 45 70 45 169 c 0
 45 348 211 473 390 473 c 0
 418 473 438 448 438 420 c 0
 438 415 438 411 436 407 c 1
 522 400 565 296 565 210 c 0
262 37 m 1
 273 36 285 35 296 35 c 0
 423 35 525 124 525 204 c 0
 525 271 474 333 407 333 c 0
 319 333 286 197 262 37 c 1
217 45 m 1
 248 209 285 331 350 381 c 1
 217 370 83 312 83 181 c 0
 83 111 144 64 217 45 c 1
EndSplineSet
EndChar
StartChar: u1D712
Encoding: 120594 120594 3304
Width: 636
Flags: MW
LayerCount: 3
Fore
SplineSet
205 342 m 0
 163 342 145 313 134 270 c 0
 131 259 132 249 119 249 c 0
 103 249 72 281 72 330 c 0
 72 363 121 411 177 411 c 0
 287 412 321 334 321 190 c 0
 321 159 326 163 347 183 c 2
 575 405 l 2
 585 414 593 421 602 421 c 0
 617 421 625 411 625 393 c 0
 625 382 622 370 611 361 c 2
 362 144 l 2
 326 112 321 86 321 69 c 0
 321 32 319 -22 325 -51 c 0
 339 -118 383 -157 431 -157 c 0
 489 -157 560 -79 560 -19 c 0
 560 4 566 21 577 21 c 0
 596 21 610 -21 610 -74 c 0
 610 -145 523 -206 447 -206 c 0
 356 -206 307 -162 292 -81 c 0
 286 -46 286 8 287 51 c 0
 287 65 284 58 276 50 c 2
 111 -114 l 2
 104 -121 56 -199 28 -199 c 0
 13 -199 0 -194 0 -179 c 0
 0 -172 7 -157 17 -146 c 2
 258 102 l 1
 276 119 286 138 286 160 c 0
 286 259 271 342 205 342 c 0
EndSplineSet
EndChar
StartChar: u1D714
Encoding: 120596 120596 3306
Width: 557
Flags: MW
LayerCount: 3
Fore
SplineSet
382 -14 m 0
 302 -14 291 74 282 74 c 0
 268 74 217 -14 132 -14 c 0
 76 -14 34 15 34 103 c 0
 34 192 170 414 249 414 c 0
 275 414 289 405 289 388 c 0
 289 366 66 212 66 97 c 0
 66 73 87 52 117 52 c 0
 199 52 266 120 266 153 c 0
 266 170 265 165 265 181 c 0
 265 206 312 273 354 273 c 0
 379 273 381 241 381 201 c 0
 381 164 322 139 322 97 c 0
 322 76 351 49 387 49 c 0
 428 49 517 174 517 301 c 0
 517 364 472 376 472 392 c 0
 472 408 477 414 509 414 c 0
 538 414 555 350 555 294 c 0
 555 180 495 -14 382 -14 c 0
EndSplineSet
EndChar
StartChar: u1D719
Encoding: 120601 120601 3308
Width: 598
Flags: MW
LayerCount: 3
Fore
SplineSet
384 565 m 0
 405 565 405 547 405 538 c 0
 405 497 378 459 358 358 c 2
 264 -118 l 2
 240 -239 259 -286 231 -286 c 0
 206 -286 187 -267 187 -251 c 16
 187 -221 205 -160 211 -130 c 2
 317 382 l 10
 332 456 345 565 384 565 c 0
329 339 m 8
 207 339 71 289 71 162 c 0
 71 67 187 35 284 35 c 16
 411 35 515 124 515 204 c 0
 515 297 427 339 329 339 c 8
334 414 m 16
 449 414 553 325 553 210 c 8
 553 63 399 -22 255 -22 c 8
 145 -22 33 29 33 150 c 8
 33 306 178 414 334 414 c 16
EndSplineSet
EndChar
StartChar: u1D7CE
Encoding: 120782 120782 3312
Width: 504
Flags: MW
LayerCount: 3
Fore
SplineSet
256 367 m 0
 199 367 158 297 158 204 c 0
 158 123 190 31 247 31 c 0
 304 31 346 82 346 203 c 0
 346 282 315 367 256 367 c 0
251 413 m 0
 368 413 465 322 465 203 c 0
 465 82 369 -15 252 -15 c 0
 133 -15 39 83 39 204 c 0
 39 322 136 413 251 413 c 0
EndSplineSet
EndChar
StartChar: u1D7D4
Encoding: 120788 120788 3318
Width: 492
Flags: MW
LayerCount: 3
Fore
SplineSet
234 -14 m 0
 101 -14 40 73 40 195 c 0
 40 346 121 440 156 481 c 1
 326 630.3 386 644.3 430 643 c 1
 435 643 l 2
 438 643 445 643 445 636 c 0
 445 620 424 615 421 613 c 0
 342 574 290 528 245 455 c 0
 215 406 167 310 167 192 c 0
 167 144 177 105 190 83 c 0
 202 62 232 27 262 27 c 0
 282 27 297 35 308 48 c 0
 323 65 338 97 338 144 c 0
 338 202 310 259 273 259 c 0
 248 259 233 256 217 244 c 0
 212 241 209 241 208 247 c 1
 206 252 210 257 212 260 c 0
 221 271 227 276 237 284 c 0
 251 295 294 317 328 317 c 0
 392 317 444 267 444 192 c 0
 444 84 375 -14 234 -14 c 0
EndSplineSet
EndChar
StartChar: u1F432
Encoding: 128050 128050 3112
Width: 793
Flags: HMW
LayerCount: 3
Fore
SplineSet
237 468 m 0
 237 466 241 452 246 449 c 1
 250 450 252 464 252 468 c 0
 252 470 248 471 244 471 c 0
 241 471 238 471 237 468 c 0
286 478 m 1
 284 480 282 481 278 481 c 0
 272 481 265 478 264 472 c 1
 265 470 271 454 275 452 c 1
 276 453 277 460 279 466 c 0
 280 470 286 475 286 478 c 1
303 485 m 1
 304 483 308 473 313 470 c 1
 315 472 318 484 318 488 c 0
 318 490.519804027 316.92049684 489 314 489 c 0
 310 489 304 488 303 485 c 1
341 491 m 1
 342 489 345 474 350 470 c 1
 353 471 357 486 357 491 c 1
 356 492 352 494 348 494 c 0
 345 494 342 493 341 491 c 1
377 501 m 0
 376 501 376 500 376 499 c 0
 376 495 381 486 386 482 c 1
 387 486 390 497 394 502 c 1
 392 503 390 504 387 504 c 0
 384 504 381 503 377 501 c 0
389 413 m 0
 391 413 392 413 393 413 c 0
 399 413 402 416 404 418 c 1
 399 420 393 430 391 433 c 1
 389 430 387 423 387 418 c 0
 387 416 388 413 389 413 c 0
345 395 m 0
 346 395 346 395 347 395 c 0
 356 395 366 402 370 405 c 1
 364 406 356 410 349 415 c 1
 347 411 344 402 344 398 c 0
 344 396 344 395 345 395 c 0
305 385 m 0
 306 385 306 385 307 385 c 0
 313 385 319 388 322 390 c 1
 320 390 309 399 309 399 c 1
 306 395 304 390 304 387 c 0
 304 386 304 385 305 385 c 0
274 374 m 0
 275 374 277 374 278 374 c 0
 283 374 285 376 287 378 c 1
 282 379 276 382 271 386 c 1
 271 381 271 374 274 374 c 0
476 560 m 1
 500 555 l 1
 486 545 472 536 457 536 c 0
 444 536 431 543 417 563 c 1
 419 569 436 569 445 570 c 1
 456 569 450 551 459 550 c 0
 460 550 461 550 462 550 c 0
 471 550 471 555 476 560 c 1
434 581 m 0
 445 588 453 591 460 591 c 0
 475 591 485 579 496 569 c 0
 498 568 501 566 501 564 c 0
 501 563 499 562 493 562 c 0
 477 564 469 577 434 577 c 0
 432 577 431 577 431 578 c 0
 431 579 432 580 434 581 c 0
402 561 m 0
 421 551 433 528 456 528 c 0
 486 529 496 544 507 552 c 0
 511 555 513 557 513 559 c 0
 513 561 511 563 508 566 c 1
 501 568 488 597 461 597 c 0
 433 597 424 583 405 571 c 0
 402 569 401 566 401 564 c 0
 401 563 401 562 402 561 c 0
483 272 m 0
 483 269 488 267 492 267 c 0
 496 267 502 273 502 273 c 1
 501 273 l 1
 500 272 499 272 497 272 c 0
 494 272 491 273 486 275 c 0
 484 275 483 273 483 272 c 0
488 288 m 0
 488 285 494 282 499 282 c 0
 504 282 509 284 512 289 c 1
 512 290 l 1
 511 290 l 1
 510 289 508 288 506 288 c 0
 503 288 498 289 492 291 c 1
 491 291 l 2
 489 291 488 290 488 288 c 0
491 304 m 0
 490 304 488 302 488 301 c 0
 488 300 489 299 492 298 c 0
 494 298 500 296 507 296 c 0
 514 296 522 298 528 305 c 1
 529 305 l 1
 528 306 l 1
 520 304 513 302 507 302 c 0
 500 302 495 303 491 304 c 0
492 318 m 1
 491 317 489 316 489 314 c 0
 489 312 491 311 495 311 c 0
 496 311 498 311 500 311 c 0
 511 311 531 312 542 330 c 1
 543 330 l 1
 542 331 l 1
 541 331 l 1
 521 320 502 318 492 318 c 1
495 334 m 0
 494 333 492 332 492 330 c 0
 492 328 493 327 496 327 c 0
 497 327 498 327 499 327 c 0
 505 328 531 334 543 362 c 1
 543 363 l 1
 542 363 l 1
 522 341 505 336 495 334 c 0
493 351 m 0
 492 350 490 348 490 346 c 0
 490 344 491 342 494 342 c 0
 495 342 496 342 497 342 c 0
 504 344 531 351 543 385 c 1
 543 386 l 1
 542 386 l 1
 521 360 504 353 493 351 c 0
489 363 m 0
 488 362 486 360 486 357 c 0
 486 355 487 354 490 354 c 0
 491 354 492 354 493 354 c 0
 500 356 531 382 541 417 c 1
 541 418 l 1
 540 418 l 1
 528 393 499 366 489 363 c 0
487 381 m 0
 486 380 486 379 486 377 c 0
 486 375 487 373 489 373 c 0
 499 373 524 405 529 441 c 1
 528 442 l 1
 527 441 l 1
 519 415 496 386 487 381 c 0
713 609 m 1
 663 586 681 577 651 553 c 0
 637 543 626 544 615 542 c 0
 606 541 598 538 589 538 c 0
 576 538 564 543 552 544 c 1
 572 547 581 553 595 562 c 0
 613 573 622 557 651 592 c 0
 662 605 686 607 713 609 c 1
424 183 m 2
 420 183 l 2
 417 183 415 183 414 185 c 1
 413 185 l 2
 412 185 411 186 409 186 c 0
 408 186 406 185 406 184 c 0
 406 183 407 182 409 180 c 1
 410 180 l 1
 412 179 414 178 416 178 c 0
 419 178 422 178 424 181 c 0
 424 182 424 182 424 183 c 2
416 170 m 2
 412 170 l 2
 409 170 407 170 406 172 c 1
 405 172 l 2
 404 172 403 173 401 173 c 0
 400 173 398 172 398 171 c 0
 398 168 404 165 408 165 c 0
 411 165 414 165 416 168 c 0
 416 169 416 169 416 170 c 2
385 156 m 0
 385 151 395 148 399 148 c 0
 403 148 407 149 410 151 c 1
 410 152 l 1
 409 153 l 1
 401 154 396 153 392 158 c 0
 391 158 390 159 389 159 c 0
 387 159 385 158 385 156 c 0
368 140 m 0
 368 134 376 130 388 130 c 0
 392 130 396 130 402 131 c 1
 403 132 l 1
 402 133 l 1
 386 135 380 137 375 143 c 0
 374 143 374 144 373 144 c 0
 371 144 368 142 368 140 c 0
351 123 m 0
 351 116 367 109 382 109 c 0
 385 109 389 109 393 110 c 1
 393 111 l 1
 392 112 l 1
 372 115 365 120 360 126 c 0
 359 126 359 127 358 127 c 0
 355 127 351 126 351 123 c 0
341 107 m 0
 341 100 358 91 375 91 c 0
 379 91 382 92 386 93 c 1
 387 94 l 1
 386 95 l 1
 364 99 357 105 351 111 c 1
 350 111 l 2
 349 111 349 112 348 112 c 0
 345 112 341 110 341 107 c 0
324 93 m 0
 324 86 343 75 362 75 c 0
 366 75 370 76 374 77 c 1
 375 77 l 1
 375 78 l 1
 374 79 l 1
 352 82 339 91 333 97 c 0
 332 97 331 98 330 98 c 0
 327 98 324 96 324 93 c 0
313 77 m 0
 313 68 338 54 369 54 c 0
 371 54 373 54 375 54 c 1
 376 55 l 1
 375 56 l 1
 356 59 327 71 322 80 c 1
 322 81 l 1
 321 81 320 81 319 81 c 0
 316 81 313 80 313 77 c 0
374 32 m 0
 379 32 390 32 393 35 c 0
 393 36 393 36 392 36 c 0
 360 36 317 52 309 61 c 1
 309 62 l 1
 308 62 307 62 306 62 c 0
 303 62 300 61 300 58 c 0
 300 46 338 32 374 32 c 0
295 42 m 0
 294.158902591 42.8410974091 293.798800479 43 292 43 c 0
 289 43 286 42 286 39 c 0
 286 38 286 35 288 33 c 1
 289 33 l 1
 292 30 311 15 338 15 c 0
 340 15 341 16 343 16 c 2
 344 16 l 1
 344 17 l 1
 343 18 l 1
 325 21 300 33 295 42 c 0
273 19 m 0
 273 12 285 4 300 4 c 0
 302 4 304 4 306 4 c 1
 307 5 l 1
 307 6 l 1
 296 10 285 14 280 23 c 0
 279 23 278 23 277 23 c 0
 275 23 273 22 273 19 c 0
655 95 m 0
 655 104 626 102 623 117 c 0
 623 118 623 120 623 121 c 0
 623 126 625 129 626 129 c 0
 627 129 628 129 628 127 c 0
 628 124 626 121 635 114 c 0
 643 107 670 102 678 101 c 0
 683 100 688.936523438 99 696 99 c 27
 710.131835938 99 725.5 108 728 116 c 1
 720 115 714 113 709 113 c 0
 695 113 690 118 689 126 c 0
 689 128 688 130 688 132 c 0
 688 141 691 152 691 162 c 0
 691 173 688 184 676 191 c 1
 688 198 700 205 700 220 c 0
 700 224 699 229 697 234 c 1
 697 243 697 252 697 261 c 1
 680 261 663 274 659 288 c 1
 659 289 l 1
 661 291 663 291 665 291 c 0
 669 291 672 289 676 286 c 1
 676 271 698 261 722 261 c 0
 739 261 758 267 768 280 c 1
 766 280 765 279 763 279 c 0
 715 279 735 317 695 323 c 1
 694 323 l 1
 694 324 l 1
 700 332 703 340 703 348 c 0
 703 350 702 351 702 353 c 0
 701 364 690 374 688 390 c 1
 701 380 715 371 727 371 c 0
 734 371 740 374 746 380 c 1
 658.683472997 420.372157647 690.979974729 507 619 507 c 1
 620 512 621 517 630 519 c 1
 639 516 648 515 656 515 c 0
 684 515 702 532 712 556 c 0
 723.463912235 583.096519828 755 607.276457906 755 636 c 0
 755 641 753 644 749 644 c 0
 746 644 743 643 739 640 c 0
 685 604 638 624 595 595 c 1
 586.428936355 587.000340598 551.007842699 565 548 565 c 0
 542.090838936 565 542 569.794586105 542 574 c 0
 542 582 555 589 559 598 c 1
 563.411284466 604.616926699 567 613.869263095 567 618 c 1
 559 615 550 614 540 614 c 0
 527 614 513 616 503 617 c 0
 500 617 498 618 495 618 c 0
 477 618 463 610 442 608 c 0
 440 608 438 607 436 607 c 0
 425 607 415 611 401 611 c 0
 397 611 393 611 389 610 c 0
 366 598 352 562 286 541 c 0
 268 535 244 534 228 531 c 1
 229 530 232 529 235 525 c 0
 241 519 259 523 259 514 c 0
 259 505.864534572 251.366179255 500 236 500 c 0
 231 500 222 504 222 509 c 0
 222 512 227 514 227 516 c 1
 222 521 221 525 216 525 c 0
 213 525 211 524 211 522 c 0
 211 517.504069648 210.522780387 515.431658839 212 511 c 1
 220 502 215 478 233 478 c 0
 237 478 241 480 247 482 c 0
 248 482 249 482 250 482 c 0
 260 482 260 486 265 489 c 0
 271 493 287 489 304 497 c 1
 304 497 346 499 363 502 c 0
 373.388363498 504.308525222 379.06235816 509 391 509 c 0
 424 509 446 493 446 465 c 0
 446 452 440 440 438 434 c 0
 434 424 420 419 407 415 c 1
 396 405 388 410 381 406 c 1
 369 395 355 389 341 389 c 0
 339 389 338 389 336 389 c 1
 326 381 311 382 305 377 c 0
 303.772576583 376.693144146 285.986324499 361.013675501 279 368 c 1
 279 367 278 365 278 364 c 0
 278 349 325 348 345 348 c 0
 355 348 365 349 373 349 c 1
 367 354 365 358 360 364 c 0
 357 367 356 369 356 371 c 0
 356 374 359 377 362 379 c 1
 467 400 l 1
 503 406 479 481 514 494 c 1
 515 494 l 2
 517 494 518 492 518 491 c 0
 518 488 513 482 511 480 c 0
 494 463 502 442 496 415 c 0
 492 398 472 388 472 381 c 1
 477 368 479 356 479 344 c 0
 479 299 450 274 437 244 c 1
 425 236 l 1
 362 163 270 84 241 14 c 0
 238 8 238 2 238 -3 c 0
 238 -28 262 -37 287 -37 c 0
 304 -37 316 -30 316 -18 c 2
 316 -17 l 1
 334 -24 349 -36 372 -36 c 0
 382.229147047 -36 396.5 -33.75 410 -27 c 1
 406 -17 379 -13 379 -4 c 0
 379 -2 379 0 382 2 c 1
 399 -9 429 -28 450 -28 c 8
 458.374023438 -28 469 -18 469 -18 c 1
 458 -11 444 -3 444 12 c 1
 469 -5 505 -41 554 -41 c 0
 561.320638581 -41 570 -39.75 578 -38 c 1
 574 -29 555 -18 537 -7 c 0
 533 -4 532 -3 532 -1 c 0
 532 1 534 2 536 4 c 1
 571 -6 623 -65 683 -65 c 0
 706 -65 726 -56 741 -25 c 1
 741 -25 717.9140625 -37 702 -37 c 19
 697 -37 664 -36 664 -31 c 0
 664 -25.7798191471 678.798289093 -25.7383440121 686 -24 c 1
 688 -20 689 -17 689 -14 c 0
 689 -8 685 -4 680 -1 c 0
 668 6 648 11 646 29 c 0
 646 32 646 35 646 37 c 0
 646 58 653 67 654 93 c 0
 654 94 655 94 655 95 c 0
380 412 m 0
 383 421 377 434 391 441 c 0
 392 441 392 440 392 440 c 1
 397 431 403 425 407 423 c 1
 418 430 420 438 420 446 c 0
 420 453.760904829 420.568469995 460.66398992 421 468 c 0
 421 483 413 494 401 494 c 0
 400 494 400 494 399 494 c 0
 397 492 393 472 386 472 c 0
 380 472 368 492 366 493 c 1
 363.202543419 491.135028946 360.049015822 462 351 462 c 0
 341 462 335 485 329 485 c 2
 328 485 l 1
 324 484 328 468 319 464 c 0
 318 464 316 463 314 463 c 0
 307 463 296 466 291 466 c 0
 289 466 l 1
 285.761868846 464.057121308 284.137030141 446 276 446 c 0
 269 446 259 467 258 467 c 0
 250.895633516 467 257.723594952 442 245 442 c 0
 240 442 234 464 234 464 c 0
 221 464 201 489 201 512 c 0
 201 523 206 534 220 539 c 0
 235 544 257 542 272 547 c 0
 368 582 357 619 398 622 c 1
 415 622 421 617 430 617 c 0
 459 617 461 629 496 629 c 0
 501 629 507 629 514 628 c 1
 518 653 541 657 568 657 c 0
 580 657 591 656 603 656 c 0
 618.526221524 656 633.198833947 663 645 663 c 0
 648 663 650 662 650 659 c 0
 650 652 638 635 636 624 c 1
 641 623 646 623 651 623 c 0
 697 623 725 651 760 652 c 0
 764 652 764 645 764 642 c 0
 764 619 736 576 720 546 c 0
 712 531 699 508 666 501 c 1
 695 475 684 448 712 421 c 0
 728 406 746 394 764 388 c 0
 765.262049142 388 765 386.248945752 765 385 c 0
 765 373 754 363 717 354 c 1
 719 325 724 290 754 290 c 0
 759 290 775 291 782 298 c 0
 783 298 784 297 784 296 c 0
 784 272 765 255 722 255 c 0
 720 255 718 255 716 255 c 1
 714 232 714 210 694 187 c 1
 699 181 700 172 700 164 c 0
 700 152 697 140 697 131 c 0
 697 124 699 119 708 119 c 0
 714 119 723 121 736 126 c 0
 737.715494459 126 738 125.7481923 738 124 c 0
 738 105 732 88 678 88 c 0
 674 88 670 88 666 88 c 1
 661 73 656 54 656 39 c 0
 656 28 659 19 666 17 c 0
 713 2 694 -23 703 -27 c 1
 728.041763962 -27 749 0 753 -1 c 0
 754.268162565 -1.31704064116 754.373974861 -2.37397486146 755 -3 c 0
 748.623914928 -47.6325955037 712.438098625 -74 679 -74 c 0
 641 -74 615 -48 587 -41 c 1
 575 -48 565 -51 554 -51 c 0
 528 -51 504 -35 481 -26 c 1
 473 -34 463 -39 451 -39 c 0
 441 -39 429 -36 417 -31 c 1
 411 -39 399 -42 385 -42 c 0
 368 -42 347 -38 330 -37 c 1
 326 -46 315 -47 302 -47 c 0
 265.188071268 -47 225 -36.2773349308 225 -4 c 0
 225 -2.4692680174 224.5 3.75 228 12 c 1
 305 168 469 245 469 345 c 0
 469 350 468 356 467 361 c 1
 461 374 l 1
 451 377 440 378 429 378 c 0
 417 378 373 376 373 365 c 0
 373 361 379 355 385 346 c 1
 385 343.923924603 385.270192173 343 383 343 c 0
 365 342 345 339 327 339 c 0
 294 339 267 345 264 370 c 0
 264 374 263 379 263 383 c 0
 263 386 264 390 266 393 c 0
 266 394 267 394 268 394 c 0
 273 389 281 386 288 386 c 0
 290 386 292 386 294 387 c 1
 295 395 302 400 309 407 c 1
 316 400 326 396 336 394 c 1
 336 402 338 411 344 420 c 0
 344 421 345 421 346 421 c 0
 360 418 369 411 377 411 c 0
 378 411 379 412 380 412 c 0
29 348 m 0
 79 348 66 397 105 404 c 1
 100 424 79 434 64 448 c 0
 56 455 50 463 50 474 c 0
 50 485 55 498 71 515 c 1
 71 515 72 516 73 516 c 0
 74 515 74 515 75 514 c 0
 80 463 96 482 118 470 c 0
 137 460 124 445 156 431 c 1
 153 439 152 446 152 452 c 0
 152 463 156 470 156 478 c 0
 156 486 152 494 136 503 c 0
 135 503 135 503 135 504 c 0
 135 506.197116396 135.833282946 506 138 506 c 0
 209 506 174 432 230 425 c 1
 262 427 376 451 376 451 c 1
 347 442 325 423 267 399 c 0
 255 394 223 374 223 349 c 0
 223 337 231 324 252 312 c 0
 253 312 253 312 253 311 c 0
 247 305 228 305 222 305 c 0
 184 305 185 333 182 355 c 1
 160 340 139 329 131 300 c 0
 131 298.737950858 129.248945752 299 128 299 c 0
 120 309 115 319 115 329 c 0
 115 336 117 344 123 351 c 1
 101 349 87 327 72 318 c 0
 68 315 63 314 59 314 c 0
 58.8857817293 314 24 322.290897787 24 346 c 0
 24 348.796287197 26.4139014321 348 29 348 c 0
EndSplineSet
EndChar
StartChar: u1F449
Encoding: 128073 128073 3358
Width: 1188
VWidth: 0
Flags: MW
LayerCount: 3
Fore
SplineSet
995.133 434.967 m 0
 1008.16 433.695 1042.42 424.381 1071.95 414.079 c 0
 1125.26 395.492 1125.26 395.492 1142.29 356.415 c 0
 1151.54 335.189 1158.45 315.06 1157.43 312.348 c 0
 1154.56 304.762 1046.96 294.108 1031.19 299.849 c 0
 1023.79 302.539 1003.66 302.263 987.133 299.243 c 0
 970.296 296.164 914.21 296.182 894.538 301.776 c 0
 851.413 314.037 745.811 323.446 749.762 296.652 c 0
 751.267 286.469 758.47 271.919 765.482 264.906 c 0
 778.979 251.41 775.771 247.066 742.12 233.252 c 0
 732.459 229.286 707.558 229.971 721.477 211.527 c 0
 767.41 150.664 760.466 123.362 700.501 129.061 c 0
 658.956 133.012 625.341 138.392 660.06 93.2812 c 0
 686.335 59.1455 685.655 54.1436 672.056 31.2705 c 0
 662.803 15.7109 658.277 14.3223 641.507 21.9033 c 0
 625.757 29.0234 614.091 19.3779 603.518 6.2168 c 0
 593.427 -6.3457 577.286 4.55371 573.82 13.9854 c 0
 568.61 28.1611 546.168 24.5156 517.131 20.7676 c 0
 506.028 19.3369 495.775 20.6787 493.551 23.8574 c 0
 489.275 29.9609 452.712 44.6162 399.671 61.4863 c 0
 381.381 67.3027 363.055 77.2324 358.435 83.8301 c 0
 354.06 90.0781 344.034 119.587 335.02 119.943 c 0
 325.677 120.315 296.141 132.29 270.042 146.289 c 0
 223.382 171.317 221.959 171.489 212.697 153.314 c 0
 202.374 133.056 184.664 114.488 179.721 123.052 c 0
 167.325 144.52 156.01 291.406 163.471 331.826 c 0
 178.75 414.637 162.891 491.676 129.36 497.515 c 0
 117.264 499.621 113.112 493.887 105.839 465.026 c 0
 100.974 445.723 97.1309 416.396 97.2832 399.751 c 0
 97.4355 383.103 95.0615 358.186 91.998 344.291 c 0
 81.4795 296.565 94.8242 174.451 116.672 122.764 c 0
 120.879 112.813 137.007 96.6299 151.777 87.541 c 0
 175.409 73 178.249 69.1084 172.805 58.7471 c 0
 164.085 42.1572 160.166 40.9746 132.302 46.5205 c 0
 107.344 51.4883 105.685 53.4424 85.4844 101.675 c 0
 73.8984 129.337 61.5518 182.306 57.8506 214.034 c 0
 54.1934 245.394 49.0303 280.138 46.4609 290.695 c 0
 41.707 310.217 49.1758 398.839 59.8809 449.941 c 0
 63.0293 464.972 64.165 480.758 62.3262 483.943 c 0
 60.4072 487.267 65.4375 501.438 73.7266 516.069 c 0
 88.1221 541.479 89.2852 542.202 113.26 540.654 c 0
 126.95 539.772 152.38 531.092 170.306 521.182 c 0
 199.921 504.81 202.318 501.775 198.738 485.189 c 0
 195.262 469.089 209.668 447.434 220.826 451.984 c 0
 223.222 452.962 233.055 456.739 243.175 460.57 c 0
 267.028 469.6 378.014 534.889 381.906 542.183 c 0
 383.532 545.229 416.098 560.004 454.146 574.958 c 0
 511.579 597.528 528.866 601.107 555.245 595.892 c 0
 573.142 592.353 597.047 587.657 609.886 585.159 c 0
 622.477 582.71 652.427 576.312 676.699 570.887 c 0
 700.972 565.462 730.19 560.331 741.88 559.442 c 0
 769.067 557.377 758.275 558.68 730.44 509.331 c 0
 705.312 464.783 698.915 448.352 781.027 449.956 c 0
 823.105 450.778 948.884 439.486 995.133 434.967 c 0
1078.22 371.21 m 0
 1075.9 381.565 1027.87 400.01 995.645 402.921 c 0
 924.127 409.381 775.204 421.237 691.668 433.045 c 0
 540.775 454.374 534.551 463.03 499.914 501.41 c 0
 472.218 532.101 464.784 536.504 448.709 531.74 c 0
 438.379 528.681 382.627 496.691 324.987 460.75 c 2
 220.064 395.329 l 1
 212.314 355.621 l 2
 204.019 313.129 212.079 255.075 230.768 222.705 c 0
 236.949 211.999 254.771 197.806 271.161 190.536 c 0
 325.511 166.423 363.495 123.582 371.739 118.288 c 0
 383.382 110.809 475.793 91.6416 528.706 80.2705 c 0
 579.584 69.335 620.818 44.5957 620.818 99.9805 c 0
 620.818 135.226 581.536 143.314 558.715 148.215 c 0
 546.503 150.841 534.153 157.359 529.905 163.427 c 0
 517.946 180.505 538.492 187.135 569.37 176.163 c 0
 617.015 159.238 665.355 153.926 679.321 162.823 c 0
 708.275 181.269 670.638 246.518 635.458 238.797 c 0
 615.131 234.339 552.93 254.431 553.289 265.34 c 0
 553.922 284.458 578.542 289.609 605.928 276.354 c 0
 671.488 244.622 727.768 247.986 719.946 283.169 c 0
 713.451 312.395 686.855 331.886 633.227 346.726 c 0
 571.897 363.693 577.816 375.247 645.977 371.613 c 0
 686.024 369.478 788.583 339.468 853.962 336.763 c 0
 868.587 336.157 887.478 335.825 897.56 335.994 c 0
 907.459 336.161 954.491 333.344 979.679 331.178 c 0
 1004.87 329.012 1026.21 330.783 1027.81 335.172 c 0
 1029.43 339.635 1041.47 347.056 1055.54 352.271 c 0
 1069.62 357.486 1079.46 365.706 1078.22 371.21 c 0
681.694 494.345 m 0
 687.666 500.783 689.293 511.699 685.307 518.603 c 0
 668.524 547.67 540.458 559.371 530.019 532.792 c 0
 522.076 512.569 541.007 493.426 582.08 480.144 c 0
 624.132 466.548 660.753 471.77 681.694 494.345 c 0
EndSplineSet
EndChar
StartChar: u1F468
Encoding: 128104 128104 3114
Width: 1000
Flags: M
LayerCount: 3
Back
Fore
SplineSet
278 41 m 17
 292.167 46.583 297.983 53.8976 300 62 c 1
 286.842 58.9001 274.637 59.3953 263 62 c 1
 276.234 68.0666 286.768 76.4062 297 85 c 1
 282.676 83.6811 268.483 81.7426 253.429 83.8555 c 1
 269.714 95.5714 278.857 106.429 291 125 c 0
 299.585 138.13 309.107 143.997 324.286 145.569 c 24
 333.753 146.55 343.426 139.948 343.427 130.431 c 0
 343.429 113 325.374 112.754 330 102 c 0
 335.714 88.7143 346.211 106.969 356.575 110.146 c 25
 350.891 99.5586 343.382 94.9365 342 83 c 24
 340.975 74.1484 342.571 67.8571 351 62 c 0
 360.592 55.3341 363.429 46.7143 362 34.1416 c 0
 360.306 19.2366 346.667 9.20595 331.715 10.4268 c 24
 307.69 12.3887 298.949 29.0762 278 41 c 17
181.558 139.332 m 17
 171.169 141.332 167.982 145.456 164.558 153.332 c 24
 159.56 164.827 160.142 172.878 161.558 185.332 c 24
 162.192 190.921 169.196 191.72 169.558 197.332 c 24
 170.058 205.087 160.638 209.131 163.558 216.332 c 24
 167.61 226.329 173.873 232.848 184.558 234.332 c 24
 192.226 235.397 191.876 222.293 199.558 221.332 c 24
 207.002 220.402 217.148 222.854 216.558 230.332 c 24
 215.477 244.028 199.947 246.018 196.558 259.332 c 24
 193.99 269.417 196.947 280.667 202.558 285.332 c 0
 220.968 300.64 239.477 304.7 262.558 298.332 c 24
 279.778 293.582 269.973 270.61 289.558 261.332 c 0
 293.778 259.333 309.362 263.937 317.558 272.332 c 24
 326.716 281.714 322.834 292.739 330.558 303.332 c 24
 336.946 312.094 342.123 317.383 352.558 320.332 c 24
 361.689 322.913 370 320 376.558 316.332 c 9
 369.928 301.513 361.658 294.432 359.558 278.332 c 24
 357.942 265.951 369.873 259.602 367.558 247.332 c 24
 365.502 236.438 360.621 226.046 349.558 225.332 c 24
 340.274 224.733 344.749 240.922 336.558 245.332 c 24
 331.642 247.979 327.563 243.223 323.558 239.332 c 24
 313.597 229.655 314.732 215.724 301.558 211.332 c 24
 291.783 208.074 288.847 224.88 278.558 224.332 c 24
 271.536 223.958 268.006 216.585 268.226 209.557 c 24
 268.477 201.52 275.846 199.465 279.558 192.332 c 24
 283.035 185.651 291.402 180.1 286.558 174.332 c 24
 279.318 165.714 269.81 167.656 258.558 167.332 c 24
 240.824 166.822 230.165 166.618 213.333 172.225 c 0
 202.667 175.778 195.525 185.008 183.558 182.332 c 24
 175.386 180.506 173.947 171.697 173.558 163.332 c 24
 173.1 153.477 178.438 148.692 181.558 139.332 c 17
525.308 477.955 m 0
 538 477.955 538 469.955 547.308 483.955 c 0
 551.525 490.298 555.865 493.893 563.308 494.455 c 24
 568.562 494.852 571.939 490.881 573.808 485.955 c 24
 575.325 481.956 573.478 478.569 570.5 475.5 c 24
 566.5 471.379 562.961 469.968 557.308 468.955 c 24
 544.042 466.578 536.285 466.955 522.808 466.955 c 24
 508.941 466.955 500.89 466.154 487.308 468.955 c 24
 481.478 470.157 480.256 477.203 474.308 476.955 c 24
 468.77 476.724 468.633 469.493 463.308 467.955 c 24
 458.898 466.681 456.35 469.79 451.808 470.455 c 24
 448.329 470.964 445.342 473.391 442.808 470.955 c 24
 438.984 467.278 440.013 463.121 438.808 457.955 c 24
 437.278 451.398 437.371 447.503 435.808 440.955 c 24
 433.271 430.324 434.334 423.072 428.308 413.955 c 24
 425.672 409.967 418.767 415.554 416.308 411.455 c 24
 413.283 406.413 416.891 402.262 417.808 396.455 c 24
 418.649 391.127 423.14 387.818 420.808 382.955 c 24
 415.613 372.12 408.381 368.856 400.308 359.955 c 24
 393.17 352.085 390.755 345.686 381.808 339.955 c 24
 377.371 337.113 373.501 338.564 368.308 339.455 c 24
 360.714 340.758 357.062 344.025 349.5 345.5 c 24
 339.883 347.376 334.141 349.753 324.5 348 c 24
 316.17 346.485 312.973 341.478 305.5 337.5 c 24
 300.881 335.042 298.706 332.021 293.5 331.5 c 24
 288.275 330.978 281.861 329.929 280.5 335 c 24
 278.622 341.999 284.455 345.68 288 352 c 24
 293.451 361.718 294.211 369.848 303.5 376 c 24
 310.994 380.964 317.528 376.934 326.5 377.5 c 24
 339.174 378.299 346.499 377.268 359 379.5 c 24
 368.53 381.202 375.599 380.71 382.5 387.5 c 24
 389.094 393.987 386.604 401.396 390 410 c 24
 395.387 423.646 401.576 430.233 405 444.5 c 24
 407.549 455.118 397.105 464.956 405 472.5 c 24
 411.604 478.811 418.725 468.535 427.5 466 c 1
 427.5 473.5 427.945 477.204 432 482.5 c 24
 437.999 490.335 442.647 494.853 452 498 c 24
 463.852 501.988 471.869 503.033 484 500 c 24
 491.358 498.16 494 493 498 486.5 c 0
 503.848 476.996 504.906 477.955 525.308 477.955 c 0
821.333 204 m 17
 830 197.333 833.82 189.828 834.257 177.156 c 0
 834.923 157.823 812.176 141.904 811.058 133.954 c 0
 807.458 108.355 830.766 124.126 830.256 104.753 c 0
 829.589 79.4189 809.333 86 810 69.3333 c 0
 810.267 62.6541 807.458 56.7549 814 52.6667 c 0
 820.784 48.4273 824.51 55.8383 830.258 53.1549 c 24
 835.434 50.7383 842.029 45.7668 838.658 41.1549 c 24
 819.972 15.5928 804.258 -4.04514 780.258 -15.2451 c 9
 788.682 -0.269531 806.506 6.61326 801.858 23.1549 c 24
 797.997 36.8936 779.422 26.7727 766.658 33.1549 c 24
 760.619 36.1738 753.289 39.9617 755.458 46.3549 c 24
 760.617 61.5625 774.888 63.4872 781.858 77.9549 c 24
 785.785 86.1064 786.244 93.2413 781.858 101.155 c 24
 777.223 109.517 770.306 111.126 761.46 114.753 c 24
 754.314 117.683 746.296 111.234 741.858 117.555 c 24
 737.996 123.055 744.144 128.239 748.258 133.555 c 24
 754.545 141.68 757.646 150.034 767.858 151.155 c 24
 775.317 151.974 773.644 138.313 781.058 137.155 c 24
 787.196 136.195 790.284 141.814 793.458 147.155 c 24
 800.399 158.834 807.746 166.051 806.258 179.555 c 24
 805.146 189.643 782.531 189.318 787.858 197.955 c 24
 794.821 209.247 808.277 201.643 821.333 204 c 17
219 386.533 m 17
 230.154 436.408 247 448.867 262 450.533 c 0
 276.967 452.196 278.188 439.523 289.999 438.867 c 24
 294.885 438.596 299.112 443.768 298 448.533 c 0
 295.667 458.533 290.333 480.867 306.66 499.527 c 0
 326.86 522.615 348.957 522.183 376 536.667 c 17
 376.958 557.515 388.353 574.119 417.333 584.667 c 0
 426.73 588.087 507.207 583.447 564.667 582.667 c 25
 574 571.333 l 25
 586.667 582.667 l 25
 724.663 583.333 l 17
 773.972 569.722 777.11 551.259 784.667 534 c 1
 860.327 520.184 847.333 460.667 841.333 448 c 1
 848.591 432.015 856.091 427.952 865.25 427.5 c 0
 885.5 426.5 875 451.5 896.667 445.333 c 0
 954.275 428.936 912 368.667 906 370.667 c 1
 897.177 376.152 883.333 371.333 902.667 361.333 c 1
 943.008 368.777 942.185 347.448 938.667 323.333 c 0
 933.999 291.332 916.407 301.214 922 284 c 0
 931.218 255.63 943.24 278.667 954 278.667 c 0
 981.46 278.667 982.678 250.965 982.678 240.705 c 0
 982.678 228.205 963.797 203.32 954.178 201.955 c 1
 956.928 218.205 973.688 242.904 946.928 242.955 c 0
 926.855 242.993 918.428 241.205 904.083 261.899 c 0
 898.408 270.087 907.477 278.722 902.583 287.399 c 24
 896.667 297.892 890.42 304.271 878.678 306.955 c 24
 867.434 309.525 859.746 293.099 850.083 299.399 c 24
 839.846 306.074 841.445 317.926 843.333 330 c 24
 846.207 348.379 861.75 353.414 861.75 374 c 3
 861.75 392.012 842.011 414.5 822 414.5 c 3
 811.998 414.5 805.33 412.669 799.333 408 c 0
 780.513 393.349 745.492 467.216 755.083 478.566 c 0
 773.098 499.884 737.51 549.899 703.083 549.899 c 27
 691.783 549.899 682.417 543.899 676.417 538.566 c 9
 596 542 l 17
 585.005 537.881 574.667 530 571.333 515.333 c 1
 560.667 530.667 541.888 552 516 552 c 3
 444.667 552 390.667 518.295 390.667 499.333 c 3
 390.667 491.27 395.141 487.54 398 480 c 25
 391.208 473.331 384.336 471.647 380.583 462.9 c 24
 376.426 453.207 383.411 445.517 379.083 435.9 c 24
 377.104 431.5 371.764 431.729 367.083 432.9 c 24
 356.931 435.438 353.548 444.9 343.083 444.9 c 24
 337.233 444.899 339.443 435.244 334.083 432.9 c 24
 328.697 430.543 322.989 438.794 319.083 434.4 c 24
 311.34 425.688 315.296 416.325 310.083 405.9 c 24
 307.493 400.72 304.504 398.453 299.583 395.4 c 24
 287.357 387.812 275.28 390.363 266.583 378.899 c 24
 260.22 370.511 271.43 361.247 266.583 351.899 c 24
 262.102 343.256 255.319 338.399 245.583 338.399 c 24
 230.589 338.399 212.524 337.196 209.583 351.899 c 24
 207.078 364.428 237.731 348.57 241.083 360.899 c 24
 244.546 373.633 227.612 376.536 219 386.533 c 17
487.458 113.783 m 9
 498.378 124.509 511.958 141.283 515.458 141.283 c 0
 519.958 141.283 520.24 135.246 524.458 135.283 c 24
 532.444 135.354 535.979 141.21 543.958 141.533 c 24
 551.024 141.819 554.406 136.25 561.458 136.783 c 24
 571.852 137.568 576.208 144.283 586.958 144.783 c 0
 599.349 145.359 604.867 137.23 616.708 133.533 c 24
 624.905 130.975 636.958 131.783 638.208 128.783 c 1
 635.708 124.783 628.978 122.232 622.208 122.033 c 0
 605.208 121.533 602.822 133.968 588.958 134.783 c 24
 579.629 135.332 576.29 125.792 566.958 125.283 c 24
 558.948 124.847 555.72 132.952 547.708 132.533 c 24
 539.479 132.103 536.895 124.239 528.708 123.283 c 24
 522.461 122.554 519.507 130.261 513.458 128.533 c 24
 508.231 127.04 510.687 119.466 505.958 116.783 c 24
 499.601 113.177 494.458 111.783 487.458 113.783 c 9
668.6 295.433 m 3
 679.808 295.433 681.532 307.268 689.8 314.833 c 25
 673.199 321.635 l 17
 674.599 314.635 675.607 302.633 664.4 302.633 c 3
 653.398 302.633 651.4 310.233 651.2 315.033 c 1
 645.857 316.887 640.468 318.365 634.6 316.433 c 1
 644.4 310.433 645.8 295.433 668.6 295.433 c 3
694.6 305.634 m 0
 681.8 298.433 678.2 287.834 669.201 287.834 c 0
 650.2 287.833 635 309.033 631.399 309.034 c 0
 623.989 309.036 626 303.833 618.8 304.433 c 1
 618.6 310.233 625.2 314.033 627.2 322.833 c 1
 622.036 323.564 616.229 322.704 610 320.833 c 9
 604.2 327.833 l 25
 610.986 328.535 614.794 329.17 621.6 329.633 c 24
 633.13 330.418 639.965 328.327 651.2 331.033 c 24
 661.75 333.574 665.549 342.671 676.4 342.833 c 0
 689.8 343.033 709.6 327.233 713 316.633 c 1
 704.8 309.233 698.613 307.891 694.6 305.634 c 0
552.267 235.231 m 0
 555.867 227.1 545.2 226.227 545.2 218.709 c 0
 545.2 202.833 537.2 216.7 538.267 220.833 c 0
 540.376 229.006 550.834 238.467 552.267 235.231 c 0
582.488 239.833 m 0
 584.188 242.936 596.257 232.351 599.385 223.831 c 24
 600.785 220.017 588.983 203.245 590.085 219.136 c 0
 590.605 226.636 577.283 230.333 582.488 239.833 c 0
582.49 263.226 m 0
 576.215 263.885 574.131 318.234 579.833 318.533 c 0
 585.835 318.848 588.796 262.563 582.49 263.226 c 0
545.212 252.517 m 0
 536.487 252.61 543.228 319.107 548.93 319.406 c 0
 554.931 319.721 552.795 252.435 545.212 252.517 c 0
734 186.667 m 9
 728.502 126.665 l 25
 676.667 68.6667 l 25
 662.667 71.3333 l 25
 620.667 39.3333 l 25
 572 35.3333 l 25
 565.333 41.3333 l 25
 554 36.6667 l 25
 506 35.3333 l 25
 476.667 56 l 25
 449.333 72 l 25
 399.333 106 l 25
 394 146 l 25
 395.833 188 l 25
 412.5 186 l 25
 412.005 173 413.239 165.52 411.23 152.666 c 24
 409.593 142.184 401.23 139.999 403.23 126.666 c 0
 405.413 112.108 421.085 107.96 432.5 96 c 17
 438.5 100 445.441 108.859 445.833 119.333 c 24
 446.698 142.417 435.02 154.572 435.56 177.666 c 24
 435.717 184.39 436.226 227.999 446.892 164.666 c 0
 452.104 133.72 445.621 109.323 461.889 80 c 24
 473.846 58.4463 508.396 44.8102 513.833 44 c 0
 572 35.3333 550.026 51.3203 573.167 56 c 17
 575.167 41.3333 601.783 38.0185 604.5 45.3333 c 0
 613.167 68.6667 607.167 24.6667 661.833 87.3333 c 9
 669.833 84.6667 l 17
 681.833 82 684.5 120 697.167 148 c 0
 700.656 155.713 721.833 179.333 701.167 126.667 c 0
 692.616 104.875 680.5 75.3333 715.167 126 c 0
 729.156 146.446 732.5 215.333 734 186.667 c 9
761.333 346.667 m 17
 748.667 346.667 702.667 370 702.667 394.667 c 3
 702.667 404.883 709.333 409.784 709.333 420 c 27
 709.333 443.544 695.333 453.333 668 464 c 1
 649.058 465.288 589.725 467.288 625.333 482.667 c 1
 646.667 482.667 647.993 510 678 510 c 3
 698.673 510 714.005 481.995 712 469.333 c 8
 709.613 454.263 718.862 446.473 723.558 431.955 c 24
 730.39 410.833 730.302 397.089 741.558 377.955 c 24
 746.714 369.189 753.406 364.57 763.558 363.955 c 24
 769.895 363.57 769.016 379.052 774.558 375.955 c 24
 787.699 368.611 795.611 359.883 797.558 344.955 c 24
 799.601 329.294 787.125 322.341 783.558 306.955 c 24
 780.821 295.153 773.781 285.244 781.558 275.955 c 24
 791.534 264.038 804.498 267.795 819.558 263.955 c 24
 837.173 259.464 851.562 267.233 865.225 254.621 c 0
 882.559 238.621 881.558 235.288 893.558 207.955 c 0
 896.935 200.263 883.52 201.199 885.558 187.955 c 0
 886.224 183.622 898.023 179.656 906.558 180.955 c 24
 917.605 182.636 920.891 194.955 931.558 194.955 c 0
 945.224 194.955 958.165 171.247 959.558 150.955 c 24
 960.452 137.931 945.457 136.184 936.226 126.952 c 24
 928.685 119.411 927.218 108.255 916.558 107.955 c 24
 909.243 107.749 916.539 120.146 912.557 126.285 c 24
 906.75 135.237 903.224 145.222 892.558 144.955 c 0
 879.224 144.622 869.912 146.723 862.558 156.955 c 24
 857.734 163.665 870.423 168.736 869.558 176.955 c 24
 867.957 192.166 868.663 204.607 856.558 213.955 c 24
 844.262 223.45 832.087 214.391 816.892 217.624 c 24
 807.373 219.649 799.886 219.626 793.888 227.289 c 24
 788.834 233.745 798.588 242.395 792.888 248.289 c 24
 781.207 260.366 759.689 251.956 754.558 267.955 c 24
 745.147 297.294 758.69 315.97 761.333 346.667 c 17
483.875 305.75 m 0
 470.914 305.757 478.571 319.818 471.208 319.75 c 24
 460.529 319.651 453.042 318.25 447.875 305.417 c 1
 459.208 299.417 465.394 292.083 478.375 292.083 c 0
 492.875 292.083 499.375 300.083 510.875 311.75 c 9
 507.04 315.455 506.372 321.102 501.042 321.25 c 0
 495.042 321.417 495.714 305.744 483.875 305.75 c 0
423.542 294.083 m 1
 436.208 307.083 447.875 332.25 487.708 332.417 c 0
 496.97 332.456 502.984 332.29 506.458 330.07 c 0
 509.131 328.361 511.807 334.129 516.458 336.205 c 0
 521.278 338.356 539.229 331.678 539.269 329.796 c 0
 539.32 327.346 532.302 328.312 530.448 330.446 c 0
 528.658 332.507 523.22 332.069 518.857 331.807 c 0
 513.068 331.458 508.79 328.995 510.458 327.787 c 0
 516.597 323.34 516.654 315.304 532.375 307.083 c 9
 525.484 305.783 521.131 306.564 514.708 303.75 c 24
 500.419 297.49 495.475 283.992 479.875 284.083 c 0
 451.542 284.25 444.042 303.417 440.541 303.417 c 0
 435.682 303.417 431.875 290.417 423.542 294.083 c 1
519.167 215.748 m 9
 521.639 207.951 518.125 199.281 525.506 195.756 c 24
 532.172 192.572 535.672 201.249 542.171 204.761 c 25
 550.618 198.129 553.093 187.531 563.83 187.757 c 0
 579.333 188.083 581.623 204.985 595.169 204.748 c 0
 605.167 204.573 601.354 197.444 606.167 193.753 c 24
 608.721 191.795 610.793 191.769 613.75 190.5 c 17
 610.333 182.917 598.833 177.083 596.333 177.083 c 0
 590.842 177.083 597.824 190.583 592.333 190.583 c 0
 575.833 190.583 570.833 170.917 565.833 176.75 c 0
 562.492 180.648 561.667 182.75 557.667 178.583 c 0
 549.014 169.57 549.883 190.777 541.833 193.083 c 24
 535.821 194.806 536.833 187.75 526.833 187.417 c 0
 514.655 187.011 519.667 202.083 515.332 203.416 c 0
 512.503 204.286 511.333 202.083 507.833 202.25 c 1
 509.262 210.969 513.812 214.082 519.167 215.748 c 9
EndSplineSet
EndChar
StartChar: u1F469
Encoding: 128105 128105 3115
Width: 1000
Flags: HM
LayerCount: 3
Back
Fore
SplineSet
415 26 m 1
 389 36 368 66 368 99 c 0
 368 115 365 128 365 144 c 0
 365 147 365 150 365 153 c 1
 376 122 385 92 400 65 c 0
 418 32 440 7 463 -21 c 2
 493 -58 l 1
 511 -74 527 -84 548 -103 c 0
 564 -117 581 -133 589 -138 c 0
 604 -148 611 -150 632 -150 c 3
 668 -150 689 -142 713 -126 c 0
 730 -115 736 -107 751 -92 c 0
 780 -63 807 -33 827 6 c 0
 840 30 848 39 857 70 c 1
 839 84 824 96 811 125 c 0
 805 138 804 147 801 160 c 1
 801 168 803 171 804 171 c 0
 807 171 813 156 821 141 c 0
 831 123 845 111 863 94 c 0
 872 85 877 80 888 75 c 0
 905 68 917 68 935 66 c 0
 944 65 951 64 958 64 c 0
 978 64 992 67 1003 67 c 0
 1008 67 1013 67 1017 65 c 1
 996 57 967 56 935 56 c 0
 933 56 932 55 931 55 c 0
 919 55 911 58 897 58 c 1
 917 38 935 15 955 -5 c 0
 974 -24 981 -42 1005 -54 c 0
 1035 -69 1058 -68 1088 -74 c 1
 1083 -75 1078 -74 1073 -74 c 0
 1046 -74 1019 -67 997 -62 c 1
 1003 -71 1005 -77 1012 -85 c 0
 1033 -110 1071 -136 1071 -141 c 1
 1049 -132 1007 -95 998 -80 c 0
 992 -71 989 -63 985 -53 c 1
 968 -43 959 -37 945 -24 c 0
 928 -8 917 1 906 20 c 1
 906 9 904 1 904 -8 c 0
 904 -35 924 -52 951 -52 c 0
 957 -52 962 -51 968 -50 c 1
 964 -53 958 -56 951 -56 c 0
 947 -56 944 -58 940 -56 c 1
 947.363636364 -60.0909090909 948.033057851 -68.1983471074 948.033057851 -79.2268970699 c 0
 948.033057851 -81.6776859504 948 -84.2727272727 948 -87 c 0
 948 -98 946 -102 946 -102 c 1
 955 -102 968 -103 976 -110 c 0
 996 -126 1012 -141 1012 -175 c 0
 1012 -179 1011 -183 1011 -188 c 1
 1005 -164 1002 -161 990 -147 c 0
 980 -135 965 -125 953 -125 c 0
 943 -125 934 -135 934 -145 c 0
 934 -151 938 -158 945 -164 c 0
 957 -174 962 -190 962 -205 c 0
 962 -219 957 -233 950 -243 c 1
 950 -208 950 -200 934 -180 c 0
 928 -173 922 -169 915 -169 c 0
 903 -169 892 -179 892 -190 c 0
 892 -194 893 -199 897 -203 c 0
 904 -212 912 -228 912 -242 c 0
 912 -248 910 -255 907 -260 c 1
 904 -238 898 -228 887 -210 c 0
 882 -203 876 -200 868 -200 c 0
 847 -200 836 -204 800 -225 c 1
 807 -205 811 -194 817 -172 c 2
 817 -172 845 -90 852 -27 c 0
 855 1 858 17 858 42 c 2
 858 61 l 1
 857 53 850 38 843 25 c 0
 829 -3 823 -17 803 -43 c 0
 787 -63 774 -74 756 -93 c 0
 726 -124 694 -157 634 -157 c 3
 605 -157 595 -153 568 -131 c 0
 557 -122 549 -116 537 -107 c 0
 519 -93 505 -88 492 -69 c 1
 483 -101 458 -190 458 -190 c 1
 458 -190 446 -150 446 -138 c 0
 446 -133 443 -136 431 -136 c 3
 376 -136 370 -114 370 -114 c 1
 357 -132 352 -162 352 -191 c 0
 352 -206 355 -218 355 -236 c 1
 298 -203 l 1
 298 -201 298 -199 298 -197 c 0
 298 -186 299 -175 300 -166 c 1
 298 -164 295 -153 295 -145 c 0
 295 -130 305 -109 316 -88 c 0
 324 -74 341 -64 353 -61 c 1
 359 -54 l 1
 335 -50 331 -44 319 -32 c 0
 298 -12 288 3 278 31 c 0
 268 58 271 77 268 106 c 0
 266 125 265 135 265 154 c 1
 270 155 276 156 281 156 c 0
 298 156 315 150 317 134 c 0
 318 129 318 124 318 120 c 0
 318 104 315 91 315 77 c 0
 315 43 337 27 355 15 c 0
 378 0 391 2 414 -19 c 0
 430 -34 439 -45 439 -66 c 0
 439 -89 420 -97 414 -97 c 1
 420 -100 427 -102 436 -102 c 0
 458 -102 473 -83 473 -65 c 3
 473 -14 424 7 392 26 c 1
 397 25 402 25 406 25 c 0
 409 25 412 25 415 26 c 1
316 310 m 1
 327 253 343 210 362 161 c 1
 353 173 346 181 335 190 c 1
 314 195 280 206 280 233 c 0
 280 242 283 250 287 254 c 1
 286 248 286 243 286 239 c 0
 286 231 288 226 294 220 c 1
 294 269 l 1
 298 276 302 279 306 286 c 0
 311 295 312 301 316 310 c 1
315 388 m 1
 303 351 307 330 283 293 c 0
 267 268 240 254 240 229 c 0
 240 214 244 203 256 194 c 0
 272 182 287 185 307 180 c 1
 287 180 272 176 255 176 c 0
 224 176 214 180 198 206 c 0
 195 211 192 220 192 229 c 0
 192 234 194 240 194 246 c 0
 194 267 211 277 223 292 c 0
 238 309 250 317 256 340 c 1
 259 347 263 355 268 359 c 0
 277 366 283 367 293 373 c 0
 302 379 306 382 315 388 c 1
598 -71 m 1
 605 -58 617 -52 632 -52 c 0
 640 -52 648 -57 657 -59 c 1
 648 -57 640 -57 634 -57 c 0
 614 -57 606 -61 598 -71 c 1
552 -13 m 0
 555 -13 558 -10 560 -10 c 0
 567 -7 574 0 583 0 c 0
 588 0 592 -3 598 -3 c 0
 609 -3 615 3 623 5 c 0
 630 7 638 6 645 8 c 0
 651 9 655 12 661 14 c 1
 655 16 643 16 643 21 c 1
 650 20 657 17 665 17 c 0
 668 17 671 17 674 18 c 0
 677 20 673 24 681 24 c 1
 683 23 689 20 689 16 c 0
 689 9 676 10 670 8 c 0
 667 7 665 5 661 5 c 0
 659 5 658 6 656 6 c 0
 650 6 646 0 637 0 c 1
 622 -3 615 -9 596 -9 c 0
 575 -9 569 -21 552 -21 c 0
 547 -21 542 -20 536 -20 c 1
 541 -14 543 -14 552 -13 c 0
587 -38 m 1
 592 -38 597 -38 601 -36 c 0
 605 -35 604 -31 609 -31 c 0
 611 -31 612 -32 615 -32 c 0
 617 -32 622 -30 623 -29 c 1
 626 -29 627 -30 630 -30 c 0
 635 -30 639 -28 644 -27 c 1
 635 -34 628 -41 611 -41 c 0
 605 -41 597 -40 587 -38 c 1
809 216 m 0
 820 216 834 234 834 249 c 0
 834 254 833 259 831 266 c 0
 826 284 810 289 795 296 c 0
 780 303 770 306 757 316 c 1
 747 325 742 332 736 344 c 0
 731 353 733 359 730 369 c 1
 721 380 l 1
 734 368 l 1
 750 357 757 349 774 340 c 0
 803 325 826 329 851 308 c 0
 860 300 870 280 870 257 c 0
 870 224 847 197 812 197 c 0
 792 197 779 206 777 222 c 1
 784 218 791 216 809 216 c 0
595 231 m 0
 585 231 575 234 575 246 c 0
 575 249 575 252 578 254 c 0
 606 274 609 298 653 298 c 0
 670 298 711 288 715 278 c 1
 697 286 680 293 657 293 c 0
 618 293 605 272 578 250 c 0
 577 249 577 248 577 246 c 0
 577 239 582 234 591 234 c 0
 595 234 598 235 602 235 c 0
 617 235 626 230 641 230 c 0
 660 230 670 234 688 243 c 1
 675 232 663 228 645 228 c 0
 615 228 618 231 595 231 c 0
733 275 m 1
 723 275 715 274 707 274 c 0
 705 274 703 274 701 274 c 0
 693 275 688 279 671 279 c 2
 669 279 l 1
 671 276 671 273 671 269 c 0
 671 262 668 256 663 252 c 1
 674 256 684 262 691 269 c 1
 687 260 671 253 656 247 c 0
 645 243 638 244 626 244 c 0
 624 244 621 243 618 243 c 0
 610 243 602 244 598 244 c 2
 596 244 l 1
 595 243 593 242 591 242 c 0
 588 242 584 244 584 247 c 0
 584 248 585 249 585 250 c 0
 587 254 591 254 594 257 c 0
 610 273 634 285 664 285 c 2
 672 285 l 2
 685 285 700 278 706 277 c 0
 717 275 722 275 733 275 c 1
381 182 m 1
 381 184 l 2
 381 203 421 222 441 222 c 0
 460 222 493 214 493 203 c 1
 486 214 464 218 443 218 c 0
 419 218 388 200 381 182 c 1
388 164 m 1
 394 158 401 151 418 151 c 0
 453 151 475 176 485 188 c 1
 473 168 448 149 418 149 c 0
 405 149 393 155 388 164 c 1
460 209 m 0
 468 209 486 209 486 203 c 0
 486 196 456 176 443 171 c 0
 433 167 424 165 416 165 c 0
 404 165 394 169 387 178 c 0
 386 179 386 179 386 180 c 1
 381 176 375 171 362 165 c 1
 378 177 390 185 402 195 c 0
 413 204 439 209 460 209 c 0
623 78 m 1
 628 80 633 85 635 91 c 1
 635 86 632 78 623 78 c 1
614 84 m 1
 607 84 l 2
 600 84 592 83 590 74 c 0
 589 74 588 73 587 73 c 0
 585 73 584 74 584 78 c 0
 584 81 594 93 604 93 c 0
 613 93 617 89 617 88 c 0
 617 86 615 85 614 84 c 1
522 160 m 1
 524 150 527 141 527 135 c 0
 527 126 524 117 524 76 c 0
 524 66 528 58 541 58 c 0
 544 58 549 58 549 60 c 0
 549 62 538 64 538 66 c 0
 538 68 540 69 542 69 c 0
 552 69 560 58 575 58 c 0
 583 58 587 61 595 67 c 1
 593 63 591 54 577 54 c 0
 571 54 564 56 557 56 c 0
 553 56 544 45 536 45 c 0
 526 45 513 58 513 71 c 0
 513 97 519 104 519 130 c 0
 519 142 522 148 522 160 c 1
632 367 m 0
 658 367 684 362 696 351 c 1
 685 354 670 358 652 358 c 0
 609 358 565 332 552 314 c 0
 551 313 550 312 548 312 c 0
 545 312 540 314 540 319 c 0
 540 324 551 336 561 343 c 0
 574 352 612 367 632 367 c 0
344 240 m 1
 349 265 386 289 420 289 c 0
 453 289 481 251 486 234 c 1
 472 249 449 272 419 272 c 0
 385 272 355 257 344 240 c 1
411 573 m 1
 411 577 413 581 417 584 c 0
 436 603 459 618 484 628 c 0
 505 637 517 637 539 643 c 0
 558 648 580 653 602 653 c 0
 620 653 637 647 656 647 c 0
 673 647 682 641 695 637 c 0
 709 632 720 632 732 625 c 0
 748 615 750 614 777 608 c 1
 770 607 764 607 758 607 c 0
 745 607 736 609 727 609 c 0
 723 609 720 609 717 608 c 0
 686 602 675 607 639 585 c 1
 602 564 551 513 484 513 c 0
 467 513 454 511 444 503 c 1
 435 498 433 494 428 494 c 0
 409 494 412 491 401 477 c 0
 392 465 393 457 384 446 c 0
 376 436 372 433 360 423 c 0
 339 405 328 388 328 388 c 1
 328 393 331 402 336 408 c 0
 337.948740997 410.923111495 392.114364729 475.557084405 392.114364729 478.868237336 c 0
 392.114364729 478.955332748 392.076888505 479 392 479 c 0
 385 479 375 467 365 459 c 0
 355 451 351 444 343 435 c 1
 358 466 376 505 410 516 c 0
 418 519 425 520 425 522 c 0
 425 528 411 530 408 530 c 0
 401 530 394 527 387 524 c 0
 376 519 362 509 349 493 c 1
 354 505 355 513 362 524 c 0
 368 533 373 537 383 543 c 0
 391 547 396 547 396 554 c 0
 396 558 393 559 389 559 c 0
 387 559 384 559 382 558 c 0
 346 544 328 514 303 488 c 0
 294 479 288 475 279 467 c 1
 304 510 328 558 380 575 c 0
 384 576 388 577 392 577 c 0
 398 577 411 573 411 573 c 1
934 354 m 0
 959 354 977 340 977 313 c 0
 977 305 975 297 970 288 c 0
 956 265 944 250 919 240 c 1
 931.25 258.375 932.015625 269.859375 932.015625 286.51171875 c 0
 932.015625 288.890625 932 291.375 932 294 c 0
 932 308 926 318 914 326 c 0
 899 336 887 333 870 337 c 0
 856 340 851 349 840 357 c 0
 825 367 819 379 802 384 c 0
 776 392 760 395 734 405 c 0
 718 411 711 416 697 425 c 1
 690 438 685 444 678 453 c 1
 700 443 714 438 738 432 c 0
 753 428 759 424 775 424 c 0
 776 424 777 425 779 425 c 0
 791 425 804 419 815 412 c 0
 843 396 834 388 851 374 c 0
 861 366 866 358 878 355 c 0
 891 352 900 351 907 351 c 0
 920 351 925 354 934 354 c 0
868 524 m 0
 930 524 957 585 980 625 c 1
 980 622 946 553 919 530 c 0
 896 511 872 508 841 508 c 0
 824 508 829 516 810 516 c 0
 804 516 799 515 794 515 c 0
 784 515 776 516 764 519 c 0
 747 523 740 533 723 537 c 0
 712 540 701 541 690 541 c 0
 664 541 638 534 613 530 c 0
 592 526 585 519 560 519 c 1
 583 530 595 535 618 548 c 0
 643 562 664 573 687 573 c 0
 714 573 730 559 757 555 c 0
 781 552 796 547 816 537 c 0
 835 528 840 524 868 524 c 0
957 176 m 0
 972 176 981 166 981 155 c 3
 981 119 937 111 929 110 c 1
 931 113 953 126 953 149 c 0
 953 162 941 168 928 168 c 0
 920 168 910 159 898 159 c 0
 883 159 872 169 872 182 c 0
 872 218 901 227 908 232 c 1
 908 222 906 212 906 202 c 0
 906 196 907 190 909 184 c 0
 913 173 916 171 922 171 c 0
 932 171 944 176 957 176 c 0
214 369 m 1
 209 362 204 357 202 341 c 1
 202 367 215 388 229 402 c 0
 239 412 254 417 260 422 c 0
 274 432 283 437 295 449 c 0
 316 469 314 469 328 492 c 1
 329 486 329 482 329 477 c 0
 329 459 324 448 316 430 c 0
 310 416 301 410 289 400 c 0
 275 388 263 386 251 372 c 0
 240 359 229 349 229 327 c 2
 229 306 l 1
 214 314 206 317 206 338 c 0
 206 351 209 358 214 369 c 1
532 622 m 1
 506 619 500 611 481 601 c 0
 468 594 462 589 452 579 c 0
 447 574 439 567 439 559 c 0
 439 556 440 554 442 551 c 1
 454 566 462 574 478 586 c 0
 499 602 498 604 532 622 c 1
659 631 m 1
 651 633 643 634 635 634 c 0
 597 634 582 615 562 604 c 0
 543 593 516 589 510 566 c 1
 516 562 523 559 529 559 c 0
 551 559 572 583 583 593 c 0
 592 602 595 611 606 617 c 0
 617 623 637 631 659 631 c 1
552 502 m 1
 540 491 517 477 492 477 c 0
 480 477 468 481 464 487 c 1
 473 485 478 482 487 482 c 0
 517 482 527 494 552 502 c 1
787 463 m 1
 815 468 830 468 858 476 c 0
 870 479 883 486 900 490 c 0
 915 494 930 496 940 496 c 0
 955 496 967 493 977 486 c 1
 964 469 954 458 937 444 c 0
 918 429 897 424 870 417 c 1
 866 425 866 430 859 436 c 0
 842 451 814 463 787 463 c 1
599 509 m 1
 605 511 613 513 622 513 c 0
 629 513 633 509 639 507 c 0
 650 504 660 508 675 499 c 0
 684 493 689 489 696 481 c 0
 701 475 701 469 705 462 c 1
 694 466 682 470 668 470 c 1
 649 485 628 505 599 509 c 1
390 182 m 1
 398 174 403 167 415 167 c 0
 422 167 430 169 437 171 c 1
 432 171 l 2
 420 171 410 181 410 194 c 2
 410 196 l 1
 403 193 396 188 390 182 c 1
591 249 m 0
 591 244 598 245 607 245 c 0
 616 245 628 246 637 246 c 0
 639 246 642 247 645 247 c 1
 633 247 623 257 623 269 c 2
 623 271 l 1
 611 266 601 259 591 251 c 0
 590 251 591 250 591 249 c 0
441 173 m 1
 453 179 482 193 482 202 c 0
 482 204 480 205 477 205 c 2
 452 205 l 1
 454 202 454 198 454 194 c 0
 454 184 449 177 441 173 c 1
EndSplineSet
EndChar
StartChar: u1F51D
Encoding: 128285 128285 3116
Width: 1270
Flags: MW
LayerCount: 3
Fore
SplineSet
588 544.805 m 1
 600.289 554.433 611.707 565.604 622 576.5 c 0
 628 583.649 629 583.649 635 583.649 c 0
 641 583.649 643 582 648 577.05 c 0
 658.293 566.152 669.711 554.983 682 545.354 c 1
 682 283 l 2
 682 277 687 269 693 269 c 0
 694 269 695 270 696 270 c 0
 712 276 728 284 728 301 c 2
 728 511.664 l 1
 752.068 496.803 776.725 483.577 804 472 c 0
 806.062 471.125 807 471 808 471 c 0
 813 471 815 475 815 481 c 0
 815 490 810 502 804 508 c 0
 745 565 688 622 648 699 c 0
 643 708 641 711 635 711 c 0
 629 711 628 711 622 698 c 0
 582 621 525 564 466 507 c 0
 460 501 455 489 455 480 c 0
 455 474 457 470 462 470 c 0
 463 470 463.727 470.035 466 471 c 0
 493.274 482.577 517.932 496.253 542 511.113 c 1
 542 283 l 2
 542 277 547 269 553 269 c 0
 554 269 555 270 556 270 c 0
 572 276 588 284 588 301 c 2
 588 544.805 l 1
EndSplineSet
Refer: 1347 -1 N 1 0 0 1 908.89 -50 2
Refer: 1346 -1 N 1 0 0 1 400.89 -50 2
Refer: 1351 -1 N 1 0 0 1 0 -50 2
EndChar
StartChar: u1F5FA
Encoding: 128506 128506 3132
Width: 2481
Flags: MW
LayerCount: 3
Fore
SplineSet
1930.76 100.843 m 24
 1931.99 96.3141 1922.94 99.8431 1926.72 102.676 c 24
 1928.1 103.713 1930.3 102.51 1930.76 100.843 c 24
1270.06 314.16 m 0
 1263.24 316.717 1283.23 321.225 1279.76 317.298 c 24
 1277.13 314.318 1272.34 313.306 1270.06 314.16 c 0
1261.5 342.684 m 24
 1255.08 340.434 1257.27 351.306 1262.93 347.531 c 24
 1264.57 346.438 1263.37 343.334 1261.5 342.684 c 24
1247.24 311.022 m 0
 1245.25 312.449 1250.66 316.932 1254.38 318.439 c 24
 1256.05 319.119 1259.05 316.606 1257.8 315.302 c 24
 1254.72 312.1 1249.24 309.597 1247.24 311.022 c 0
2349.38 213.077 m 24
 2347.91 216.454 2354.94 218.549 2358.11 216.672 c 24
 2362.43 214.111 2367.88 206.775 2363.24 204.863 c 24
 2357.43 202.471 2351.88 207.313 2349.38 213.077 c 24
2326.79 221.292 m 24
 2325.41 226.105 2329.49 231.799 2334.49 231.561 c 24
 2338.86 231.353 2340.19 224.278 2337.57 220.778 c 24
 2335.04 217.41 2327.95 217.245 2326.79 221.292 c 24
1744.87 329.909 m 0
 1744.91 323.74 1739.77 323.542 1740.7 319.133 c 24
 1741.29 316.299 1745.44 318.419 1747.67 316.565 c 24
 1750.81 313.947 1750.43 310.292 1753.9 308.131 c 24
 1757.35 305.981 1760.69 308.407 1764.17 306.298 c 24
 1769.79 302.888 1771.51 299.098 1776.27 294.562 c 24
 1783.67 287.513 1785.55 279.52 1795.34 276.594 c 24
 1801.08 274.878 1802.83 282.325 1808.17 285.028 c 24
 1815.9 288.934 1820.29 291.44 1828.71 293.461 c 24
 1834.83 294.93 1843.8 291.397 1844.84 293.829 c 0
 1848.78 303.006 1856.81 288.802 1858.05 285.028 c 24
 1859.43 280.812 1856.17 277.488 1858.42 273.659 c 24
 1861.1 269.066 1867.77 270.652 1869.42 265.592 c 24
 1870.45 262.403 1864.55 262.96 1862.81 260.091 c 24
 1859.82 255.133 1862 250.018 1857.68 246.155 c 24
 1855.09 243.835 1850.79 249.94 1848.88 247.622 c 0
 1843.74 241.388 1840.81 235.521 1833.48 240.655 c 0
 1830.2 242.948 1818.6 222.905 1814.78 220.119 c 24
 1811.49 217.723 1807.52 221.013 1804.51 218.285 c 24
 1799.37 213.646 1802.02 205.719 1795.71 202.883 c 24
 1787.22 199.07 1781.16 203.284 1771.87 203.616 c 24
 1765.15 203.855 1760.14 200.479 1754.63 204.35 c 24
 1742.03 213.213 1739.2 222.883 1728.6 234.054 c 24
 1723.02 239.928 1717.9 241.397 1713.19 247.989 c 24
 1711.1 250.92 1714.18 254.223 1712.09 257.156 c 24
 1705.41 266.555 1698.7 269.374 1691.56 278.428 c 24
 1688.43 282.395 1689.42 286.384 1686.06 290.162 c 24
 1683.38 293.174 1678.79 291.373 1676.89 294.929 c 24
 1673.13 301.984 1674.39 311.848 1672.49 320.233 c 17
 1670.01 317.444 1668.65 312.823 1664.42 312.898 c 9
 1658.19 323.166 l 17
 1655.99 317.666 1655.99 316.933 1660.3 307.581 c 0
 1664.21 299.12 1664.29 293.539 1667.64 284.845 c 24
 1673.07 270.732 1679.36 256.01 1687.81 244.139 c 24
 1692.91 236.958 1698.39 234.878 1702.84 227.27 c 24
 1704.23 224.895 1699.61 222.044 1701.74 220.302 c 24
 1705.82 216.962 1711.15 221.038 1714.94 217.368 c 24
 1721.19 211.314 1718.9 203.551 1725.21 197.566 c 24
 1728.35 194.585 1733.4 197.23 1736.21 197.199 c 24
 1744.65 197.104 1749.5 198.4 1757.85 197.199 c 24
 1764.59 196.228 1767.67 192.516 1774.44 191.697 c 24
 1781.46 190.848 1804.59 198.381 1797.54 183.263 c 0
 1790.61 168.403 1783.82 156.271 1772.24 146.041 c 24
 1758.82 134.195 1740.63 127.814 1728.23 114.871 c 24
 1724.81 111.303 1726.65 106.909 1723.46 103.135 c 24
 1720.86 100.057 1716.54 101.714 1714.29 98.3682 c 24
 1704.92 84.4233 1707.88 65.7484 1702.92 48.8613 c 24
 1701.39 43.6084 1696.51 42.4463 1695.22 37.127 c 24
 1694.07 32.3496 1698.03 29.4746 1697.06 24.6572 c 24
 1694.57 12.3911 1684.02 0.769281 1672.85 -2.47949 c 24
 1668.08 -3.87012 1665.72 1.77539 1660.75 1.55469 c 24
 1649.66 1.05747 1663.03 -10.6759 1662.95 -13.4805 c 24
 1662.76 -20.3906 1658.44 -23.3047 1655.62 -29.6162 c 24
 1652.43 -36.749 1648.8 -40.2412 1647.55 -47.9521 c 24
 1646.83 -52.375 1651.57 -54.5332 1650.85 -58.9541 c 24
 1649.84 -65.181 1634.17 -67.0019 1629.58 -70.3223 c 24
 1625.29 -73.4248 1623.55 -76.2402 1621.15 -80.9561 c 24
 1619.43 -84.332 1622.31 -88.1787 1619.31 -90.4912 c 24
 1615.92 -93.1133 1612.54 -90.1318 1608.31 -90.8584 c 24
 1603.32 -91.7168 1600.22 -91.9639 1595.84 -94.5264 c 24
 1589.98 -97.959 1588.43 -102.333 1582.64 -105.894 c 24
 1578.94 -108.17 1575.88 -107.231 1572.01 -109.193 c 24
 1559.23 -115.67 1548.47 -125.522 1534.6 -130.831 c 24
 1523.1 -135.236 1515.05 -123.388 1512.23 -115.429 c 24
 1510.34 -110.086 1517.17 -106.272 1514.8 -101.127 c 24
 1512.78 -96.7607 1504.78 -100.974 1503.43 -96.3584 c 24
 1501.29 -89.0332 1503.29 -83.4287 1507.83 -77.29 c 24
 1509.77 -74.667 1512.83 -80.6045 1515.9 -79.4902 c 24
 1517.78 -78.8057 1517.12 -75.9453 1515.9 -74.3564 c 24
 1513.46 -71.1758 1508.62 -72.3262 1507.46 -68.4883 c 24
 1502.76 -52.8005 1507.52 -34.788 1504.53 -17.5156 c 24
 1504.07 -14.8555 1503.2 -13.002 1500.86 -11.6465 c 24
 1498.25 -10.1328 1494.63 -13.5479 1493.16 -10.9131 c 24
 1486.57 0.892252 1493.73 9.40311 1504.17 11.4561 c 24
 1508.25 12.2598 1511.66 5.41602 1514.43 8.52246 c 24
 1517.87 12.377 1513.87 16.5859 1513.33 21.7246 c 24
 1512.72 27.5996 1514.26 31.5361 1511.5 36.7598 c 24
 1508.61 42.2197 1501.72 41.5352 1499.76 47.3945 c 24
 1497.66 53.707 1497.13 60.1055 1502.33 64.2637 c 0
 1504.17 65.7305 1512.17 64.7109 1518.47 64.9971 c 17
 1512.96 68.6641 1507.46 72.3311 1499.03 71.5977 c 0
 1492.08 70.9932 1488.33 73.9463 1481.79 76.3652 c 24
 1474.4 79.0993 1465.89 84.6981 1468.59 94.335 c 24
 1470.03 99.4577 1484.02 102.574 1483.63 107.536 c 24
 1483.4 110.423 1477.87 108.713 1477.39 111.57 c 24
 1476.37 117.74 1479.44 121.146 1480.33 127.339 c 24
 1481.47 135.322 1479.13 144.965 1482.89 150.442 c 24
 1486.78 156.1 1491.42 157.001 1497.2 160.71 c 24
 1503.02 164.448 1501.42 168.534 1512.6 169.512 c 0
 1516.43 169.848 1521.4 173.18 1509.67 172.812 c 0
 1502.8 172.598 1498.96 171.293 1492.43 169.145 c 24
 1487.99 167.686 1486.46 163.741 1481.79 163.645 c 24
 1472.04 163.44 1465.98 164.096 1457.22 168.411 c 24
 1454.36 169.825 1455.76 173.281 1455.76 176.479 c 0
 1455.76 188.012 1445.48 173.378 1441.09 173.18 c 24
 1437.1 172.997 1434.2 173.137 1431.19 175.746 c 24
 1428.27 178.265 1431.37 185.088 1427.52 184.914 c 24
 1423.43 184.728 1426.36 177.88 1423.12 175.379 c 24
 1418.85 172.093 1414.52 174.14 1409.92 171.346 c 24
 1406.19 169.083 1406.14 165.431 1402.58 162.911 c 24
 1399.07 160.423 1395.71 161.523 1392.32 158.876 c 24
 1389.68 156.818 1386.67 144.937 1380.21 149.342 c 24
 1377.84 150.961 1382.05 155.391 1379.48 156.677 c 24
 1365.43 163.7 1353.51 151.388 1341.34 151.175 c 24
 1333.15 151.032 1327.63 152.005 1321.17 157.043 c 24
 1318.52 159.113 1324.51 162.466 1323 165.479 c 24
 1320.29 170.908 1316.94 173.153 1311.64 176.112 c 24
 1304.37 180.168 1294.78 175.446 1291.47 183.08 c 24
 1285.7 196.354 1306.65 210.106 1314.57 217.185 c 24
 1319.48 221.569 1320.72 226.711 1327.04 228.554 c 24
 1332.43 230.126 1340.24 228.554 1340.97 224.886 c 0
 1341.64 221.542 1344.66 220.119 1348.31 220.119 c 0
 1365.5 220.119 1349.59 198.409 1361.88 197.382 c 24
 1367.13 196.944 1369.84 199.697 1375.08 200.316 c 24
 1383.19 201.275 1388.14 199.141 1395.98 201.417 c 24
 1401.92 203.142 1403.39 208.054 1409.18 210.217 c 24
 1414.44 212.179 1417.98 210.653 1423.49 211.685 c 24
 1435.59 213.948 1435.22 217.918 1454.29 218.651 c 1
 1441.82 224.52 1435.07 216.066 1422.75 214.617 c 24
 1415.62 213.778 1411.34 214.728 1404.42 212.784 c 24
 1398.38 211.089 1397.82 205.083 1390.12 205.45 c 0
 1380.36 205.914 1372.87 201.223 1362.24 203.616 c 24
 1359.23 204.295 1365.17 208.429 1364.08 211.317 c 24
 1359.46 223.56 1344.08 231.537 1330.71 233.32 c 24
 1320.82 234.639 1314.96 232.5 1305.4 229.654 c 24
 1294.6 226.437 1290.24 217.065 1279 217.918 c 24
 1269.25 218.659 1281.37 240.887 1280.47 243.223 c 24
 1277.3 251.379 1257.74 249.803 1255.9 260.091 c 24
 1254.5 267.839 1259.8 271.992 1264.33 278.428 c 24
 1270.51 287.195 1274.53 292.056 1283.03 298.597 c 24
 1291.5 305.11 1298.07 305.934 1307.24 311.432 c 24
 1310.99 313.684 1313.97 314.541 1316.04 318.399 c 24
 1318.78 323.509 1312.13 331.182 1313.84 336.734 c 24
 1315.56 342.348 1320.39 343.644 1322.27 349.204 c 24
 1323.67 353.315 1318.29 364.285 1325.21 365.706 c 24
 1329.46 366.579 1331.57 363.171 1335.84 362.404 c 24
 1341.21 361.443 1344.73 363.372 1349.78 361.306 c 24
 1353.99 359.578 1353.72 353.957 1358.21 353.237 c 24
 1370.22 351.319 1368 367.811 1373.98 370.105 c 24
 1381.61 373.032 1387.16 371.312 1394.88 368.64 c 24
 1398.79 367.287 1402.78 353.8 1410.28 361.306 c 24
 1412.01 363.027 1407.53 367.051 1409.92 367.539 c 24
 1416.32 368.849 1419.89 364.354 1426.42 364.605 c 24
 1431.39 364.796 1433.62 369.473 1438.52 368.64 c 24
 1442.51 367.963 1443 364.166 1445.86 361.306 c 24
 1450 357.158 1454.42 356.159 1456.49 350.67 c 24
 1458.81 344.531 1447.83 330.805 1451.72 328.3 c 24
 1455.21 326.058 1456.01 333.273 1459.42 335.635 c 24
 1465.88 340.1 1476.43 346.003 1485.09 338.936 c 24
 1487.76 336.764 1481.56 331.455 1484.73 330.134 c 24
 1489.75 328.039 1493.22 335.4 1498.3 333.435 c 24
 1507.99 329.682 1517.55 308.204 1533.14 315.832 c 24
 1540.73 319.548 1532.88 338.09 1539.37 343.336 c 24
 1543.77 346.894 1547.74 340.348 1553.3 339.302 c 24
 1562.23 337.623 1567.54 338.339 1576.41 336.368 c 24
 1581.8 335.17 1584.08 331.234 1589.61 331.234 c 24
 1593.71 331.234 1594.72 335.798 1598.78 336.368 c 24
 1604.35 337.15 1607.46 334.665 1613.08 334.535 c 24
 1619.65 334.382 1638.53 338.826 1640.22 334.168 c 24
 1643.92 323.945 1640.68 317.167 1640.95 306.298 c 24
 1641.19 296.639 1641.67 287.662 1640.22 278.793 c 24
 1639.62 275.165 1636.27 272.863 1638.02 269.626 c 24
 1639.69 266.517 1650.76 271.952 1651.22 269.259 c 24
 1653.72 254.662 1636.85 249.62 1629.58 242.122 c 24
 1628.16 240.65 1625.35 237.608 1627.38 237.354 c 24
 1633.05 236.646 1638.79 245.19 1644.25 246.522 c 24
 1646.68 247.114 1648.12 244.265 1650.49 245.056 c 24
 1655.08 246.585 1655.99 252.874 1660.75 252.022 c 24
 1667.64 250.795 1648.54 215.006 1648.28 212.051 c 24
 1647.82 206.625 1653.4 204.647 1653.79 199.216 c 24
 1654.46 189.676 1637.9 183.095 1632.88 177.579 c 24
 1628.48 172.733 1627.16 169.061 1624.08 163.277 c 0
 1608.68 134.307 1607.58 119.638 1618.95 140.907 c 0
 1623.14 148.759 1624.87 153.521 1628.12 161.811 c 0
 1631.42 170.245 1633.62 168.151 1637.28 172.079 c 24
 1639.24 174.173 1664.12 203.634 1668.45 191.882 c 24
 1671.07 184.77 1661.2 175.368 1662.59 166.577 c 24
 1663.21 162.619 1670.65 147.509 1668.45 158.143 c 0
 1666.72 166.541 1668.32 186.285 1673.22 184.914 c 24
 1677.53 183.707 1676.58 178.757 1678.36 174.646 c 24
 1680.16 170.449 1682.54 172.818 1682.39 163.645 c 0
 1682.02 141.641 1688 168.648 1686.06 171.346 c 0
 1681.29 177.946 1679.82 179.047 1679.09 187.113 c 0
 1678.11 197.897 1666.35 192.971 1660.75 197.016 c 24
 1657.7 199.222 1664.81 216.748 1665.15 221.219 c 24
 1665.63 227.376 1663.81 230.812 1663.69 236.987 c 24
 1663.52 245 1669.93 251.705 1664.42 257.523 c 24
 1660.28 261.89 1655.25 247.257 1650.49 250.924 c 24
 1645.97 254.397 1654.71 259.161 1654.88 264.857 c 24
 1655.01 269.108 1654.33 272.226 1651.22 275.126 c 24
 1649.13 277.077 1644.95 272.47 1643.88 275.126 c 24
 1642 279.841 1645.71 282.897 1646.08 287.961 c 24
 1647.03 300.75 1643.71 312.813 1645.35 324.267 c 24
 1645.9 328.13 1651.97 333.742 1655.25 335.268 c 24
 1656.94 336.052 1659.17 333.613 1660.02 335.268 c 24
 1666.47 347.838 1658.33 353.016 1654.88 362.404 c 24
 1653.75 365.503 1655.53 376.203 1654.15 376.708 c 24
 1648.26 378.863 1644.33 377.221 1638.07 376.73 c 24
 1634.8 376.474 1633.08 374.053 1629.89 374.805 c 24
 1624.24 376.136 1622.32 384.405 1615.77 378.655 c 24
 1614.63 377.65 1615.96 375.346 1614.49 374.966 c 24
 1608.08 373.314 1597.68 377.438 1592.83 374.645 c 24
 1590.12 373.087 1590.97 365.998 1588.5 367.906 c 24
 1585.06 370.561 1589.37 375.202 1587.21 378.977 c 24
 1584.08 384.471 1578.43 384.677 1575.66 390.367 c 24
 1574.54 392.686 1579.14 393.58 1578.87 396.144 c 24
 1578.6 398.701 1574.46 398.546 1574.54 401.117 c 24
 1574.62 403.864 1577.92 403.975 1579.19 406.411 c 24
 1580.86 409.604 1579.4 412.666 1581.92 415.235 c 24
 1583.59 416.933 1585.7 414.857 1588.02 415.396 c 24
 1591.97 416.313 1593.75 418.697 1597.8 418.926 c 24
 1601.85 419.154 1603.86 416.455 1607.91 416.52 c 24
 1612.05 416.584 1614.04 419.274 1618.18 419.247 c 24
 1623.98 419.209 1626.97 416.33 1632.78 416.358 c 24
 1639.95 416.394 1643.84 418.211 1650.91 419.407 c 24
 1656.79 420.401 1658.45 415.557 1665.99 421.975 c 0
 1673.93 428.733 1669.36 436.079 1662.14 439.783 c 0
 1650.97 445.513 1641.66 439.416 1637.27 443.409 c 0
 1634.69 445.752 1632.72 446.85 1629.29 447.402 c 24
 1623.02 448.408 1614.17 442.305 1609.32 448.543 c 24
 1607.43 450.973 1614.79 450.644 1615.31 453.677 c 24
 1616.66 461.594 1599.29 463.251 1595.91 458.812 c 24
 1591.98 453.637 1603.33 451.44 1603.33 449.113 c 24
 1603.33 446.306 1599.98 446.089 1597.34 445.121 c 24
 1591.08 442.824 1586.65 437.65 1580.8 440.842 c 24
 1576.75 443.047 1585.62 446.27 1587.93 450.255 c 0
 1591.06 455.674 1585.78 452.284 1584.22 451.966 c 24
 1579.93 451.09 1577.22 444.483 1573.95 447.402 c 24
 1568.23 452.512 1572.17 459.638 1568.25 466.228 c 24
 1567.07 468.197 1566.66 462.991 1565.97 460.808 c 24
 1564.88 457.416 1567.04 453.164 1563.68 451.966 c 24
 1558.52 450.124 1555.27 456.561 1549.99 455.104 c 24
 1547.36 454.378 1562.73 446.313 1561.69 443.125 c 24
 1560.18 438.517 1555.88 437.552 1551.13 436.564 c 0
 1544.29 435.138 1541.72 432 1555.13 434.854 c 0
 1566.43 437.255 1583.21 409.911 1562.54 409.468 c 24
 1559.61 409.404 1562.21 415.45 1559.41 416.312 c 24
 1554.96 417.679 1550.67 417.617 1547.71 414.03 c 24
 1545.65 411.534 1552.1 409.774 1551.42 406.616 c 24
 1550.7 403.302 1548.08 399.866 1544.86 400.91 c 24
 1538.04 403.12 1538.31 412.626 1531.17 413.175 c 24
 1526.62 413.524 1531.33 405.64 1533.73 401.767 c 0
 1548.28 378.379 1550.28 391.214 1553.13 384.653 c 0
 1554.78 380.856 1544.86 384.083 1542.58 383.513 c 0
 1537.05 382.131 1548.05 374.444 1545.71 369.251 c 24
 1543.92 365.266 1538.9 364.686 1534.88 366.398 c 24
 1531.12 367.996 1530.39 371.731 1530.31 375.812 c 24
 1530.26 378.772 1535.6 379.303 1534.59 382.086 c 24
 1534.04 383.604 1520.02 381.909 1517.19 386.935 c 0
 1512.06 396.062 1509.49 391.784 1502.93 396.062 c 0
 1498.69 398.829 1500.74 416.506 1491.24 414.317 c 0
 1483.82 412.604 1481.54 410.606 1478.97 416.025 c 0
 1478.02 418.029 1479.26 422.873 1475.26 423.158 c 0
 1469.85 423.546 1467.68 424.406 1465.28 428.007 c 0
 1461.86 433.141 1458.17 433.766 1452.73 435.424 c 24
 1448.69 436.655 1446.09 434.672 1441.89 435.138 c 24
 1439.96 435.352 1439.09 437.953 1437.33 437.135 c 24
 1425.45 431.611 1444.25 425.793 1448.74 423.443 c 24
 1456.93 419.15 1462.16 417.756 1469.84 412.604 c 24
 1473.12 410.409 1473.06 407.001 1476.4 404.903 c 24
 1479.08 403.222 1481.9 405.427 1484.39 403.478 c 24
 1487.6 400.968 1497.84 386.987 1486.1 392.354 c 24
 1483.87 393.372 1483.76 399.009 1482.11 397.202 c 24
 1477.33 391.991 1488.1 384.852 1488.1 380.66 c 24
 1488.1 377.667 1485.86 374.193 1482.96 374.955 c 24
 1480.27 375.664 1483.97 379.618 1482.68 382.086 c 24
 1481.08 385.157 1478.22 385.322 1476.12 388.075 c 24
 1473.49 391.519 1473.71 394.657 1470.7 397.772 c 24
 1464.65 404.037 1457.6 405.976 1447.03 407.187 c 24
 1444.26 407.501 1442.44 406.056 1439.9 407.187 c 24
 1437.02 408.463 1436.81 411.145 1434.19 412.891 c 24
 1429.72 415.87 1426.79 416.878 1421.93 419.165 c 24
 1419.22 420.439 1417.66 422.884 1414.79 422.018 c 24
 1411.69 421.076 1412.16 417.533 1409.66 415.458 c 24
 1406.83 413.106 1405.06 411.308 1401.4 410.894 c 24
 1398.53 410.568 1397.42 413.328 1394.56 413.745 c 24
 1391.89 414.134 1390.31 412.183 1387.71 412.891 c 24
 1385.03 413.621 1384.73 416.613 1382.01 417.168 c 24
 1378.28 417.928 1375.17 418.541 1372.31 416.028 c 24
 1370.22 414.19 1373.17 411.619 1372.59 408.897 c 24
 1369.78 395.614 1361.96 392.162 1351.77 386.08 c 24
 1347.74 383.673 1345.85 381.584 1341.5 379.804 c 24
 1336.51 377.758 1332.89 378.862 1328.1 376.382 c 24
 1326.2 375.397 1327.57 372.186 1325.53 371.532 c 24
 1323.59 370.91 1322.98 373.72 1320.97 374.1 c 24
 1316.71 374.904 1312.93 371.77 1310.7 376.952 c 24
 1308.3 382.527 1306.64 386.008 1306.99 392.068 c 0
 1307.56 401.767 1311.27 399.087 1311.27 404.049 c 24
 1311.27 410.282 1304.99 413.546 1306.99 419.451 c 24
 1308.21 423.038 1313.27 421.446 1316.69 420.021 c 0
 1320.58 418.402 1323.25 419.165 1327.24 422.303 c 0
 1330.83 425.123 1346.01 415.333 1347.5 424.014 c 24
 1350.11 439.436 1330.07 439.951 1321.82 447.117 c 24
 1319.08 449.5 1315.16 452.648 1317.54 455.39 c 24
 1320.14 458.369 1323.58 453.56 1327.53 453.677 c 24
 1331.2 453.786 1333.69 453.805 1336.66 455.96 c 24
 1339.78 458.224 1338.36 463.18 1342.08 464.231 c 24
 1346.65 465.525 1349.17 459.627 1353.77 460.808 c 24
 1356.15 461.418 1351.91 464.988 1353.2 467.083 c 24
 1355.26 470.454 1363.8 468.262 1364.32 469.649 c 24
 1365.79 473.521 1359.72 477.93 1363.18 480.203 c 24
 1367.03 482.734 1371.65 472.441 1374.31 476.21 c 24
 1377.23 480.36 1367.92 482.876 1368.6 487.904 c 24
 1369.1 491.573 1370.88 493.567 1376.59 493.039 c 0
 1379.77 492.743 1381.88 487.369 1386.85 485.012 c 0
 1411.21 473.474 1370.86 498.5 1369.74 502.695 c 0
 1368.6 506.975 1363.77 506.534 1363.47 510.396 c 24
 1363.02 516.112 1363.22 521.256 1368.03 524.372 c 24
 1371.06 526.334 1372.88 521.234 1373.16 516.672 c 0
 1373.47 511.807 1372.31 508.686 1380.01 503.836 c 0
 1388.07 498.757 1394.37 494.245 1406.25 493.854 c 24
 1409.81 493.737 1412.06 492.563 1415.38 493.854 c 24
 1421.29 496.151 1425.14 509.24 1431.63 508.115 c 24
 1436.2 507.325 1433.36 500.692 1436.48 497.276 c 24
 1438.55 495.018 1441.79 492.497 1443.9 494.71 c 24
 1446.38 497.302 1440.71 500.892 1442.76 503.836 c 24
 1444.37 506.151 1459.51 491.08 1450.46 508.686 c 0
 1447.78 513.906 1448.22 517.656 1447.89 523.518 c 0
 1447.61 528.651 1461.87 522.091 1450.46 532.358 c 0
 1444.87 537.392 1439.34 540.002 1438.48 547.476 c 24
 1437.89 552.636 1443.72 553.732 1447.61 557.173 c 24
 1449.55 558.893 1450.82 561.31 1453.31 560.596 c 24
 1457.48 559.405 1457.47 551.811 1461.58 553.181 c 24
 1465.66 554.54 1466.05 560.501 1463.58 564.02 c 24
 1454.62 576.789 1440.74 565.3 1432.21 560.025 c 24
 1427.58 557.168 1420.06 544.881 1417.95 556.889 c 24
 1415.84 568.83 1422.02 579.624 1419.37 589.119 c 24
 1418.26 593.104 1414.61 597.053 1410.81 595.394 c 24
 1403 591.973 1405.28 573.624 1405.11 563.733 c 24
 1405.01 558.062 1403.62 554.66 1405.11 549.188 c 24
 1405.8 546.673 1409.51 547.409 1410.24 544.908 c 24
 1410.89 542.708 1406.59 541.323 1407.96 539.489 c 24
 1409.99 536.787 1415.24 540.15 1416.23 536.923 c 24
 1417.36 533.256 1411.86 532.172 1411.38 528.365 c 24
 1410.9 524.483 1414.9 522.463 1413.95 518.668 c 24
 1412.8 514.054 1402.75 507.814 1397.41 512.108 c 24
 1391.82 516.603 1395.07 527.504 1386.85 531.219 c 24
 1380.33 534.168 1382.58 535.212 1368.88 534.925 c 0
 1365.41 534.852 1365.39 541.545 1362.04 540.63 c 24
 1358.78 539.741 1362.42 534.005 1359.47 532.358 c 24
 1349.54 526.811 1338.08 544.704 1335.23 550.328 c 24
 1334.26 552.235 1337.96 553.181 1340.08 552.896 c 24
 1344.32 552.323 1347.25 545.1 1350.06 548.331 c 24
 1353.11 551.84 1345.69 554.808 1345.78 559.455 c 24
 1345.83 561.973 1352.05 562.163 1350.35 564.02 c 0
 1347.21 567.441 1345.21 572.575 1342.36 572.861 c 0
 1337.27 573.368 1335.73 560.18 1331.81 560.882 c 24
 1316.83 563.555 1341.98 589.139 1343.5 592.827 c 24
 1346.33 599.693 1328.07 607.732 1332.66 611.651 c 24
 1336.56 614.979 1341.33 609.972 1345.78 612.507 c 24
 1348.91 614.284 1345.71 620.227 1349.2 621.062 c 24
 1353.42 622.07 1354.62 616.292 1358.9 615.645 c 24
 1364.66 614.774 1367.95 616.7 1373.74 617.356 c 24
 1378.74 617.923 1381.83 617.083 1386.57 618.781 c 24
 1389.61 619.872 1389.66 623.64 1392.84 624.201 c 24
 1394.78 624.544 1394.31 620.652 1396.27 620.494 c 24
 1403.79 619.886 1426.02 630.553 1430.21 625.912 c 24
 1432.61 623.259 1426.93 619.412 1429.35 616.785 c 24
 1432.34 613.546 1436.22 615.918 1440.48 614.789 c 24
 1445.48 613.463 1448.31 612.62 1453.03 610.511 c 24
 1458.8 607.932 1461.24 604.631 1467.29 602.81 c 24
 1474.04 600.777 1478.39 602.416 1485.26 600.812 c 24
 1491.84 599.277 1495.16 597.122 1501.52 594.823 c 24
 1506.56 592.999 1523.88 590.155 1511.21 584.27 c 24
 1506.93 582.282 1503.31 584.937 1499.23 582.559 c 24
 1495.96 580.645 1497.83 574.98 1494.1 574.287 c 24
 1488.15 573.182 1484.79 576.373 1479.27 578.852 c 24
 1472.81 581.748 1468.77 583.165 1463.58 587.978 c 24
 1462.03 589.415 1465.19 592.031 1463.58 593.397 c 24
 1457.67 598.41 1442.78 608.511 1433.92 599.958 c 24
 1431.01 597.146 1446.09 589.536 1449.32 588.264 c 24
 1452.26 587.104 1454.7 588.632 1457.31 586.837 c 24
 1461.85 583.709 1462.13 579.343 1466.72 576.284 c 24
 1473.95 571.464 1484.53 572.884 1492.1 567.727 c 24
 1495.52 565.398 1494.91 561.427 1498.38 559.17 c 24
 1504.49 555.193 1508.79 554.396 1515.78 552.325 c 24
 1520.86 550.818 1524.05 548.701 1529.18 550.042 c 24
 1532.5 550.91 1531.08 556.065 1534.32 557.173 c 24
 1539.45 558.929 1556.23 553.445 1554.85 562.877 c 24
 1554.28 566.819 1552.8 571.744 1548.86 571.15 c 24
 1543.48 570.337 1545.11 561.451 1539.74 560.596 c 24
 1531.26 559.248 1513.35 570.278 1525.19 579.992 c 24
 1529.08 583.178 1533.03 578.296 1538.02 578.852 c 24
 1547.43 579.889 1522.48 591.099 1527.76 595.394 c 24
 1537.79 603.556 1550.16 596.329 1557.13 590.83 c 24
 1559.9 588.653 1558.81 584.062 1562.27 583.414 c 24
 1566.04 582.707 1567.59 586.21 1570.83 588.264 c 24
 1575.49 591.22 1577.52 593.907 1582.52 596.249 c 24
 1586.45 598.092 1589.26 597.378 1593.36 598.815 c 24
 1595.66 599.624 1596.39 602.469 1598.78 601.954 c 24
 1604.47 600.728 1606.53 597.089 1611.9 594.823 c 24
 1623.96 589.731 1636.49 589.833 1647.27 583.129 c 24
 1654.68 578.517 1661.39 577.504 1662.95 567.156 c 0
 1666.09 546.335 1668.66 560.882 1667.23 570.864 c 0
 1666.24 577.818 1663.09 587.906 1660.1 587.407 c 0
 1653.26 586.267 1649.01 587.851 1642.13 589.404 c 24
 1632.79 591.513 1607 592.314 1615.89 608.514 c 24
 1618.3 612.904 1634.94 615.555 1640.99 615.645 c 24
 1653.4 615.829 1665.85 609.185 1678.93 611.937 c 24
 1683.52 612.903 1684.51 617.949 1689.19 618.211 c 24
 1699.22 618.773 1704.87 616.49 1714.58 613.934 c 24
 1731.96 609.354 1741.09 604.438 1758.5 599.958 c 24
 1770.93 596.76 1798.6 598.753 1801.86 587.123 c 0
 1803.63 580.799 1805.6 577.45 1809.27 572.005 c 24
 1814.43 564.355 1845.95 541.13 1811.86 542.813 c 1
 1811.86 542.813 1798.84 536.3 1828.07 542.617 c 0
 1834.08 543.918 1827.77 556.284 1833.59 560.988 c 0
 1835.54 562.562 1840.08 558.81 1850.28 559.847 c 0
 1861.83 561.021 1867.92 561.377 1879.8 563.697 c 0
 1884.62 564.64 1887.19 559.409 1891.99 560.488 c 24
 1898.16 561.875 1899.17 569.864 1905.47 569.473 c 24
 1918.33 568.677 1924.11 561.773 1936.34 557.743 c 24
 1945.41 554.755 1952.17 555.391 1960.02 551.504 c 0
 1966.4 548.344 1957.52 561.594 1963.23 569.473 c 0
 1969.68 578.378 1985.27 578.457 1981.2 595.785 c 24
 1980.21 599.977 1973.25 600.742 1974.78 604.77 c 24
 1979.2 616.45 1995.34 622.967 2007.15 627.481 c 24
 2013.49 629.904 2017.08 632.983 2023.83 632.401 c 24
 2030.6 631.818 2032.89 626.468 2039.45 624.7 c 24
 2054.43 620.663 2060.41 616.732 2078.6 617.641 c 0
 2108.55 619.139 2100.8 613.414 2115.18 612.507 c 24
 2143.16 610.741 2159.65 616.737 2187.05 610.796 c 24
 2205.52 606.793 2212.94 596.549 2229.62 587.693 c 24
 2241.01 581.651 2250.54 582.309 2259.02 572.603 c 24
 2262.73 568.354 2254.45 564.36 2254.91 558.741 c 24
 2255.7 549.145 2256.76 543.135 2262.1 535.124 c 24
 2266.1 529.116 2274.75 531.53 2277.5 524.855 c 24
 2279.96 518.88 2269.58 514.497 2272.88 508.939 c 24
 2275.75 504.116 2282.45 511.327 2287.26 508.427 c 24
 2293.15 504.863 2294.07 500.009 2297.52 494.052 c 24
 2301.3 487.545 2299.92 481.372 2305.74 476.596 c 24
 2312.2 471.288 2320.36 476.346 2326.27 470.433 c 24
 2332.65 464.057 2325.07 444.775 2319.6 441.171 c 24
 2301.86 429.468 2295.75 449.618 2287.77 457.6 c 0
 2282.63 462.733 2292.67 445.486 2287.77 441.685 c 24
 2275.43 432.12 2258.52 449.387 2247.72 448.359 c 24
 2232.51 446.907 2222.78 434.217 2211.27 427.822 c 24
 2207.62 425.791 2203.74 427.904 2201 424.742 c 24
 2187.04 408.59 2200.54 399.173 2213.84 389.83 c 24
 2222.34 383.857 2229.55 384.627 2237.97 378.535 c 24
 2245.09 373.377 2245.29 366.077 2252.86 361.593 c 24
 2260.71 356.939 2293.93 355.836 2292.39 343.109 c 24
 2290.87 330.548 2283.18 325.357 2274.93 315.759 c 24
 2265.6 304.898 2261.61 294.588 2247.72 291.116 c 24
 2236.29 288.256 2230.68 298.208 2219.49 301.896 c 24
 2213.03 304.025 2202.54 312.803 2202.54 306.004 c 24
 2202.54 298.38 2214.32 301.852 2219.49 296.25 c 24
 2229.58 285.314 2241.09 268.87 2227.19 254.664 c 24
 2222.32 249.685 2217.19 249.551 2210.25 249.016 c 0
 2190.22 247.477 2194.9 251.835 2185.09 253.637 c 25
 2195.19 239.618 2211.52 222.701 2211.79 201.27 c 24
 2211.86 195.167 2206.72 192.65 2201.52 189.461 c 24
 2193.9 184.795 2187.9 177.683 2179.95 181.76 c 24
 2168.59 187.594 2168.84 198.39 2162.5 209.483 c 24
 2155.21 222.236 2151.85 229.841 2145.04 242.855 c 25
 2148.85 228.038 2154.28 222.318 2154.8 204.863 c 0
 2154.99 198.431 2152.15 194.772 2153.26 188.435 c 24
 2154.23 182.877 2158.79 181.125 2159.93 175.6 c 24
 2161.47 168.146 2157.01 163.113 2159.93 156.09 c 24
 2163.42 147.71 2172.22 147.162 2175.33 138.635 c 24
 2177.38 133.024 2177.53 125.195 2171.74 123.746 c 24
 2164.34 121.896 2159.99 127.917 2154.8 133.499 c 24
 2141.05 148.28 2132.67 156.86 2123.99 175.086 c 24
 2118.43 186.771 2122.98 195.516 2119.37 207.943 c 24
 2115.89 219.917 2088.79 278.411 2076.76 262.879 c 24
 2073.46 258.614 2075.8 253.456 2071.62 250.043 c 24
 2066.09 245.513 2060.06 248.463 2054.17 244.396 c 24
 2048.53 240.502 2047.82 235.754 2043.39 230.534 c 24
 2038.8 225.133 2034.27 223.503 2031.07 217.185 c 24
 2027.04 209.26 2028.9 203.285 2025.42 195.108 c 24
 2022.76 188.852 2006 154.411 1998.72 162.251 c 24
 1990.92 170.655 1996.35 180.618 1990.51 190.488 c 24
 1985.28 199.308 1970.27 198.748 1969.97 213.591 c 24
 1969.86 219.168 1977.12 221.738 1975.1 226.94 c 24
 1973.47 231.151 1967.4 226.762 1963.81 229.507 c 24
 1956.7 234.942 1951.24 238.321 1948.92 246.963 c 24
 1947.11 253.688 1955.07 256.959 1954.57 263.905 c 24
 1954.09 270.431 1941.8 275.223 1945.33 283.928 c 24
 1947.35 288.92 1946.87 292.655 1954.57 294.195 c 0
 1957.36 294.753 1971 303.951 1948.92 298.817 c 0
 1939.83 296.7 1945.55 275.219 1937.11 273.146 c 24
 1927.1 270.685 1921.18 275.646 1910.93 276.74 c 24
 1906.15 277.25 1902.99 275.284 1898.61 277.253 c 24
 1892.64 279.931 1891.43 284.76 1885.77 288.035 c 24
 1876.08 293.647 1868.45 292.998 1859.59 299.844 c 24
 1856.13 302.515 1859.83 307.779 1856.51 310.624 c 24
 1850.58 315.707 1845.8 317.618 1838.03 318.325 c 24
 1831.78 318.894 1828.89 313.942 1822.62 313.705 c 24
 1817.81 313.523 1815.56 316.484 1810.81 317.299 c 24
 1795.69 319.898 1782.92 318.661 1771.28 326.026 c 24
 1767.52 328.404 1768.95 334.316 1764.61 335.268 c 16
 1761.71 335.903 1758.58 333.324 1755.36 332.715 c 0
 1750.49 331.794 1744.82 336.062 1744.87 329.909 c 0
1269.83 208.383 m 8
 1275.02 218.47 1286 215.732 1296.6 219.752 c 24
 1303.75 222.462 1312.37 228.554 1315.3 225.619 c 0
 1319.97 220.958 1307.19 219.224 1302.47 214.617 c 24
 1294.87 207.195 1294.2 196.808 1283.77 194.814 c 16
 1280.5 194.191 1281.15 199.631 1278.27 201.782 c 0
 1274.57 204.539 1267.88 204.596 1269.83 208.383 c 8
1465.66 109.004 m 24
 1449.96 90.396 1453.4 148.428 1466.76 118.537 c 24
 1468.29 115.12 1468.07 111.864 1465.66 109.004 c 24
94.873 192.613 m 24
 99.8789 194.381 103.599 193.693 108.441 191.514 c 24
 113.497 189.238 88.4078 190.332 94.873 192.613 c 24
240.093 261.558 m 24
 240.672 265.225 246.001 265.902 249.262 264.124 c 24
 251.676 262.806 250.81 257.897 248.161 257.156 c 24
 244.709 256.19 239.534 258.017 240.093 261.558 c 24
186.186 287.228 m 24
 183.689 293.47 199.83 287.212 194.986 285.76 c 24
 191.654 284.76 187.478 283.996 186.186 287.228 c 24
2295.89 -76.4199 m 24
 2295.79 -73.8545 2292.05 -74.0898 2291.4 -71.6074 c 24
 2290.54 -68.3184 2292.94 -66.293 2292.36 -62.9434 c 24
 2291.77 -59.5244 2288.14 -58.3711 2288.51 -54.9219 c 24
 2291.2 -30.245 2317.63 -63.4495 2323.17 -67.4355 c 0
 2331.62 -73.5189 2320.93 -84.8511 2322.21 -93.4268 c 0
 2323.66 -103.293 2308.9 -107.995 2301.03 -101.77 c 24
 2295.74 -97.5879 2293.38 -93.6133 2292.04 -87.0098 c 24
 2291.17 -82.7021 2296.08 -80.8115 2295.89 -76.4199 c 24
1631.42 642.617 m 24
 1623.1 634.915 1625.51 653.075 1624.82 654.352 c 24
 1621.7 660.138 1612.72 659.512 1612.72 666.088 c 0
 1612.72 670.487 1610.35 676.699 1614.19 675.988 c 24
 1619.73 674.962 1618.91 668.49 1622.62 664.252 c 24
 1628.3 657.773 1642.29 652.676 1631.42 642.617 c 24
2335.7 348.529 m 24
 2335.17 352.897 2338.92 354.75 2339.69 359.083 c 24
 2340.39 363.026 2336.98 366.164 2339.4 369.352 c 24
 2341.67 372.318 2346.27 368.335 2348.82 371.062 c 0
 2352.81 375.34 2358.51 377.337 2366.21 376.48 c 0
 2377.27 375.254 2381.91 386.179 2393.03 386.179 c 24
 2397.59 386.179 2397.25 380.401 2399.59 376.48 c 24
 2402.04 372.38 2404.79 370.393 2405.29 365.643 c 24
 2405.65 362.229 2402.83 360.858 2401.58 357.657 c 24
 2400.49 354.837 2401.07 352.698 2399.3 350.24 c 24
 2395.81 345.386 2392.86 343.449 2388.46 339.402 c 0
 2381.33 332.842 2380.19 333.983 2373.63 335.408 c 0
 2366.99 336.854 2363.02 333.948 2356.23 334.268 c 24
 2353.42 334.4 2352.11 335.828 2349.39 336.551 c 24
 2346.65 337.277 2344.39 336.109 2342.26 337.976 c 24
 2338.61 341.167 2336.28 343.719 2335.7 348.529 c 24
242.477 66.2275 m 24
 239.411 71.541 250.025 72.3643 253.6 77.3516 c 24
 256.473 81.3574 253.812 88.6387 258.733 88.9023 c 24
 267.084 89.3496 267.719 82.9131 277.56 78.6357 c 0
 281.88 76.7568 286.116 73.0723 282.266 67.5107 c 0
 279.441 63.4326 278.661 58.3848 273.709 58.0996 c 24
 267.509 57.7402 265.307 69.4814 260.018 66.2275 c 0
 248.895 59.3828 245.895 60.3018 242.477 66.2275 c 24
226.219 88.4746 m 24
 222.946 92.1309 232.156 93.4395 236.485 95.748 c 24
 242.228 98.8105 247.55 107.016 251.889 102.166 c 24
 259.04 94.1767 235.719 77.8591 226.219 88.4746 c 24
204.826 67.9385 m 0
 212.527 73.501 217.005 83.0137 220.657 76.9258 c 24
 224.781 70.0547 216.93 63.3389 209.96 59.3828 c 24
 206.576 57.4609 201.671 65.6602 204.826 67.9385 c 0
28.9844 29.0059 m 24
 26.2949 32.4463 31.3564 35.8994 30.2686 40.1299 c 24
 28.2432 48.0078 22.0303 50.8545 21.2842 58.9541 c 24
 20.75 64.7578 26.9727 66.8242 27.2734 72.6455 c 24
 27.5166 77.3496 21.9268 79.1016 22.5674 83.7695 c 24
 23.2666 88.8613 30.7725 89.3496 30.2686 94.4648 c 24
 29.5625 101.649 20 102.647 20 109.867 c 24
 20 115.3 24.8887 118.525 30.2686 119.279 c 24
 35.2295 119.974 36.5557 114.161 41.3926 112.861 c 24
 48.0166 111.082 52.0908 111.122 58.9346 111.578 c 24
 62.3047 111.803 63.8506 115.619 67.0625 114.574 c 24
 72.123 112.926 72.4844 107.784 77.3311 105.589 c 24
 81.7627 103.581 85.25 106.184 89.7383 104.306 c 24
 92.8965 102.983 92.3545 97.3086 95.7275 97.8877 c 24
 100.612 98.7246 99.7979 107.499 104.712 106.873 c 24
 110.658 106.113 115.087 87.2302 123.537 97.8877 c 24
 125.978 100.964 121.76 108.022 125.677 107.728 c 24
 132.932 107.184 135.346 101.582 140.65 96.6045 c 24
 147.2 90.4577 151.466 77.3244 163.754 77.7793 c 24
 169.082 77.9766 172.82 86.2549 176.589 82.4863 c 24
 183.574 75.501 181.555 67.7959 183.436 58.0996 c 24
 187.61 36.5503 177.731 24.5324 158.62 21.3047 c 24
 152.03 20.1914 147.066 25.8672 141.507 22.1611 c 24
 134.614 17.5645 135.118 10.8662 131.666 3.33594 c 24
 129.599 -1.1748 130.947 -5.18945 127.388 -8.64355 c 24
 124.452 -11.4941 120.543 -8.54492 117.12 -10.7832 c 24
 111.49 -14.4648 111.424 -20.792 105.141 -23.1904 c 24
 94.1914 -27.3728 87.9583 -12.0203 84.6045 -5.22168 c 24
 81.3555 1.36426 82.9053 7.08105 77.7588 12.3203 c 24
 72.874 17.2939 67.9717 17.7236 61.0723 18.7373 c 24
 56.2158 19.4521 53.3428 15.1016 48.666 16.5977 c 24
 40.0234 19.3633 34.5742 21.8574 28.9844 29.0059 c 24
2284.69 188.676 m 24
 2280.41 187.554 2269.27 200.976 2273.91 206.131 c 24
 2279.93 212.819 2284.47 219.469 2293.42 218.452 c 24
 2299.31 217.782 2298.16 209.253 2296.5 203.563 c 24
 2294.41 196.452 2291.86 190.553 2284.69 188.676 c 24
2442.82 89.0742 m 24
 2429.7 90.678 2432.28 109.918 2437.68 119.365 c 24
 2445.67 133.333 2457.71 110.873 2459.76 105.503 c 24
 2464.59 92.849 2453.54 87.7615 2442.82 89.0742 c 24
2387.37 81.8867 m 0
 2379.67 83.4277 2385.85 89.7422 2400.2 87.5332 c 0
 2420.23 84.4541 2415.12 75.7461 2409.44 76.2393 c 0
 2397.64 77.2656 2396.08 80.1436 2387.37 81.8867 c 0
2378.13 100.369 m 0
 2374.53 109.61 2372.05 114.699 2374.53 123.472 c 24
 2376.39 130.032 2381.06 127.65 2387.88 134.768 c 0
 2399.69 147.089 2398.36 142.016 2390.45 130.146 c 0
 2385.31 122.445 2394.5 124.692 2399.69 128.094 c 0
 2414.58 137.848 2410.47 131.687 2408.93 125.013 c 0
 2407.6 119.248 2402.8 118.749 2400.72 113.718 c 24
 2398.29 107.878 2403.08 101.018 2397.64 97.8018 c 24
 2391.03 93.8975 2380.91 93.2168 2378.13 100.369 c 0
2344.23 159.41 m 24
 2340.04 162.633 2346.22 167.916 2349.88 171.732 c 24
 2355.76 177.867 2359.35 183.891 2367.85 184.054 c 24
 2373.58 184.164 2372.4 176.162 2376.58 172.245 c 24
 2382.13 167.04 2387.66 166.827 2392.49 160.951 c 24
 2400.45 151.291 2373.41 156.514 2369.9 157.357 c 24
 2366.93 158.071 2375.04 165.059 2363.23 161.465 c 0
 2356.1 159.295 2350.14 154.868 2344.23 159.41 c 24
2308.81 39.2734 m 0
 2301.24 46.8438 2302.02 56.2666 2305.21 66.4844 c 24
 2306.83 71.6475 2309.1 58.1221 2313.94 55.7021 c 0
 2326.26 49.542 2327.69 62.0898 2334.48 57.7568 c 24
 2339.08 54.8135 2336.86 47.0879 2332.42 43.8936 c 24
 2324.81 38.4102 2321.13 26.9531 2308.81 39.2734 c 0
2322.67 96.7754 m 24
 2317.83 100.339 2326.91 105.765 2331.91 109.098 c 24
 2336.52 112.168 2340.85 109.643 2345.77 112.177 c 24
 2354.71 116.778 2357.15 129.828 2366.82 127.066 c 24
 2374.58 124.849 2362.26 114.805 2356.55 109.098 c 24
 2352 104.537 2347.73 104.112 2341.67 101.909 c 24
 2334.45 99.2871 2328.85 92.2227 2322.67 96.7754 c 24
2244.63 124.5 m 24
 2241.23 129.409 2232.02 131.062 2234.88 136.307 c 24
 2237.85 141.76 2244.92 133.775 2250.79 135.794 c 24
 2261.78 139.569 2273.03 150.922 2279.54 159.924 c 24
 2282.54 164.061 2280.25 173.008 2285.19 171.732 c 24
 2292.34 169.887 2293.12 162.824 2295.46 155.816 c 24
 2298.26 147.405 2301.5 141.384 2298.03 133.228 c 24
 2293.45 122.499 2273.65 124.803 2264.14 119.878 c 24
 2258.99 117.209 2259.01 108.271 2253.36 109.61 c 24
 2246.81 111.162 2248.46 118.965 2244.63 124.5 c 24
2170.7 51.082 m 0
 2175.85 62.7432 2186.68 73.7549 2193.29 74.6982 c 0
 2200.48 75.7266 2179.92 63.918 2244.12 63.918 c 0
 2249.25 63.918 2250.28 49.0283 2247.71 38.7598 c 0
 2245.47 29.7793 2236.42 40.8145 2225.64 30.0322 c 0
 2221.69 26.0889 2217.5 22.9023 2212.29 24.8984 c 24
 2194.39 31.7559 2163 33.626 2170.7 51.082 c 0
2104.99 137.848 m 0
 2101.4 142.328 2106.47 151.303 2112.17 150.683 c 24
 2120.9 149.733 2121.36 140.245 2128.6 135.28 c 24
 2139.32 127.936 2148.84 128.706 2157.87 119.365 c 24
 2161.9 115.188 2155.86 109.711 2158.38 104.477 c 24
 2161.45 98.0977 2165.21 95.3828 2171.21 91.6406 c 24
 2176.17 88.5586 2184.57 93.2734 2185.59 87.5332 c 24
 2186.66 81.5254 2178.25 81.4258 2173.78 77.2656 c 24
 2169.43 73.2119 2168.91 65.8613 2163 66.4844 c 24
 2156.98 67.1172 2158.72 75.2139 2154.27 79.3193 c 24
 2150.65 82.6602 2146.42 81.4414 2142.98 84.9668 c 24
 2138.08 89.9805 2138.69 95.415 2133.74 100.369 c 24
 2127.22 106.888 2119.84 106.402 2114.23 113.718 c 24
 2108.09 121.713 2115.25 125.013 2104.99 137.848 c 0
2018.32 147.174 m 24
 2009.38 151.834 2017.98 154.316 2019.86 160.01 c 24
 2020.74 162.685 2018.47 164.471 2019.17 167.198 c 24
 2019.76 169.499 2021.67 169.977 2022.94 171.988 c 24
 2023.46 172.815 2031.38 190.399 2034.92 182.429 c 0
 2040.39 170.107 2035.53 172.377 2034.92 166 c 24
 2034.59 162.614 2035.6 160.693 2032.52 157.614 c 0
 2030.77 155.865 2033.31 153.481 2032.18 151.282 c 24
 2029.07 145.236 2024.92 143.734 2018.32 147.174 c 24
1692.73 -50.1445 m 24
 1692.47 -45.3174 1694.56 -42.5117 1697.58 -38.7363 c 24
 1698.42 -37.6855 1699.54 -40.7988 1700.72 -40.1611 c 24
 1703.09 -38.8848 1703 -36.5439 1705 -34.7422 c 24
 1706.4 -33.4775 1708.35 -34.1084 1709.28 -32.46 c 24
 1710.59 -30.1162 1708.96 -28.0391 1710.13 -25.6152 c 24
 1713.39 -18.8492 1720.35 -14.3787 1722.11 -5.93457 c 24
 1722.76 -2.83789 1718.24 0.0449219 1720.68 2.05176 c 24
 1725.45 5.96352 1733.09 0.0287427 1737.51 3.19141 c 24
 1739.67 4.73438 1738.74 7.95801 1741.22 8.89648 c 24
 1743.79 9.87109 1745.42 6.44629 1748.07 7.18555 c 24
 1752.78 8.50171 1753.26 14.5138 1756.62 17.168 c 24
 1759.24 19.2344 1761.61 18.9395 1764.33 20.877 c 24
 1767.14 22.8877 1767.52 25.5752 1770.6 27.1523 c 24
 1772.68 28.2148 1774.46 26.1807 1776.59 27.1523 c 24
 1778.69 28.112 1784.73 38.061 1788.28 33.1406 c 24
 1790.37 30.2541 1788.95 16.1511 1786.86 13.1758 c 24
 1783.68 8.67235 1775.59 8.60587 1771.74 4.33301 c 24
 1770.7 3.17285 1772.86 1.01953 1771.46 0.34082 c 24
 1768.65 -1.01367 1765.92 2.26172 1763.47 0.34082 c 24
 1760.81 -1.74316 1763.45 -5.71973 1760.9 -7.93164 c 24
 1756.81 -11.4755 1748.75 -7.43024 1748.07 -15.917 c 24
 1747.89 -18.127 1750.96 -19.4609 1749.78 -21.3369 c 24
 1748.33 -23.6299 1745.1 -21.6709 1743.22 -23.6182 c 24
 1741.45 -25.4424 1743.13 -27.9453 1741.51 -29.8926 c 24
 1740.04 -31.6553 1737.17 -30.1533 1736.09 -32.1758 c 24
 1733.5 -37.0039 1735.46 -40.9971 1732.95 -45.8652 c 24
 1731.46 -48.7549 1727.92 -48.1328 1726.39 -51 c 24
 1724.03 -55.4316 1726.58 -59.5557 1723.54 -63.5498 c 24
 1721.85 -65.7695 1718.85 -62.7842 1716.41 -64.1201 c 24
 1713.57 -65.6699 1714.1 -69.5078 1710.99 -70.3955 c 24
 1708.3 -71.1621 1707.13 -68.2188 1704.43 -67.5439 c 24
 1702.59 -67.085 1700.68 -69.0811 1699.58 -67.5439 c 24
 1697.76 -64.9941 1699.87 -62.4727 1698.72 -59.5566 c 24
 1697.13 -55.5078 1692.97 -54.4893 1692.73 -50.1445 c 24
1775.28 444.398 m 0
 1771.2 444.326 1771.19 437.75 1767.11 437.862 c 24
 1759.9 438.063 1756.81 442.496 1750.08 445.098 c 24
 1739.6 449.143 1734.06 456.899 1723.01 454.899 c 24
 1717.37 453.878 1725.76 445.227 1723.01 440.196 c 24
 1720.34 435.322 1711.19 438.276 1710.87 432.729 c 24
 1710.35 423.586 1714.39 417.656 1721.37 411.727 c 24
 1726.11 407.704 1731.62 412.97 1737.24 410.326 c 24
 1745.93 406.243 1747.5 398.146 1756.61 395.157 c 24
 1765.02 392.402 1770.5 395.265 1779.25 396.557 c 24
 1786.59 397.642 1791.09 397.828 1797.68 401.225 c 24
 1800.67 402.763 1799 408.356 1802.35 408.46 c 24
 1809.89 408.69 1813.21 400.211 1820.55 401.926 c 24
 1828.01 403.668 1832.6 408.465 1834.32 415.927 c 24
 1835.47 420.912 1829.3 422.156 1826.16 426.194 c 24
 1820.47 433.509 1819.58 438.446 1807.49 439.029 c 24
 1802.2 439.286 1798.26 435.021 1793.95 438.097 c 0
 1789.05 441.597 1788.82 444.631 1775.28 444.398 c 0
1628.31 361.576 m 0
 1627.8 361.823 1627.86 367.539 1630.22 367.355 c 0
 1637.17 366.818 1640.25 371.522 1643.06 369.923 c 0
 1646.74 367.823 1635.62 358.021 1628.31 361.576 c 0
1559.63 355.805 m 24
 1556.56 357.198 1562.68 361.686 1566.05 361.58 c 24
 1572.09 361.391 1584.66 359.209 1580.17 355.162 c 24
 1574.21 349.802 1566.92 352.489 1559.63 355.805 c 24
1458.72 371.529 m 24
 1456.31 376.724 1466.55 378.808 1472.13 377.521 c 24
 1476.38 376.54 1480.83 369.14 1476.84 367.355 c 24
 1470.22 364.396 1461.77 364.952 1458.72 371.529 c 24
1423.58 378.266 m 24
 1419.33 382.863 1421.93 392.925 1423.58 394.31 c 0
 1426.97 397.155 1431.28 390.396 1431.28 385.967 c 24
 1431.28 381.719 1426.46 375.145 1423.58 378.266 c 24
1309.99 473.246 m 24
 1303.75 477.986 1318.97 483.38 1318.97 491.215 c 24
 1318.97 505.662 1300.2 521.649 1309.99 527.153 c 0
 1320.25 532.929 1321.01 520.564 1326.03 514.318 c 24
 1331.5 507.514 1330.73 501.147 1336.3 494.424 c 24
 1338.47 491.803 1342.51 494.516 1344.64 491.856 c 24
 1349.06 486.339 1355.94 480.824 1351.7 475.171 c 24
 1347.69 469.829 1341.69 479.33 1335.02 479.021 c 24
 1325.01 478.561 1317.96 467.185 1309.99 473.246 c 24
1307.42 493.782 m 24
 1306.19 488.528 1293.3 471.817 1293.3 485.439 c 24
 1293.3 487.244 1296.03 487.492 1295.87 489.29 c 24
 1295.71 491.052 1292.41 490.747 1292.66 492.498 c 24
 1293.06 495.324 1297.15 495.42 1297.15 498.274 c 24
 1297.15 502.417 1290.81 504.195 1292.66 507.9 c 24
 1294.48 511.544 1299.98 512.643 1302.93 509.826 c 24
 1307.62 505.335 1308.9 500.109 1307.42 493.782 c 24
1207.31 534.854 m 24
 1199.31 545.345 1217.62 554.33 1224.63 545.123 c 24
 1229.82 538.312 1214.03 526.028 1207.31 534.854 c 24
1215.65 565.659 m 24
 1202.2 571.235 1208.27 586.606 1218.22 591.329 c 24
 1223.64 593.906 1227.64 590.751 1233.62 591.329 c 24
 1243.2 592.257 1248.7 597.644 1258 595.18 c 24
 1261.76 594.186 1258.4 588.07 1255.44 585.553 c 24
 1252.36 582.939 1248.29 586.825 1245.17 584.27 c 24
 1239.31 579.478 1240.66 572.262 1234.26 568.226 c 24
 1228.06 564.318 1222.42 562.853 1215.65 565.659 c 24
1186.13 574.644 m 24
 1179.3 573.721 1180.23 584.444 1180.35 591.329 c 24
 1180.63 607.722 1189.78 618.062 1202.17 623.417 c 24
 1205.19 624.723 1207.82 620.246 1210.51 622.134 c 24
 1216.38 626.238 1215.72 632.574 1221.42 636.894 c 24
 1225.54 640.008 1229.27 638.785 1234.26 640.103 c 24
 1248.37 643.829 1259.64 649.381 1274.69 642.027 c 24
 1279.16 639.848 1282.79 637.364 1283.03 632.401 c 24
 1283.28 627.502 1259.31 628.315 1254.15 627.268 c 24
 1239.1 624.209 1224.97 618.276 1215.65 608.656 c 24
 1213.36 606.293 1216.45 602.862 1214.37 600.313 c 24
 1211.46 596.758 1207.5 597.629 1204.1 594.538 c 24
 1196.36 587.505 1196.49 576.043 1186.13 574.644 c 24
1093.71 447.575 m 24
 1077.17 438.503 1064.22 461.832 1082.16 468.111 c 24
 1088.35 470.275 1092.33 465.594 1098.85 466.187 c 24
 1103.66 466.624 1105.68 471.705 1110.4 470.679 c 24
 1113.58 469.988 1115.72 465.457 1113.61 462.978 c 24
 1109.82 458.513 1104.12 461.431 1099.49 457.844 c 24
 1095.86 455.031 1097.74 449.785 1093.71 447.575 c 24
1030.18 621.491 m 24
 1032.38 635.654 1064.95 630.945 1075.75 626.626 c 24
 1081.17 624.456 1081.15 618.316 1086.66 616.357 c 24
 1096.63 612.808 1103.03 612.834 1113.61 613.148 c 24
 1128.5 613.591 1136.93 621.516 1151.47 618.283 c 24
 1165.91 615.074 1156.58 591.793 1157.89 581.703 c 24
 1158.64 575.93 1160.31 572.455 1164.31 568.226 c 24
 1169.41 562.828 1179.3 565.312 1180.35 557.958 c 24
 1183.13 538.535 1142.19 546.406 1127.73 546.406 c 24
 1118.71 546.406 1113.63 545.31 1104.62 545.765 c 24
 1093.8 546.312 1085.94 542.817 1077.03 548.973 c 24
 1072.08 552.389 1081.84 560.042 1077.67 564.375 c 24
 1073.15 569.079 1067.23 563.77 1060.99 565.659 c 24
 1045.55 570.324 1050.63 580.885 1045.58 593.254 c 24
 1040.84 604.87 1028.26 609.096 1030.18 621.491 c 24
674.006 14.3896 m 24
 666.188 20.6412 676.092 26.5822 678.498 16.9561 c 24
 678.987 14.999 675.581 13.1289 674.006 14.3896 c 24
833.804 251.198 m 24
 831.982 257.269 843.651 255.092 849.847 253.765 c 24
 852.401 253.217 854.354 247.761 851.772 247.348 c 24
 844.695 246.216 835.862 244.333 833.804 251.198 c 24
933.275 241.571 m 24
 930.532 241.901 931.275 247.818 933.917 248.631 c 24
 939.941 250.484 950.531 252.981 949.961 246.705 c 24
 949.345 239.925 940.035 240.761 933.275 241.571 c 24
1002.58 350.028 m 24
 1001.72 341.426 988.611 351.132 996.168 353.879 c 24
 998.91 354.877 1002.88 352.933 1002.58 350.028 c 24
880.651 272.376 m 0
 896.971 273.931 910 270.273 917.873 260.824 c 24
 931.4 244.592 903.511 253.882 896.054 253.123 c 24
 890.697 252.579 871.112 239.34 867.816 251.198 c 0
 864.607 262.749 880.73 253.318 884.502 259.541 c 24
 887.211 264.011 867.175 271.093 880.651 272.376 c 0
801.073 284.569 m 24
 802.659 292.5 812.24 292.432 820.326 292.271 c 24
 826.295 292.151 827.497 285.816 833.161 283.928 c 24
 843.599 280.449 860.813 285.464 867.175 277.51 c 24
 870.484 273.373 843.792 269.074 837.653 269.167 c 24
 826.662 269.333 799.025 274.332 801.073 284.569 c 24
257.185 524.907 m 0
 251.834 528.611 248.175 530.107 241.782 531.325 c 24
 237.33 532.174 234.746 529.638 230.23 530.041 c 24
 217.854 531.149 206.932 525.793 198.785 535.176 c 24
 193.204 541.601 202.717 548.747 209.053 554.428 c 24
 211.587 556.7 214.305 550.435 217.396 551.861 c 24
 222.081 554.023 221.221 559.638 225.738 562.129 c 24
 229.244 564.063 233.328 559.152 236.007 562.129 c 24
 238.764 565.193 226.082 571.072 227.664 572.397 c 24
 237.206 580.392 243.624 584.017 255.26 588.441 c 24
 261.826 590.938 266.204 589.589 273.229 589.725 c 24
 279.24 589.84 283.096 586.735 288.631 589.083 c 24
 300.391 594.071 303.371 603.951 315.584 607.693 c 24
 320.936 609.333 322.872 600.537 328.42 601.276 c 24
 332.688 601.846 331.205 607.949 334.837 610.261 c 24
 339.913 613.491 343.812 616.406 349.598 614.753 c 24
 356.064 612.905 355.099 601.891 361.791 602.56 c 24
 367.026 603.084 358.713 612.316 362.433 616.037 c 24
 369.874 623.479 377.146 623.443 386.819 627.588 c 24
 392.933 630.208 396.395 631.823 402.863 633.364 c 24
 407.01 634.352 409.699 632.752 413.773 634.006 c 24
 422.882 636.809 426.728 642.972 436.234 643.632 c 24
 445.805 644.297 450.494 638.647 459.979 637.215 c 24
 463.971 636.611 466.243 639 470.248 638.498 c 24
 476.456 637.723 479.503 635.177 485.65 634.006 c 24
 490.082 633.161 492.825 634.458 497.202 633.364 c 24
 504.96 631.424 508.458 626.305 516.454 626.305 c 24
 525.161 626.305 528.933 633.054 537.633 633.364 c 24
 543.811 633.585 546.219 627.29 552.393 627.588 c 24
 562.593 628.082 567.208 635.289 577.421 635.289 c 24
 583.259 635.289 584.755 629.54 590.257 627.588 c 24
 592.862 626.663 594.758 629.276 597.315 628.23 c 24
 600.759 626.821 600.68 622.247 604.375 621.812 c 24
 610.284 621.117 613.229 626.365 619.136 625.663 c 24
 626.592 624.777 629.296 618.533 636.784 617.962 c 24
 646.427 617.227 651.521 623.087 661.171 622.454 c 24
 670.913 621.816 682.945 611.659 688.124 605.127 c 24
 690.24 602.46 688.064 598.948 690.691 596.784 c 24
 693.211 594.71 696.766 598.488 699.034 596.143 c 24
 710.799 583.973 714.142 563.239 722.138 548.011 c 24
 726.714 539.292 730 529.319 742.674 528.758 c 24
 749.54 528.453 754.283 528.155 760.001 531.967 c 24
 763.755 534.47 762.343 538.623 763.852 542.876 c 24
 765.097 546.384 768.888 548.621 767.061 551.861 c 24
 762.536 559.883 753.535 559.516 749.733 567.905 c 24
 745.699 576.808 744.888 583.831 748.449 592.934 c 24
 750.382 597.872 756.96 594.357 761.285 597.426 c 24
 765.081 600.121 764.678 604.183 768.344 607.052 c 24
 770.782 608.96 773.781 606.865 776.045 608.978 c 24
 785.394 617.701 787.019 626.301 797.223 634.006 c 24
 800.444 636.438 803.529 631.953 807.491 632.723 c 24
 812.88 633.771 814.915 637.577 820.326 638.498 c 24
 826.993 639.633 831.127 636.087 837.653 637.856 c 24
 846.406 640.23 849.448 646.349 858.19 648.767 c 24
 861.936 649.802 863.94 645.922 867.816 646.199 c 24
 871.392 646.455 872.605 650.514 876.159 650.05 c 24
 884.874 648.913 888.821 644.52 897.337 642.349 c 24
 901.709 641.234 904.707 643.403 908.889 641.707 c 24
 914.362 639.487 915.265 633.749 921.082 632.723 c 24
 929.065 631.313 933.862 638.286 941.618 635.932 c 24
 949.416 633.564 949.546 625.061 957.021 621.812 c 24
 965.576 618.095 971.542 620.322 980.766 618.925 c 24
 998.361 616.257 1012.27 610.9 1024.41 602.56 c 24
 1028.95 599.438 1033.2 598.667 1035.32 593.575 c 24
 1039.09 584.486 1034.32 577.443 1038.52 568.547 c 24
 1041.35 562.573 1046.4 561.78 1052 558.278 c 24
 1056.04 555.753 1072.86 552.099 1066.12 542.876 c 24
 1062.49 537.905 1055.64 540.782 1052 535.817 c 24
 1050.27 533.454 1056.67 534.943 1059.06 533.25 c 24
 1062.82 530.59 1069.31 529.096 1067.4 524.907 c 24
 1064.84 519.279 1058.4 521.384 1052.64 519.132 c 25
 1057.4 517.379 1061.49 518.443 1064.84 514.639 c 24
 1067.85 511.211 1066.01 507.592 1066.76 503.088 c 25
 1071.27 505.591 1074.23 506.356 1078.31 509.505 c 24
 1088.56 517.418 1091.27 526.644 1103.34 531.325 c 24
 1107.55 532.955 1107.52 525.616 1109.76 521.698 c 24
 1112.54 516.839 1117.12 514.38 1116.18 508.863 c 24
 1115.25 503.453 1107.64 504.445 1105.91 499.237 c 24
 1104.63 495.401 1110.06 493.643 1109.76 489.61 c 24
 1108.83 477.058 1097.35 483.997 1089.22 482.551 c 24
 1083.59 481.55 1081.42 477.511 1075.75 476.775 c 24
 1060.67 474.821 1045.17 479.225 1032.75 483.193 c 24
 1023.01 486.304 1018.58 492.42 1008.36 492.819 c 24
 1003.76 493 1004.17 486.468 1000.02 484.477 c 24
 976.458 473.168 945.674 470.026 917.873 465.224 c 24
 904.128 462.85 896.036 463.109 882.577 459.448 c 24
 864.625 454.564 854.673 450.917 837.653 443.404 c 24
 826.776 438.603 822.938 430.631 811.342 428.002 c 24
 802.868 426.082 798.189 431.896 789.522 432.494 c 24
 783.483 432.91 780.154 430.076 774.12 430.569 c 24
 767.644 431.098 764.4 436.549 758.076 435.062 c 24
 746.196 432.266 741.242 426.058 730.48 420.301 c 25
 740.491 424.306 745.449 429.252 756.15 430.569 c 24
 762.671 431.371 765.662 426.131 772.194 425.435 c 24
 777.721 424.847 780.78 427.883 786.313 427.36 c 24
 794.291 426.608 798.363 420.592 806.208 422.227 c 24
 817.727 424.626 821.705 432.352 832.52 436.986 c 24
 844.597 442.162 852.088 443.265 864.607 447.255 c 24
 880.12 452.198 893.612 455.816 912.098 458.807 c 24
 920.872 460.225 925.672 462.778 934.56 462.657 c 24
 944.229 462.523 949.307 457.375 958.946 458.164 c 24
 965.417 458.694 967.382 464.396 973.706 465.865 c 24
 978.606 467.005 981.782 462.954 986.541 464.582 c 24
 992.091 466.479 992.48 472.512 998.093 474.208 c 24
 1003.72 475.908 1022.11 473.747 1019.91 467.149 c 24
 1018.71 463.533 1011.17 467.104 1010.93 463.299 c 24
 1010.67 459.201 1017.37 460.521 1019.27 456.881 c 24
 1020.78 453.988 1016.52 451.03 1018.63 448.538 c 24
 1023.4 442.9 1038.17 456.386 1043.02 456.239 c 24
 1053.8 455.914 1043.55 439.551 1041.09 436.986 c 24
 1038.3 434.075 1034.29 435.244 1032.11 431.853 c 24
 1028.88 426.854 1032.38 421.384 1028.26 417.092 c 24
 1021.95 410.527 1010.47 420.21 1003.87 418.376 c 24
 998.742 416.951 998.742 410.762 993.601 409.391 c 24
 975.69 404.613 968.541 416.316 959.588 424.151 c 25
 958.086 418.645 960.952 412.351 955.737 410.033 c 24
 950.417 407.669 948.08 416.321 942.26 416.45 c 24
 929.462 416.735 920.661 405.123 912.739 399.123 c 24
 910.139 397.152 906.748 397.714 905.68 394.631 c 24
 904.116 390.112 907.543 387.184 906.964 382.438 c 24
 905.045 366.714 894.371 355.468 880.01 352.274 c 24
 874.146 350.971 870.452 353.659 864.607 352.274 c 24
 860.554 351.314 859.381 344.701 855.623 346.499 c 24
 850.671 348.866 852.1 354.328 849.847 359.334 c 25
 848.095 346.819 847.951 339.612 845.354 327.246 c 24
 843.681 319.267 847.083 307.012 838.938 307.352 c 24
 830.203 307.715 835.969 321.546 829.953 327.888 c 24
 820.662 337.682 800.089 330.611 787.597 328.529 c 24
 781.786 327.561 776.331 320.578 772.836 325.32 c 24
 763.209 338.387 765.398 349.592 760.643 365.109 c 25
 761.394 349.843 768.399 340.093 762.568 325.963 c 24
 759.793 319.236 751.098 326.073 743.957 324.679 c 24
 732.958 322.534 725.749 311.987 717.004 306.71 c 24
 710.388 302.718 704.269 304.05 699.034 298.367 c 24
 691.716 290.422 694.63 277.084 697.109 266.921 c 24
 698.178 262.538 697.27 258.608 700.96 256.011 c 24
 705.277 252.973 709.157 254.626 714.437 254.728 c 24
 722.23 254.878 727.573 252.768 734.331 256.652 c 24
 739.089 259.389 735.939 265.916 740.106 269.488 c 24
 749.119 277.213 762.745 276.289 776.687 277.189 c 25
 767.176 268.18 761.402 263.508 752.3 254.086 c 24
 747.112 248.716 739.703 246.78 740.106 239.325 c 24
 740.447 233.018 747.651 232.512 753.584 230.341 c 24
 758.29 228.618 761.801 231.646 766.419 229.699 c 24
 781.24 223.444 767.459 188.248 792.089 187.664 c 24
 798.766 187.505 802.098 191.651 808.774 191.515 c 24
 814.791 191.392 817.876 189.066 823.535 187.022 c 24
 826.905 185.805 828.517 181.93 831.878 183.172 c 24
 841.321 186.661 844.225 193.1 853.056 197.932 c 24
 857.641 200.44 860.881 200.296 865.892 201.782 c 24
 876.898 205.05 882.83 212.18 894.128 210.125 c 24
 899.3 209.186 896.015 201.555 894.128 196.648 c 24
 892.022 191.175 885.794 190.817 884.502 185.097 c 24
 883.661 181.37 885.851 177.271 889.636 176.754 c 24
 903.112 174.919 896.584 194.777 901.188 199.216 c 24
 905.527 203.399 911.634 203.93 916.59 200.499 c 24
 920.727 197.635 913.401 189.968 917.873 187.664 c 24
 924.803 184.094 930.026 188.679 937.768 189.589 c 24
 947.048 190.681 952.284 194.267 961.513 192.798 c 24
 970.251 191.409 962.427 178.57 963.438 178.037 c 24
 968.537 175.354 973.196 181.538 978.198 178.68 c 24
 983.454 175.676 982.755 170.375 985.899 165.202 c 24
 994.587 150.909 1002.74 136.038 1012.85 122.847 c 24
 1017.92 116.243 1022.12 113.696 1027.61 107.444 c 24
 1031.15 103.42 1034.71 101.744 1035.96 96.5342 c 24
 1037.65 89.459 1038.75 83.9521 1034.67 77.9238 c 24
 1031.26 72.873 1026 73.0869 1019.91 72.7891 c 24
 1015.17 72.5576 1013.11 76.7715 1008.36 76.6396 c 24
 1003.53 76.5059 1001.57 71.334 996.81 72.1475 c 24
 984.733 74.2102 976.793 87.6689 967.289 93.3252 c 24
 963.003 95.876 959.324 99.8193 955.096 97.1758 c 24
 949.835 93.8882 955.091 74.2798 942.902 74.7148 c 24
 937.771 74.8975 937.245 80.4307 933.917 84.3408 c 24
 927.229 92.2002 927.281 102.532 917.231 104.877 c 24
 911.062 106.317 916.709 94.8311 914.665 88.833 c 24
 912.891 83.6328 912.842 78.3066 907.605 76.6396 c 24
 903.722 75.4043 903.197 81.248 900.546 84.3408 c 24
 895.687 90.0107 893.108 93.3447 888.353 99.1016 c 25
 890.945 92.2652 894.841 72.2952 902.472 70.8643 c 24
 908.092 69.8096 912.479 72.0938 915.948 76.6396 c 24
 920.516 82.625 914.413 91.7578 921.082 95.251 c 24
 928.611 99.1941 932.27 56.7057 948.678 72.1475 c 24
 954.875 77.9795 952.036 86.4346 958.946 91.4004 c 24
 966.83 97.0672 980.13 69.7535 989.108 68.2969 c 24
 997.437 66.9471 1005.42 71.7012 1015.42 69.5811 c 24
 1021.23 68.349 1029.41 61.4312 1035.96 67.0137 c 24
 1044.2 74.0436 1045.07 88.9357 1055.85 93.3252 c 24
 1058.94 94.585 1061.17 89.9893 1064.19 91.4004 c 24
 1069.65 93.9453 1069.34 100.591 1075.1 102.311 c 24
 1098.8 109.379 1117.03 96.3643 1131.58 87.5498 c 24
 1142.39 80.9991 1151.62 73.8135 1147.62 56.1035 c 24
 1145.6 47.1504 1142.56 42.4854 1137.35 34.9258 c 24
 1134.63 30.9658 1128.99 31.8633 1127.73 27.2246 c 24
 1126.84 23.9756 1132.55 24.0361 1133.5 20.8066 c 24
 1135.93 12.5898 1134.53 7.41504 1136.07 -1.0127 c 24
 1137.29 -7.64062 1142.84 -11.3564 1140.56 -17.6982 c 24
 1138.47 -23.5166 1133.14 -24.7988 1127.09 -26.041 c 24
 1122.51 -26.9814 1119.27 -20.0273 1115.53 -22.832 c 24
 1111.51 -25.8506 1116.64 -31.2383 1114.25 -35.668 c 24
 1112.66 -38.624 1109.05 -41.7568 1106.55 -39.5186 c 24
 1102.07 -35.5059 1103.81 -30.5146 1102.06 -24.7578 c 25
 1098.55 -32.7676 1097.96 -38.0469 1093.07 -45.2939 c 24
 1088.62 -51.8981 1077.02 -56.1371 1068.69 -58.1289 c 24
 1063.07 -59.4727 1057.51 -54.876 1053.93 -59.4121 c 24
 1051.01 -63.1035 1057.71 -65.8184 1059.06 -70.3223 c 24
 1060.74 -75.9189 1063.82 -79.667 1061.63 -85.083 c 24
 1058.97 -91.6533 1050.47 -90.5801 1048.15 -97.2764 c 24
 1045.67 -104.434 1056.7 -111.879 1050.72 -116.529 c 24
 1044.34 -121.488 1036.54 -116.466 1030.82 -110.753 c 24
 1019.3 -99.2296 1015.38 -82.3304 1009.64 -65.8301 c 25
 1011.15 -76.3428 1013.16 -82.1699 1013.5 -92.7842 c 24
 1013.67 -98.3779 1014.33 -111.346 1010.93 -106.902 c 24
 999.353 -91.79 998.401 -79.8916 990.392 -62.6211 c 25
 993.609 -85.1392 994.907 -103.973 1009 -117.812 c 24
 1014.99 -123.691 1021.71 -121.2 1029.54 -124.23 c 24
 1037.55 -127.33 1055.64 -129.999 1047.51 -142.199 c 24
 1044.65 -146.492 1041.63 -147.837 1037.24 -150.542 c 24
 1031.81 -153.886 1025.67 -152.074 1022.48 -157.602 c 24
 1017.28 -166.618 1020.37 -173.779 1017.99 -183.913 c 24
 1014.16 -200.185 1006.25 -212.869 996.81 -223.702 c 24
 992.39 -228.771 990.599 -232.823 984.616 -235.896 c 24
 980.609 -237.954 977.095 -233.88 973.064 -235.896 c 24
 969.213 -237.821 970.441 -242.845 966.647 -244.88 c 24
 955.708 -250.751 936.522 -253.606 923.649 -248.089 c 24
 912.463 -243.295 916.613 -225.977 908.889 -219.852 c 24
 905.117 -216.859 899.436 -225.735 896.695 -221.777 c 24
 894.008 -217.894 903.113 -216.231 903.113 -211.509 c 24
 903.113 -208.812 898.465 -210.974 896.695 -208.942 c 24
 888.608 -199.656 881.84 -186.54 876.801 -174.929 c 24
 873.966 -168.395 873.795 -164.163 871.025 -157.602 c 24
 869.021 -152.854 865.156 -151.174 864.607 -146.05 c 24
 864.281 -143.012 870.845 -142.141 869.1 -139.632 c 24
 865.323 -134.203 858.229 -136.637 854.34 -131.289 c 24
 851.392 -127.235 855.888 -122.963 853.697 -118.454 c 24
 851.3 -113.517 846.274 -113.521 843.43 -108.828 c 24
 841.038 -104.881 843.448 -101.1 840.862 -97.2764 c 24
 837.379 -92.127 832.612 -91.8135 828.669 -87.0078 c 24
 824.476 -81.8965 824.084 -77.6885 820.326 -72.248 c 24
 816.794 -67.1309 813.507 -65.2275 810.059 -60.0547 c 24
 806.457 -54.6523 806.86 -49.9707 802.357 -45.2939 c 24
 799.829 -42.6689 794.844 -46.0605 793.372 -42.7266 c 24
 790.341 -35.8535 795.763 -30.3477 792.73 -23.4746 c 24
 791.259 -20.1396 785.554 -24.0703 783.746 -20.9072 c 24
 779.825 -14.0459 785.091 -6.96777 779.896 -1.0127 c 24
 773.563 6.24609 765.469 3.94434 757.435 9.25586 c 24
 745.44 17.183 734.502 30.8237 730.48 45.8359 c 24
 729.043 51.2041 728.95 55.6025 732.405 59.9541 c 24
 736.582 65.2139 743.308 62.6689 747.808 67.6553 c 24
 753.138 73.5605 752.936 78.9902 756.15 86.2666 c 24
 759.721 94.3454 763.358 102.697 765.136 111.937 c 24
 766.367 118.346 763.499 122.785 766.419 128.622 c 24
 768.123 132.031 772.382 130.148 775.403 132.473 c 24
 779.061 135.287 778.977 139.395 783.104 141.457 c 24
 787.604 143.707 792.075 139.521 795.939 142.741 c 24
 799.484 145.695 795.489 150.799 798.507 154.293 c 24
 801.046 157.233 805.583 153.928 808.133 156.859 c 24
 811.359 160.569 810.148 164.282 811.342 169.053 c 24
 812.151 172.293 815.763 175.177 813.267 177.396 c 24
 809.299 180.923 804.539 181.696 799.79 179.321 c 24
 795.285 177.068 798.761 169.454 794.015 167.77 c 24
 788.568 165.837 785.365 170.4 779.896 172.262 c 24
 773.6 174.405 770.373 176.734 763.852 178.037 c 24
 760.161 178.775 757.591 175.714 754.226 177.396 c 24
 744.958 182.029 741.789 187.877 733.048 193.439 c 24
 727.944 196.688 724.106 196.731 718.929 199.857 c 24
 710.784 204.774 707.989 210.76 699.034 213.976 c 24
 681.711 220.199 670.686 219.138 652.828 223.603 c 24
 637.617 227.405 628.858 229.28 614.322 235.154 c 24
 603.932 239.353 600.207 246.727 589.294 249.272 c 24
 576.861 252.173 569.072 246.072 556.564 248.631 c 24
 546.365 250.717 542.175 256.258 532.819 260.824 c 24
 521.147 266.521 513.83 268.322 502.656 274.942 c 0
 485.329 285.211 494.095 295.977 482.12 299.33 c 0
 466.076 303.822 458.692 310.57 445.54 320.508 c 24
 435.934 327.765 433.479 335.104 424.362 342.969 c 24
 422.432 344.634 404.845 349.655 411.527 355.805 c 24
 416.97 360.812 422.488 359.744 428.854 363.505 c 24
 433.6 366.31 434.367 371.373 439.765 372.49 c 0
 458.375 376.341 467.36 377.624 481.479 380.833 c 1
 467.36 377.624 452.6 385.325 430.78 371.848 c 0
 422.445 366.7 417.724 362.515 409.602 365.431 c 24
 403.774 367.522 408.521 375.295 405.751 380.833 c 24
 404.75 382.834 400.808 385.63 400.617 383.399 c 24
 399.777 373.594 402.686 368.146 403.826 358.371 c 24
 404.438 353.127 402.714 349.6 405.109 344.895 c 24
 409.969 335.349 414.157 330.585 421.795 323.074 c 24
 429.327 315.669 436.428 314.771 443.615 307.03 c 24
 446.633 303.78 451.184 296.938 446.824 296.121 c 24
 440.615 294.956 438.855 302.016 433.347 305.105 c 24
 420.912 312.084 407.587 316.815 394.199 321.791 c 24
 385.075 325.185 377.998 323.339 370.455 329.492 c 24
 366.765 332.503 371.581 337.265 369.812 341.686 c 24
 368.366 345.301 364.376 345.205 362.754 348.745 c 24
 361.397 351.703 364.972 354.707 362.754 357.088 c 24
 350.517 370.215 343.038 377.705 327.457 386.608 c 24
 319.526 391.141 312.115 385.643 304.354 390.459 c 24
 296.442 395.37 297.522 403.916 290.235 409.712 c 24
 282.938 415.515 272.364 411.887 262.64 411.637 c 24
 258.128 411.521 255.435 413.489 251.088 412.279 c 24
 231.162 406.731 216.865 391.866 193.33 400.086 c 24
 184.24 403.261 180.442 408.04 171.51 411.637 c 24
 162.326 415.336 153.581 411.19 147.123 418.696 c 24
 134.763 433.06 158.831 450.408 162.525 459.127 c 24
 165.267 465.596 160.005 471.19 163.809 477.097 c 24
 170.248 487.093 176.53 491.196 186.912 496.991 c 24
 198.454 503.433 207.301 501.751 219 507.9 c 24
 227.17 512.195 228.537 519.548 236.969 523.303 c 24
 244.194 526.521 269.699 516.243 257.185 524.907 c 0
EndSplineSet
EndChar
StartChar: u1F670
Encoding: 128624 128624 3123
Width: 764
Flags: MW
LayerCount: 3
Fore
SplineSet
249 424 m 0
 186 424 132 324 132 252 c 8
 132 245 135 238 142 238 c 16
 157 238 230 306 280 356 c 24
 287 363 289 372 289 382 c 16
 289 403 270 424 249 424 c 0
296 486 m 0
 325 486 347 475 351 451 c 0
 353 441 356 441 362 448 c 0
 409 506 468 581 468 608 c 0
 468 631 447 651 447 676 c 0
 447 700 477 726 509 729 c 24
 530 731 540 709 540 686 c 0
 540 653 480 562 426 494 c 24
 335 378 282 312 169 217 c 8
 154 204 140 189 140 176 c 0
 140 73 212 26 313 26 c 0
 484 26 619 172 619 344 c 16
 619 364 617 377 605 389 c 0
 587 408 574 418 550 418 c 0
 507 418 484 388 484 351 c 16
 484 296 530 298 530 286 c 0
 530 259 499 243 478 243 c 0
 457 243 428 286 428 322 c 16
 428 377 508 456 590 456 c 0
 672 456 708 366 758 366 c 0
 775 366 791 378 791 395 c 16
 791 419 767 428 767 452 c 8
 767 471 776 486 803 486 c 0
 841 486 840 450 840 412 c 8
 840 359 784 317 742 317 c 8
 707 317 680 327 658 349 c 8
 654 353 646 353 646 344 c 8
 646 135 491 -46 280 -46 c 0
 190 -46 70 6 66 161 c 0
 62 319 200 486 296 486 c 0
EndSplineSet
EndChar
StartChar: u1F675
Encoding: 128629 128629 3122
Width: 876
Flags: MW
LayerCount: 3
Fore
SplineSet
336 590 m 16
 396 590 444 556 444 514 c 8
 444 488 439 462 404 462 c 0
 382 462 366 538 292 538 c 0
 246 538 197 498 197 454 c 0
 197 413 221 385 243 385 c 0
 260 385 286 390 308 390 c 0
 321 390 333 377 333 365 c 8
 333 333 300 304 278 304 c 0
 256 304 232 312 202 312 c 0
 140 312 94 258 94 204 c 8
 94 37 253 -65 428 -65 c 0
 579 -65 757 36 757 199 c 0
 757 287 738 365 663 409 c 0
 650 416 635 418 621 418 c 0
 601 418 514 377 514 312 c 8
 514 274 529 231 567 231 c 16
 584 231 591 248 591 264 c 16
 591 284 590 311 610 311 c 16
 644 311 669 284 669 251 c 16
 669 214 636 182 600 182 c 8
 529 182 466 230 466 304 c 0
 466 413 633 498 696 508 c 0
 798 524 846 553 846 572 c 0
 846 603 829 634 798 634 c 8
 785 634 779 634 770 618 c 0
 765 609 758 606 748 606 c 8
 738 606 731 614 731 624 c 16
 731 659 761 686 796 686 c 16
 852 686 906 634 906 578 c 8
 906 493 764 458 725 456 c 0
 687 454 683 450 683 445 c 0
 683 440 686 436 699 428 c 0
 762 389 801 323 801 241 c 0
 801 17 607 -144 383 -144 c 8
 202 -144 28 -30 28 156 c 0
 28 271 116 322 164 336 c 0
 174 339 174 349 168 354 c 0
 154 365 137 389 137 416 c 16
 137 529 233 590 336 590 c 16
EndSplineSet
EndChar
StartChar: Adieresis.deu
Encoding: 1114112 -1 977
Width: 684
VWidth: 0
Flags: HMW
LayerCount: 3
Fore
SplineSet
217 710 m 0
 242 710 267 685 267 660 c 0
 267 635 242 610 217 610 c 0
 192 610 167 635 167 660 c 0
 167 685 192 710 217 710 c 0
515 710 m 0
 540 710 565 685 565 660 c 0
 565 635 540 610 515 610 c 0
 490 610 465 635 465 660 c 0
 465 685 490 710 515 710 c 0
333 542 m 2
 243 302 l 2
 242 299 241 296 241 294 c 0
 241 287 249 287 262 287 c 2
 417 287 l 2
 427 287 431 287 431 292 c 0
 431 294 430 298 429 302 c 2
 350 541 l 2
 346 553 344 559 341 559 c 0
 339 559 337 553 333 542 c 2
668 -5 m 0
 640 -5 574 1 529 1 c 0
 490 1 448 0 424 0 c 0
 407 0 395 4 395 12 c 0
 395 21 410 28 428 31 c 0
 472 38 489 54 489 76 c 0
 489 105 466 183 451 233 c 0
 448 243 442 244 424 244 c 2
 233 244 l 2
 227 244 221 240 216 226 c 0
 207 200 176 100 176 87 c 0
 176 58 202 38 234 30 c 0
 257 24 267 19 267 10 c 0
 267 2 255 -1 238 -1 c 0
 220 -1 184 1 147 1 c 0
 103 1 60 -5 27 -5 c 0
 10 -5 -2 0 -2 8 c 0
 -2 17 9 24 31 31 c 0
 65 41 95 58 117 108 c 0
 192 279 237 393 304 578 c 0
 319 620 316 635 318 636 c 0
 330 640 342 643 354 651 c 0
 368 660 370 686 375 686 c 0
 380 686 382 671 385 662 c 0
 449 459 530 223 563 128 c 0
 591 48 624 35 664 28 c 0
 687 24 697 14 697 5 c 0
 697 -3 685 -5 668 -5 c 0
EndSplineSet
Validated: 1
Substitution2: "c2sc subtable" Adieresis.sc
Position2: "rtbd subtable" dx=0 dy=0 dh=-34 dv=0
Position2: "lfbd subtable" dx=-34 dy=0 dh=-34 dv=0
EndChar
StartChar: Region.GB_CON
Encoding: 1115256 -1 3110
Width: 1143
Flags: MW
LayerCount: 3
Fore
SplineSet
510.732 42.0566 m 1
 115.39 42.0566 l 1
 115.39 285.345 l 1
 510.732 285.345 l 1
 510.732 42.0566 l 1
632.379 42.0566 m 1
 632.379 285.345 l 1
 1027.72 285.345 l 1
 1027.72 42.0566 l 1
 632.379 42.0566 l 1
1027.72 406.989 m 1
 632.379 406.989 l 1
 632.379 650.277 l 1
 1027.72 650.277 l 1
 1027.72 406.989 l 1
510.732 650.277 m 1
 510.732 406.989 l 1
 115.39 406.989 l 1
 115.39 650.277 l 1
 510.732 650.277 l 1
EndSplineSet
Ligature2: "liga_regionals subtable" u1F1EC u1F1E7 hyphen u1F1E8 u1F1F4 u1F1F3
EndChar
